<?xml version="1.0" encoding="UTF-8" standalone="no"?>
<!DOCTYPE svg PUBLIC "-//W3C//DTD SVG 1.1//EN" "http://www.w3.org/Graphics/SVG/1.1/DTD/svg11.dtd">
<svg width="100%" height="100%" viewBox="0 0 1770 526" version="1.1" xmlns="http://www.w3.org/2000/svg" xmlns:xlink="http://www.w3.org/1999/xlink" xml:space="preserve" xmlns:serif="http://www.serif.com/" style="fill-rule:evenodd;clip-rule:evenodd;stroke-linejoin:round;stroke-miterlimit:2;">
    <g transform="matrix(1.56048,0.327349,-0.282717,1.34771,-101.223,-3476.01)">
        <path d="M790.186,2532.15C740.28,2479.14 670.707,2459.5 618.144,2488.92C552.835,2525.47 538.358,2624.02 585.836,2708.84C610.52,2752.94 647.122,2784.71 685.748,2799.9C681.187,2800.62 676.553,2800.99 671.861,2800.99C600.337,2800.99 542.268,2715.32 542.268,2609.79C542.268,2504.27 600.337,2418.6 671.861,2418.6C724.634,2418.6 770.082,2465.24 790.282,2532.07L790.186,2532.15ZM686.75,2799.74L686.714,2800.28C686.391,2800.15 686.069,2800.03 685.748,2799.9C686.08,2799.85 686.411,2799.8 686.75,2799.74Z" style="fill:white;"/>
    </g>
    <g transform="matrix(1.88755,0,0,1.88755,-428.592,-2078.43)">
        <g transform="matrix(1,0,0,1,-11.6553,0)">
            <path d="M438.945,1377.69L458.945,1282.89L473.745,1282.89L472.345,1294.89C477.811,1291.82 483.945,1289.02 490.745,1286.49C497.545,1283.96 504.145,1282.09 510.545,1280.89L507.945,1293.69C503.945,1294.49 499.611,1295.59 494.945,1296.99C490.278,1298.39 485.778,1299.96 481.445,1301.69C477.111,1303.42 473.411,1305.22 470.345,1307.09L455.345,1377.69L438.945,1377.69Z" style="fill:white;fill-rule:nonzero;"/>
        </g>
        <g transform="matrix(1,0,0,1,-21.7213,0)">
            <path d="M508.345,1377.69L528.345,1282.89L543.145,1282.89L541.945,1293.69C547.811,1289.69 553.811,1286.56 559.945,1284.29C566.078,1282.02 572.411,1280.89 578.945,1280.89C585.611,1280.89 590.778,1282.02 594.445,1284.29C598.111,1286.56 600.478,1289.76 601.545,1293.89C606.745,1290.16 612.545,1287.06 618.945,1284.59C625.345,1282.12 632.611,1280.89 640.745,1280.89C651.011,1280.89 658.345,1283.66 662.745,1289.19C667.145,1294.72 668.078,1303.22 665.545,1314.69L652.345,1377.69L636.145,1377.69L649.145,1316.29C651.011,1307.89 650.678,1302.09 648.145,1298.89C645.611,1295.69 640.011,1294.09 631.345,1294.09C626.145,1294.09 621.011,1294.96 615.945,1296.69C610.878,1298.42 606.278,1301.09 602.145,1304.69C602.145,1308.42 601.745,1312.29 600.945,1316.29L587.945,1377.69L572.545,1377.69L585.345,1316.69C587.211,1308.02 587.145,1302.09 585.145,1298.89C583.145,1295.69 578.211,1294.09 570.345,1294.09C565.011,1294.09 559.678,1295.26 554.345,1297.59C549.011,1299.92 544.078,1302.82 539.545,1306.29L524.545,1377.69L508.345,1377.69Z" style="fill:white;fill-rule:nonzero;"/>
        </g>
        <g transform="matrix(1,0,0,1,-32.3171,0)">
            <path d="M714.345,1379.69C701.011,1379.69 691.378,1376.02 685.445,1368.69C679.511,1361.36 678.211,1349.49 681.545,1333.09C683.945,1321.62 687.878,1312.02 693.345,1304.29C698.811,1296.56 705.345,1290.72 712.945,1286.79C720.545,1282.86 728.611,1280.89 737.145,1280.89C743.278,1280.89 748.545,1281.62 752.945,1283.09C757.345,1284.56 761.478,1286.82 765.345,1289.89L766.745,1282.89L783.145,1282.89L763.145,1377.69L749.145,1377.69L749.945,1367.69C744.611,1371.82 739.111,1374.86 733.445,1376.79C727.778,1378.72 721.411,1379.69 714.345,1379.69ZM721.345,1366.49C726.811,1366.49 732.078,1365.56 737.145,1363.69C742.211,1361.82 747.011,1358.96 751.545,1355.09L762.345,1303.49C759.811,1300.56 756.678,1298.26 752.945,1296.59C749.211,1294.92 744.478,1294.09 738.745,1294.09C727.678,1294.09 718.778,1297.36 712.045,1303.89C705.311,1310.42 700.611,1320.16 697.945,1333.09C695.411,1345.49 695.778,1354.16 699.045,1359.09C702.311,1364.02 709.745,1366.49 721.345,1366.49Z" style="fill:white;fill-rule:nonzero;"/>
        </g>
        <g transform="matrix(1,0,0,1,-46.6214,0)">
            <path d="M789.945,1377.69L809.945,1282.89L824.745,1282.89L823.545,1293.69C829.411,1289.69 835.411,1286.56 841.545,1284.29C847.678,1282.02 854.011,1280.89 860.545,1280.89C867.211,1280.89 872.378,1282.02 876.045,1284.29C879.711,1286.56 882.078,1289.76 883.145,1293.89C888.345,1290.16 894.145,1287.06 900.545,1284.59C906.945,1282.12 914.211,1280.89 922.345,1280.89C932.611,1280.89 939.945,1283.66 944.345,1289.19C948.745,1294.72 949.678,1303.22 947.145,1314.69L933.945,1377.69L917.745,1377.69L930.745,1316.29C932.611,1307.89 932.278,1302.09 929.745,1298.89C927.211,1295.69 921.611,1294.09 912.945,1294.09C907.745,1294.09 902.611,1294.96 897.545,1296.69C892.478,1298.42 887.878,1301.09 883.745,1304.69C883.745,1308.42 883.345,1312.29 882.545,1316.29L869.545,1377.69L854.145,1377.69L866.945,1316.69C868.811,1308.02 868.745,1302.09 866.745,1298.89C864.745,1295.69 859.811,1294.09 851.945,1294.09C846.611,1294.09 841.278,1295.26 835.945,1297.59C830.611,1299.92 825.678,1302.82 821.145,1306.29L806.145,1377.69L789.945,1377.69Z" style="fill:white;fill-rule:nonzero;"/>
        </g>
        <g transform="matrix(1,0,0,1,-57.2171,0)">
            <path d="M1003.95,1379.69C987.545,1379.69 975.878,1375.62 968.945,1367.49C962.011,1359.36 960.345,1346.82 963.945,1329.89C967.278,1314.69 973.378,1302.72 982.245,1293.99C991.111,1285.26 1003.61,1280.89 1019.75,1280.89C1029.08,1280.89 1036.44,1282.59 1041.85,1285.99C1047.25,1289.39 1050.81,1294.06 1052.55,1299.99C1054.28,1305.92 1054.35,1312.62 1052.75,1320.09L1048.94,1337.89L978.745,1337.89C977.811,1345.09 978.045,1350.76 979.445,1354.89C980.845,1359.02 983.978,1361.99 988.845,1363.79C993.711,1365.59 1000.75,1366.49 1009.95,1366.49C1019.68,1366.49 1029.01,1364.82 1037.94,1361.49L1035.14,1374.29C1030.61,1376.02 1025.68,1377.36 1020.35,1378.29C1015.01,1379.22 1009.55,1379.69 1003.95,1379.69ZM981.145,1326.09L1036.75,1326.09L1038.55,1318.29C1040.14,1310.56 1039.55,1304.59 1036.75,1300.39C1033.94,1296.19 1027.48,1294.09 1017.35,1294.09C1006.55,1294.09 998.378,1296.76 992.845,1302.09C987.311,1307.42 983.411,1315.42 981.145,1326.09Z" style="fill:white;fill-rule:nonzero;"/>
        </g>
        <g transform="matrix(1,0,0,1,-70.4619,0)">
            <path d="M1064.75,1377.69L1084.75,1282.89L1099.55,1282.89L1098.35,1293.69C1103.68,1289.96 1109.61,1286.89 1116.14,1284.49C1122.68,1282.09 1129.88,1280.89 1137.75,1280.89C1160.68,1280.89 1169.68,1292.49 1164.75,1315.69L1151.75,1377.69L1135.35,1377.69L1148.35,1316.29C1150.08,1308.02 1149.71,1302.26 1147.25,1298.99C1144.78,1295.72 1138.81,1294.09 1129.35,1294.09C1123.88,1294.09 1118.11,1295.16 1112.05,1297.29C1105.98,1299.42 1100.75,1302.36 1096.35,1306.09L1081.14,1377.69L1064.75,1377.69Z" style="fill:white;fill-rule:nonzero;"/>
        </g>
        <g transform="matrix(1,0,0,1,-83.1768,0)">
            <path d="M1212.94,1379.69C1204.14,1379.69 1197.81,1377.19 1193.94,1372.19C1190.08,1367.19 1189.08,1360.22 1190.94,1351.29L1202.55,1295.89L1188.14,1295.89L1190.94,1282.89L1205.35,1282.89L1210.35,1259.49L1227.75,1254.49L1221.75,1282.89L1247.94,1282.89L1244.14,1295.89L1218.94,1295.89L1207.35,1350.49C1206.14,1356.22 1206.44,1360.32 1208.25,1362.79C1210.05,1365.26 1213.88,1366.49 1219.75,1366.49C1221.61,1366.49 1223.75,1366.32 1226.14,1365.99C1228.55,1365.66 1230.94,1365.16 1233.35,1364.49L1230.55,1376.89C1225.21,1378.76 1219.35,1379.69 1212.94,1379.69Z" style="fill:white;fill-rule:nonzero;"/>
        </g>
    </g>
    <g transform="matrix(1.88755,0,0,1.88755,-428.592,-2078.43)">
        <path d="M412.793,1239.85L415.774,1239.24C417.408,1238.91 418.225,1238.75 418.909,1238.36C419.514,1238.02 420.04,1237.56 420.455,1237C420.923,1236.37 421.19,1235.58 421.724,1234L426.097,1221.05L428.814,1234.44C429.146,1236.08 429.312,1236.89 429.697,1237.58C430.039,1238.18 430.503,1238.71 431.06,1239.12C431.69,1239.59 432.48,1239.86 434.06,1240.39L447.004,1244.77L433.614,1247.49C431.98,1247.82 431.163,1247.98 430.479,1248.37C429.874,1248.71 429.347,1249.17 428.933,1249.73C428.465,1250.36 428.198,1251.15 427.664,1252.73L423.291,1265.67L420.92,1253.99C419.945,1253.81 418.887,1253.64 417.745,1253.49C414.678,1253.09 411.545,1252.89 408.345,1252.89C400.078,1252.89 393.811,1254.46 389.545,1257.59C385.278,1260.72 382.411,1265.49 380.945,1271.89L378.545,1282.89L430.745,1282.89L410.745,1377.69L394.345,1377.69L411.545,1295.89L375.745,1295.89L358.545,1377.69L342.145,1377.69L359.345,1295.89L345.145,1295.89L347.945,1282.89L362.145,1282.89L364.545,1271.89C366.545,1262.42 371.211,1254.69 378.545,1248.69C385.878,1242.69 395.345,1239.69 406.945,1239.69C409,1239.69 410.95,1239.74 412.793,1239.85L402.384,1241.96L415.328,1246.34C416.908,1246.87 417.698,1247.13 418.328,1247.6C418.885,1248.02 419.349,1248.54 419.691,1249.15C420.076,1249.83 420.242,1250.65 420.574,1252.28L420.92,1253.99C422.565,1254.31 423.973,1254.67 425.145,1255.09L427.745,1242.69C423.947,1241.15 418.963,1240.2 412.793,1239.85ZM403.299,1191.93L405.073,1200.67C405.289,1201.74 405.397,1202.27 405.649,1202.72C405.872,1203.11 406.175,1203.45 406.539,1203.73C406.95,1204.03 407.465,1204.2 408.496,1204.55L416.945,1207.41L408.205,1209.18C407.139,1209.4 406.606,1209.51 406.159,1209.76C405.765,1209.98 405.421,1210.28 405.15,1210.65C404.845,1211.06 404.671,1211.57 404.322,1212.61L401.468,1221.05L399.694,1212.31C399.478,1211.25 399.37,1210.71 399.118,1210.27C398.895,1209.87 398.592,1209.53 398.228,1209.26C397.817,1208.95 397.302,1208.78 396.271,1208.43L387.822,1205.58L396.562,1203.8C397.628,1203.59 398.162,1203.48 398.608,1203.23C399.003,1203 399.346,1202.7 399.617,1202.34C399.922,1201.93 400.097,1201.41 400.445,1200.38L403.299,1191.93Z" style="fill:white;fill-rule:nonzero;"/>
    </g>
    <g transform="matrix(0.577737,0.094794,-0.0889253,0.54197,-22.8866,-1.79005)">
        <path d="M358.885,374.669L307.695,260.072L386.514,307.141L472.501,202.238L461.664,328.946L551.218,374.485L461.271,422.471L473.141,567.78L380.606,454.884L295.535,513.643L358.885,374.669Z" style="fill:white;"/>
    </g>
</svg>
