<?xml version="1.0" encoding="UTF-8" standalone="no"?><!DOCTYPE svg PUBLIC "-//W3C//DTD SVG 1.1//EN" "http://www.w3.org/Graphics/SVG/1.1/DTD/svg11.dtd"><svg width="100%" height="100%" viewBox="0 0 800 800" version="1.1" xmlns="http://www.w3.org/2000/svg" xmlns:xlink="http://www.w3.org/1999/xlink" xml:space="preserve" xmlns:serif="http://www.serif.com/" style="fill-rule:evenodd;clip-rule:evenodd;stroke-linejoin:round;stroke-miterlimit:2;"><g id="Ebene1"></g><path d="M218.703,48.94c-30.68,16.027 -59.001,35.964 -84.301,59.152l-56.084,84.299l63.082,-30.154l49.143,85.886l8.106,-98.836l65.141,-22.391l-54.578,-40.347l9.491,-37.609c54.67,-28.56 116.81,-44.708 182.692,-44.708c218.224,0 395.394,177.171 395.394,395.395c0,130.716 -63.569,246.703 -161.465,318.713l9.307,49.791l-78.743,21.869l-7.282,-27.515c27.303,-11.855 53.011,-26.705 76.718,-44.145l-62.176,-332.641c70.449,-22.238 138.497,-44.654 205.512,-71.348l-22.338,-71.073c-93.29,24.493 -166.909,43.737 -268.059,43.737c-101.151,0 -174.769,-19.244 -268.06,-43.737l-22.338,69.707c67.015,28.06 135.021,48.057 205.512,72.714l-71.482,382.432l78.742,21.869l63.664,-240.558l27.923,0l56.382,213.043c-48.213,20.935 -101.368,32.537 -157.211,32.537c-218.225,-0 -395.395,-177.171 -395.395,-395.395c0,-115.353 49.505,-219.235 128.402,-291.535l1.379,-2.073l-21.443,-82.514l47.266,40.202l68.774,-61.029l-11.675,46.262Zm269.56,194.338c-42.891,-0 -78.184,-34.552 -78.184,-76.542c-0,-41.989 35.293,-76.541 78.184,-76.541c42.89,0 78.184,34.552 78.184,76.541c-0.046,41.973 -35.311,76.497 -78.184,76.542Z"/></svg>