<?xml version="1.0" encoding="UTF-8" standalone="no"?><!DOCTYPE svg PUBLIC "-//W3C//DTD SVG 1.1//EN" "http://www.w3.org/Graphics/SVG/1.1/DTD/svg11.dtd"><svg width="100%" height="100%" viewBox="0 0 596 842" version="1.1" xmlns="http://www.w3.org/2000/svg" xmlns:xlink="http://www.w3.org/1999/xlink" xml:space="preserve" xmlns:serif="http://www.serif.com/" style="fill-rule:evenodd;clip-rule:evenodd;stroke-linejoin:round;stroke-miterlimit:2;"><path d="M119.955,255.229l9.497,-45.165l-7.841,-0l1.546,-7.178l7.841,-0l1.325,-6.074c1.104,-5.227 3.681,-9.497 7.73,-12.81c4.049,-3.312 9.276,-4.969 15.681,-4.969c4.932,0 8.76,0.552 11.484,1.657l-1.435,6.846c-1.031,-0.368 -2.393,-0.662 -4.086,-0.883c-1.693,-0.221 -3.423,-0.332 -5.19,-0.332c-4.565,0 -8.025,0.866 -10.381,2.596c-2.355,1.73 -3.938,4.361 -4.748,7.895l-1.325,6.074l28.822,-0l-11.043,52.343l-9.055,-0l9.497,-45.165l-19.767,-0l-9.497,45.165l-9.055,-0Z" style="fill-rule:nonzero;"/><path d="M166.114,255.229l25.509,-26.613l-13.804,-25.73l9.829,-0l10.159,19.546l18.442,-19.546l9.717,-0l-24.404,25.73l14.134,26.613l-9.828,-0l-10.711,-20.429l-19.215,20.429l-9.828,-0Z" style="fill-rule:nonzero;"/><path d="M238.997,256.333c-3.092,0 -6.166,-0.239 -9.221,-0.718c-3.055,-0.478 -5.577,-1.049 -7.564,-1.711l1.656,-7.951c4.859,1.767 10.049,2.65 15.571,2.65c4.638,0 8.061,-0.497 10.269,-1.491c2.209,-0.993 3.608,-2.852 4.197,-5.576c0.441,-1.988 0.221,-3.497 -0.663,-4.528c-0.883,-1.03 -2.319,-1.951 -4.307,-2.761c-1.987,-0.809 -4.564,-1.766 -7.73,-2.871c-2.797,-1.03 -5.245,-2.153 -7.343,-3.368c-2.098,-1.214 -3.607,-2.742 -4.528,-4.583c-0.92,-1.84 -1.049,-4.269 -0.386,-7.288c1.031,-4.638 3.258,-8.19 6.681,-10.656c3.423,-2.466 9.037,-3.7 16.84,-3.7c2.798,0 5.448,0.203 7.951,0.608c2.503,0.405 4.638,0.902 6.405,1.491l-1.657,7.95c-4.269,-1.546 -8.576,-2.319 -12.92,-2.319c-4.343,0 -7.656,0.461 -9.938,1.381c-2.282,0.92 -3.718,2.632 -4.307,5.135c-0.368,1.693 -0.202,3.037 0.497,4.03c0.699,0.994 1.951,1.841 3.755,2.54c1.803,0.7 4.141,1.565 7.012,2.595c5.668,1.841 9.607,3.884 11.816,6.129c2.208,2.245 2.834,5.614 1.877,10.104c-1.104,5.154 -3.46,8.927 -7.068,11.319c-3.607,2.393 -9.239,3.589 -16.895,3.589Z" style="fill-rule:nonzero;"/><path d="M290.457,256.333c-4.859,0 -8.356,-1.38 -10.491,-4.141c-2.135,-2.761 -2.687,-6.607 -1.657,-11.54l6.405,-30.588l-7.951,-0l1.546,-7.178l7.951,-0l2.761,-12.92l9.607,-2.761l-3.313,15.681l14.467,-0l-2.099,7.178l-13.914,-0l-6.404,30.147c-0.663,3.165 -0.497,5.429 0.496,6.791c0.994,1.362 3.111,2.043 6.35,2.043c1.031,-0 2.209,-0.092 3.534,-0.276c1.325,-0.184 2.65,-0.46 3.975,-0.828l-1.546,6.846c-2.944,1.031 -6.184,1.546 -9.717,1.546Z" style="fill-rule:nonzero;"/><path d="M336.174,256.333c-9.055,0 -15.497,-2.245 -19.325,-6.736c-3.828,-4.491 -4.748,-11.411 -2.761,-20.761c1.841,-8.392 5.209,-14.999 10.104,-19.821c4.896,-4.822 11.798,-7.234 20.706,-7.234c5.153,0 9.221,0.939 12.202,2.816c2.982,1.878 4.951,4.454 5.908,7.73c0.957,3.276 0.994,6.976 0.111,11.098l-2.099,9.829l-38.76,-0c-0.515,3.975 -0.387,7.104 0.386,9.386c0.773,2.282 2.504,3.92 5.191,4.914c2.687,0.994 6.57,1.491 11.65,1.491c5.374,-0 10.527,-0.92 15.46,-2.761l-1.546,7.068c-2.503,0.957 -5.227,1.693 -8.172,2.208c-2.945,0.515 -5.963,0.773 -9.055,0.773Zm-12.589,-29.595l30.699,0l0.994,-4.306c0.884,-4.27 0.552,-7.565 -0.994,-9.884c-1.546,-2.319 -5.116,-3.478 -10.711,-3.478c-5.963,-0 -10.473,1.472 -13.528,4.417c-3.055,2.945 -5.208,7.362 -6.46,13.251Z" style="fill-rule:nonzero;"/><path d="M369.744,255.229l11.043,-52.343l8.172,-0l-0.773,6.625c3.018,-1.693 6.405,-3.239 10.159,-4.638c3.755,-1.398 7.399,-2.429 10.933,-3.092l-1.436,7.068c-2.209,0.442 -4.601,1.049 -7.178,1.822c-2.576,0.773 -5.061,1.638 -7.454,2.595c-2.392,0.957 -4.435,1.951 -6.128,2.982l-8.283,38.981l-9.055,-0Z" style="fill-rule:nonzero;"/><path d="M408.063,255.229l11.043,-52.343l8.171,-0l-0.662,5.963c2.945,-2.061 6.221,-3.755 9.828,-5.08c3.607,-1.325 7.583,-1.988 11.926,-1.988c12.663,0 17.632,6.405 14.908,19.215l-7.178,34.233l-9.055,-0l7.178,-33.902c0.957,-4.564 0.755,-7.748 -0.607,-9.552c-1.362,-1.803 -4.657,-2.705 -9.884,-2.705c-3.018,-0 -6.202,0.589 -9.552,1.767c-3.349,1.178 -6.239,2.797 -8.668,4.858l-8.393,39.534l-9.055,-0Z" style="fill-rule:nonzero;"/><path d="M92.631,155.034l-9.125,-31.522l19.466,15.526l27.778,-22.928l-8.251,31.845l22.45,15.615l-26.473,8.229l-2.854,37.603l-20.441,-32.933l-25.597,11.195l23.047,-32.63Z"/></svg>