<?xml version="1.0" encoding="UTF-8" standalone="no"?><!DOCTYPE svg PUBLIC "-//W3C//DTD SVG 1.1//EN" "http://www.w3.org/Graphics/SVG/1.1/DTD/svg11.dtd"><svg width="100%" height="100%" viewBox="0 0 800 800" version="1.1" xmlns="http://www.w3.org/2000/svg" xmlns:xlink="http://www.w3.org/1999/xlink" xml:space="preserve" xmlns:serif="http://www.serif.com/" style="fill-rule:evenodd;clip-rule:evenodd;stroke-linejoin:round;stroke-miterlimit:2;"><g id="Ebene1"></g><path d="M218.897,48.839c-25.081,13.087 -48.586,28.785 -70.168,46.74l1.213,1.421l-40.833,57.538l70.592,-22.69l48.153,56.387l-4.524,-70.41l70.592,-22.69l-73.388,-20.825l-1.637,-25.471c54.599,-28.491 116.681,-44.607 182.498,-44.607c218.224,0 395.394,177.171 395.394,395.395c0,135.954 -68.765,255.973 -173.374,327.14l2.944,15.762c0.411,1.807 0.753,3.669 1.04,5.558c3.259,22.178 -12.978,43.726 -43.808,43.726c-19.196,-0 -30.72,-9.48 -37.605,-24.106c27.436,-10.798 53.377,-24.577 77.429,-40.94l-41.727,-223.445l-7.926,-61.606c-5.737,-35.881 -1.123,-47.737 0.438,-50.516c0.041,-0.065 0.078,-0.134 0.109,-0.205c1.479,-2.738 8.214,-8.872 23.93,-14.772l122.225,-42.727c0.751,-0.2 1.491,-0.437 2.218,-0.712c21.904,-8.214 43.809,-19.576 43.809,-43.712c-0,-24.136 -17.784,-50.599 -43.795,-43.767l-0.616,0.164l-0.575,0.178c-1.369,0.383 -2.738,0.794 -4.107,1.218c-25.477,7.475 -149.126,42.33 -236.236,42.33c-80.95,0 -193.414,-30.118 -229.391,-40.344c-3.581,-1.385 -7.237,-2.564 -10.952,-3.533c-26.011,-6.845 -43.809,19.577 -43.809,43.727c0,23.916 21.494,35.306 43.193,43.479l-0,0.384l130.357,40.714c13.32,5.106 16.879,10.322 18.618,14.84c5.654,14.498 1.136,43.206 -0.465,53.227l-7.941,61.605l-44.068,241.206c-0.137,0.657 -0.26,1.328 -0.37,2.012l-0.314,1.739c-3.177,22.11 13.06,43.562 43.808,43.562c26.832,-0 38.674,-18.523 43.808,-43.726c5.134,-25.204 38.332,-215.715 57.498,-215.715c19.167,0 58.649,215.715 58.649,215.715c1.461,7.173 3.465,13.804 6.203,19.62c-44.794,17.63 -93.571,27.315 -144.591,27.315c-218.225,-0 -395.395,-177.171 -395.395,-395.395c0,-122.184 55.541,-231.498 142.729,-304.048l-46.94,-54.966l73.388,20.825l40.833,-57.538l2.887,44.939Zm262.853,195.371c-42.056,-0 -76.664,-34.608 -76.664,-76.665c-0,-42.057 34.608,-76.664 76.664,-76.664c42.057,-0 76.665,34.607 76.665,76.664c-0.045,42.04 -34.625,76.62 -76.665,76.665Z"/></svg>