<?xml version="1.0" encoding="UTF-8" standalone="no"?><!DOCTYPE svg PUBLIC "-//W3C//DTD SVG 1.1//EN" "http://www.w3.org/Graphics/SVG/1.1/DTD/svg11.dtd"><svg width="100%" height="100%" viewBox="0 0 1067 1067" version="1.1" xmlns="http://www.w3.org/2000/svg" xmlns:xlink="http://www.w3.org/1999/xlink" xml:space="preserve" xmlns:serif="http://www.serif.com/" style="fill-rule:evenodd;clip-rule:evenodd;stroke-linejoin:round;stroke-miterlimit:2;"><g id="Ebene1"></g><path d="M262.191,81.842c-41.08,24.933 -78.491,55.323 -111.233,90.178l0.303,0.762l-69.121,136.436l87.465,-55.249l87.736,116.853l-5.777,-145.92l91.887,-44.264l-87.577,-49.319l6.317,-49.477c79.676,-48.358 173.113,-76.199 273.002,-76.199c290.966,0 527.193,236.227 527.193,527.193c-0,181.272 -91.687,341.298 -231.165,436.187l3.924,21.015c0.548,2.41 1.004,4.892 1.387,7.411c4.345,29.571 -17.304,58.302 -58.411,58.302c-25.594,-0 -40.959,-12.64 -50.139,-32.142c36.581,-14.397 71.169,-32.769 103.239,-54.586l-55.637,-297.927l-10.569,-82.141c-7.648,-47.842 -1.496,-63.65 0.584,-67.355c0.056,-0.087 0.105,-0.179 0.146,-0.274c1.972,-3.65 10.953,-11.828 31.908,-19.695l162.966,-56.969c1.001,-0.267 1.988,-0.584 2.957,-0.949c29.206,-10.952 58.411,-26.103 58.411,-58.284c0,-32.18 -23.711,-67.464 -58.392,-58.356l-0.822,0.219l-0.766,0.237c-1.826,0.511 -3.651,1.059 -5.477,1.625c-33.969,9.966 -198.834,56.44 -314.981,56.44c-107.933,-0 -257.885,-40.158 -305.855,-53.793c-4.774,-1.846 -9.649,-3.419 -14.602,-4.71c-34.682,-9.126 -58.411,26.103 -58.411,58.302c-0,31.889 28.657,47.075 57.589,57.973l0,0.511l173.809,54.286c17.761,6.808 22.507,13.763 24.825,19.786c7.539,19.331 1.515,57.608 -0.62,70.97l-10.587,82.14l-58.758,321.608c-0.183,0.876 -0.347,1.77 -0.493,2.683l-0.42,2.318c-4.235,29.479 17.414,58.083 58.411,58.083c35.777,-0 51.566,-24.697 58.411,-58.302c6.845,-33.605 51.11,-287.619 76.665,-287.619c25.554,-0 78.197,287.619 78.197,287.619c1.948,9.564 4.621,18.406 8.272,26.16c-59.726,23.507 -124.761,36.42 -192.789,36.42c-290.966,-0 -527.193,-236.227 -527.193,-527.193c-0,-139.518 54.313,-266.451 142.958,-360.816l-46.05,-116.066l76.786,50.401l90.313,-101.391l-9.816,76.878Zm380.143,243.771c-56.076,-0 -102.219,-46.144 -102.219,-102.22c-0,-56.075 46.143,-102.219 102.219,-102.219c56.076,0 102.219,46.144 102.219,102.219c-0.06,56.054 -46.166,102.16 -102.219,102.22Z"/></svg>