<?xml version="1.0" encoding="UTF-8" standalone="no"?><!DOCTYPE svg PUBLIC "-//W3C//DTD SVG 1.1//EN" "http://www.w3.org/Graphics/SVG/1.1/DTD/svg11.dtd"><svg width="100%" height="100%" viewBox="0 0 3834 1250" version="1.1" xmlns="http://www.w3.org/2000/svg" xmlns:xlink="http://www.w3.org/1999/xlink" xml:space="preserve" xmlns:serif="http://www.serif.com/" style="fill-rule:evenodd;clip-rule:evenodd;stroke-linejoin:round;stroke-miterlimit:2;"><g id="zwe-schriftgrössen-" serif:id="zwe schriftgrössen "><g><path d="M305.246,938.218c24.889,4.444 46,17.555 63.334,39.333c17.333,21.778 26,46.444 26,74c-0,23.556 -6.111,44.778 -18.334,63.667c-12.222,18.889 -29.889,33.777 -53,44.666c-23.111,10.889 -50,16.334 -80.666,16.334l-185.334,-0l0,-463.334l176.667,0c31.556,0 58.667,5.334 81.333,16c22.667,10.667 39.778,25 51.334,43c11.555,18 17.333,38.111 17.333,60.334c-0,26.666 -7.111,48.889 -21.333,66.666c-14.223,17.778 -33.334,30.889 -57.334,39.334Zm-172,-30.667l94,0c24.889,0 44.334,-5.667 58.334,-17c14,-11.333 21,-27.667 21,-49c-0,-20.889 -7,-37.222 -21,-49c-14,-11.778 -33.445,-17.667 -58.334,-17.667l-94,0l0,132.667Zm102.667,206.667c25.778,-0 46,-6.223 60.667,-18.667c14.666,-12.444 22,-29.778 22,-52c-0,-22.667 -7.778,-40.667 -23.334,-54c-15.555,-13.333 -36.222,-20 -62,-20l-100,0l0,144.667l102.667,-0Z" style="fill-rule:nonzero;"/><path d="M451.913,990.884c-0,-36.889 7.667,-69.555 23,-98c15.333,-28.444 36.222,-50.555 62.667,-66.333c26.444,-15.778 55.666,-23.667 87.666,-23.667c28.889,0 54.111,5.667 75.667,17c21.556,11.334 38.778,25.445 51.667,42.334l-0,-53.334l76.666,0l0,367.334l-76.666,-0l-0,-54.667c-12.889,17.333 -30.445,31.778 -52.667,43.333c-22.222,11.556 -47.556,17.334 -76,17.334c-31.556,-0 -60.444,-8.111 -86.667,-24.334c-26.222,-16.222 -47,-38.889 -62.333,-68c-15.333,-29.111 -23,-62.111 -23,-99Zm300.667,1.334c-0,-25.334 -5.223,-47.334 -15.667,-66c-10.444,-18.667 -24.111,-32.889 -41,-42.667c-16.889,-9.778 -35.111,-14.667 -54.667,-14.667c-19.555,0 -37.777,4.778 -54.666,14.334c-16.889,9.555 -30.556,23.555 -41,42c-10.445,18.444 -15.667,40.333 -15.667,65.666c-0,25.334 5.222,47.556 15.667,66.667c10.444,19.111 24.222,33.667 41.333,43.667c17.111,10 35.222,15 54.333,15c19.556,-0 37.778,-4.889 54.667,-14.667c16.889,-9.778 30.556,-24.111 41,-43c10.444,-18.889 15.667,-41 15.667,-66.333Z" style="fill-rule:nonzero;"/><path d="M1005.25,862.218c11.111,-18.667 25.889,-33.223 44.334,-43.667c18.444,-10.444 40.333,-15.667 65.666,-15.667l0,78.667l-19.333,0c-29.778,0 -52.333,7.556 -67.667,22.667c-15.333,15.111 -23,41.333 -23,78.666l0,193.334l-76,-0l0,-367.334l76,0l0,53.334Z" style="fill-rule:nonzero;"/><path d="M1261.25,862.218c11.111,-18.667 25.889,-33.223 44.334,-43.667c18.444,-10.444 40.333,-15.667 65.666,-15.667l0,78.667l-19.333,0c-29.778,0 -52.333,7.556 -67.667,22.667c-15.333,15.111 -23,41.333 -23,78.666l0,193.334l-76,-0l0,-367.334l76,0l0,53.334Z" style="fill-rule:nonzero;"/><path d="M1479.91,760.218c-13.778,-0 -25.333,-4.667 -34.667,-14c-9.333,-9.334 -14,-20.889 -14,-34.667c0,-13.778 4.667,-25.333 14,-34.667c9.334,-9.333 20.889,-14 34.667,-14c13.333,0 24.667,4.667 34,14c9.333,9.334 14,20.889 14,34.667c-0,13.778 -4.667,25.333 -14,34.667c-9.333,9.333 -20.667,14 -34,14Zm37.333,48.666l0,367.334l-76,-0l0,-367.334l76,0Z" style="fill-rule:nonzero;"/><path d="M1953.91,983.551c-0,13.778 -0.889,26.222 -2.667,37.333l-280.666,0c2.222,29.334 13.111,52.889 32.666,70.667c19.556,17.778 43.556,26.667 72,26.667c40.889,-0 69.778,-17.111 86.667,-51.334l82,0c-11.111,33.778 -31.222,61.445 -60.333,83c-29.111,21.556 -65.223,32.334 -108.334,32.334c-35.111,-0 -66.555,-7.889 -94.333,-23.667c-27.778,-15.778 -49.556,-38 -65.333,-66.667c-15.778,-28.666 -23.667,-61.889 -23.667,-99.666c-0,-37.778 7.667,-71 23,-99.667c15.333,-28.667 36.889,-50.778 64.667,-66.333c27.777,-15.556 59.666,-23.334 95.666,-23.334c34.667,0 65.556,7.556 92.667,22.667c27.111,15.111 48.222,36.333 63.333,63.667c15.111,27.333 22.667,58.777 22.667,94.333Zm-79.333,-24c-0.445,-28 -10.445,-50.444 -30,-67.333c-19.556,-16.889 -43.778,-25.334 -72.667,-25.334c-26.222,0 -48.667,8.334 -67.333,25c-18.667,16.667 -29.778,39.223 -33.334,67.667l203.334,0Z" style="fill-rule:nonzero;"/><path d="M2104.58,862.218c11.111,-18.667 25.889,-33.223 44.333,-43.667c18.444,-10.444 40.333,-15.667 65.667,-15.667l-0,78.667l-19.334,0c-29.777,0 -52.333,7.556 -67.666,22.667c-15.334,15.111 -23,41.333 -23,78.666l-0,193.334l-76,-0l-0,-367.334l76,0l-0,53.334Z" style="fill-rule:nonzero;"/><path d="M2621.25,983.551c0,13.778 -0.889,26.222 -2.666,37.333l-280.667,0c2.222,29.334 13.111,52.889 32.667,70.667c19.555,17.778 43.555,26.667 72,26.667c40.889,-0 69.777,-17.111 86.666,-51.334l82,0c-11.111,33.778 -31.222,61.445 -60.333,83c-29.111,21.556 -65.222,32.334 -108.333,32.334c-35.111,-0 -66.556,-7.889 -94.334,-23.667c-27.777,-15.778 -49.555,-38 -65.333,-66.667c-15.778,-28.666 -23.667,-61.889 -23.667,-99.666c0,-37.778 7.667,-71 23,-99.667c15.334,-28.667 36.889,-50.778 64.667,-66.333c27.778,-15.556 59.667,-23.334 95.667,-23.334c34.666,0 65.555,7.556 92.666,22.667c27.111,15.111 48.223,36.333 63.334,63.667c15.111,27.333 22.666,58.777 22.666,94.333Zm-79.333,-24c-0.444,-28 -10.444,-50.444 -30,-67.333c-19.556,-16.889 -43.778,-25.334 -72.667,-25.334c-26.222,0 -48.666,8.334 -67.333,25c-18.667,16.667 -29.778,39.223 -33.333,67.667l203.333,0Z" style="fill-rule:nonzero;"/><path d="M2849.91,870.884l-68,0l-0,305.334l-76.667,-0l0,-305.334l-43.333,0l-0,-62l43.333,0l0,-26c0,-42.222 11.223,-73 33.667,-92.333c22.444,-19.333 57.667,-29 105.667,-29l-0,63.333c-23.111,0 -39.334,4.334 -48.667,13c-9.333,8.667 -14,23.667 -14,45l-0,26l68,0l-0,62Z" style="fill-rule:nonzero;"/><path d="M2993.25,862.218c11.111,-18.667 25.889,-33.223 44.334,-43.667c18.444,-10.444 40.333,-15.667 65.666,-15.667l0,78.667l-19.333,0c-29.778,0 -52.333,7.556 -67.667,22.667c-15.333,15.111 -23,41.333 -23,78.666l0,193.334l-76,-0l0,-367.334l76,0l0,53.334Z" style="fill-rule:nonzero;"/><path d="M3509.91,983.551c-0,13.778 -0.889,26.222 -2.667,37.333l-280.666,0c2.222,29.334 13.111,52.889 32.666,70.667c19.556,17.778 43.556,26.667 72,26.667c40.889,-0 69.778,-17.111 86.667,-51.334l82,0c-11.111,33.778 -31.222,61.445 -60.333,83c-29.111,21.556 -65.223,32.334 -108.334,32.334c-35.111,-0 -66.555,-7.889 -94.333,-23.667c-27.778,-15.778 -49.556,-38 -65.333,-66.667c-15.778,-28.666 -23.667,-61.889 -23.667,-99.666c-0,-37.778 7.667,-71 23,-99.667c15.333,-28.667 36.889,-50.778 64.667,-66.333c27.777,-15.556 59.666,-23.334 95.666,-23.334c34.667,0 65.556,7.556 92.667,22.667c27.111,15.111 48.222,36.333 63.333,63.667c15.111,27.333 22.667,58.777 22.667,94.333Zm-79.333,-24c-0.445,-28 -10.445,-50.444 -30,-67.333c-19.556,-16.889 -43.778,-25.334 -72.667,-25.334c-26.222,0 -48.667,8.334 -67.333,25c-18.667,16.667 -29.778,39.223 -33.334,67.667l203.334,0Z" style="fill-rule:nonzero;"/><path d="M3623.25,760.218c-13.777,-0 -25.333,-4.667 -34.666,-14c-9.334,-9.334 -14,-20.889 -14,-34.667c-0,-13.778 4.666,-25.333 14,-34.667c9.333,-9.333 20.889,-14 34.666,-14c13.334,0 24.667,4.667 34,14c9.334,9.334 14,20.889 14,34.667c0,13.778 -4.666,25.333 -14,34.667c-9.333,9.333 -20.666,14 -34,14Zm37.334,48.666l-0,367.334l-76,-0l-0,-367.334l76,0Z" style="fill-rule:nonzero;"/></g><g><path d="M445.149,521.681l-239.741,0l-41.193,115.583l-98.038,-0l205.139,-566.517l108.748,0l205.139,566.517l-98.862,-0l-41.192,-115.583Zm-26.364,-75.698l-93.095,-262.909l-93.919,262.909l187.014,-0Z" style="fill-rule:nonzero;"/><path d="M853.779,413.425l209.258,223.839l-126.873,-0l-168.066,-192.909l0,192.909l-93.919,-0l0,-602.331l93.919,-0l0,350.003l164.771,-196.165l130.168,0l-209.258,224.654Z" style="fill-rule:nonzero;"/><path d="M1240.16,264.47l0,248.258c0,16.822 3.982,28.895 11.946,36.221c7.964,7.326 21.558,10.989 40.781,10.989l57.669,-0l0,77.326l-74.146,-0c-42.291,-0 -74.696,-9.768 -97.215,-29.303c-22.518,-19.535 -33.778,-51.279 -33.778,-95.233l0,-248.258l-53.55,-0l0,-75.699l53.55,0l0,-111.512l94.743,-0l0,111.512l110.396,0l0,75.699l-110.396,-0Z" style="fill-rule:nonzero;"/><path d="M1484.85,141.852c-17.026,0 -31.306,-5.697 -42.84,-17.093c-11.534,-11.395 -17.301,-25.504 -17.301,-42.326c-0,-16.822 5.767,-30.93 17.301,-42.326c11.534,-11.395 25.814,-17.093 42.84,-17.093c16.477,-0 30.483,5.698 42.017,17.093c11.533,11.396 17.3,25.504 17.3,42.326c0,16.822 -5.767,30.931 -17.3,42.326c-11.534,11.396 -25.54,17.093 -42.017,17.093Zm46.136,46.919l-0,402.659l-93.919,0l-0,-402.659l93.919,0Z" style="fill-rule:nonzero;"/><path d="M1851.46,644.589c-42.84,0 -81.561,-9.631 -116.163,-28.895c-34.602,-19.264 -61.789,-46.396 -81.561,-81.396c-19.773,-35.001 -29.659,-75.563 -29.659,-121.687c0,-45.582 10.161,-86.009 30.483,-121.281c20.321,-35.271 48.057,-62.403 83.208,-81.396c35.151,-18.992 74.422,-28.488 117.811,-28.488c43.39,-0 82.66,9.496 117.811,28.488c35.151,18.993 62.887,46.125 83.209,81.396c20.322,35.272 30.482,75.699 30.482,121.281c0,45.581 -10.435,86.008 -31.306,121.28c-20.871,35.271 -49.294,62.539 -85.269,81.803c-35.974,19.264 -75.657,28.895 -119.046,28.895Zm-0,-80.582c24.166,0 46.822,-5.697 67.968,-17.093c21.145,-11.395 38.309,-28.488 51.49,-51.279c13.182,-22.791 19.773,-50.466 19.773,-83.024c-0,-32.559 -6.316,-60.098 -18.949,-82.617c-12.632,-22.52 -29.384,-39.478 -50.255,-50.873c-20.871,-11.395 -43.389,-17.093 -67.555,-17.093c-24.167,-0 -46.548,5.698 -67.144,17.093c-20.597,11.395 -36.936,28.353 -49.02,50.873c-12.083,22.519 -18.124,50.058 -18.124,82.617c-0,48.295 12.495,85.601 37.485,111.919c24.99,26.318 56.434,39.477 94.331,39.477Z" style="fill-rule:nonzero;"/><path d="M2409.21,181.446c35.701,-0 67.693,7.325 95.979,21.977c28.286,14.651 50.392,36.357 66.32,65.117c15.928,28.759 23.892,63.488 23.892,104.187l-0,264.537l-93.095,-0l-0,-250.7c-0,-40.156 -10.161,-70.95 -30.483,-92.385c-20.322,-21.434 -48.058,-32.151 -83.209,-32.151c-35.151,-0 -63.025,10.717 -83.621,32.151c-20.596,21.435 -30.894,52.229 -30.894,92.385l-0,250.7l-93.919,-0l-0,-448.493l93.919,0l-0,51.28c15.378,-18.45 35.013,-32.83 58.905,-43.14c23.892,-10.31 49.294,-15.465 76.206,-15.465Z" style="fill-rule:nonzero;"/></g></g></svg>