<?xml version="1.0" encoding="UTF-8" standalone="no"?>
<!DOCTYPE svg PUBLIC "-//W3C//DTD SVG 1.1//EN" "http://www.w3.org/Graphics/SVG/1.1/DTD/svg11.dtd">
<svg width="100%" height="100%" viewBox="0 0 920 300" version="1.1" xmlns="http://www.w3.org/2000/svg" xmlns:xlink="http://www.w3.org/1999/xlink" xml:space="preserve" xmlns:serif="http://www.serif.com/" style="fill-rule:evenodd;clip-rule:evenodd;stroke-linejoin:round;stroke-miterlimit:2;">
    <g id="zwe-schriftgrössen-" serif:id="zwe schriftgrössen " transform="matrix(1,0,0,1,0,57.5)">
        <g transform="matrix(1,0,0,1,-55.2379,173.008)">
            <path d="M128.497,-5.336C134.47,-4.269 139.537,-1.122 143.697,4.104C147.857,9.331 149.937,15.251 149.937,21.864C149.937,27.518 148.47,32.611 145.537,37.144C142.604,41.678 138.364,45.251 132.817,47.864C127.27,50.478 120.817,51.784 113.457,51.784L68.977,51.784L68.977,-59.416L111.377,-59.416C118.95,-59.416 125.457,-58.136 130.897,-55.576C136.337,-53.016 140.444,-49.576 143.217,-45.256C145.99,-40.936 147.377,-36.109 147.377,-30.776C147.377,-24.376 145.67,-19.042 142.257,-14.776C138.844,-10.509 134.257,-7.362 128.497,-5.336ZM87.217,-12.696L109.777,-12.696C115.75,-12.696 120.417,-14.056 123.777,-16.776C127.137,-19.496 128.817,-23.416 128.817,-28.536C128.817,-33.549 127.137,-37.469 123.777,-40.296C120.417,-43.122 115.75,-44.536 109.777,-44.536L87.217,-44.536L87.217,-12.696ZM111.857,36.904C118.044,36.904 122.897,35.411 126.417,32.424C129.937,29.438 131.697,25.278 131.697,19.944C131.697,14.504 129.83,10.184 126.097,6.984C122.364,3.784 117.404,2.184 111.217,2.184L87.217,2.184L87.217,36.904L111.857,36.904Z" style="fill-rule:nonzero;"/>
            <path d="M163.697,7.304C163.697,-1.549 165.537,-9.389 169.217,-16.216C172.897,-23.042 177.91,-28.349 184.257,-32.136C190.604,-35.922 197.617,-37.816 205.297,-37.816C212.23,-37.816 218.284,-36.456 223.457,-33.736C228.63,-31.016 232.764,-27.629 235.857,-23.576L235.857,-36.376L254.257,-36.376L254.257,51.784L235.857,51.784L235.857,38.664C232.764,42.824 228.55,46.291 223.217,49.064C217.884,51.838 211.804,53.224 204.977,53.224C197.404,53.224 190.47,51.278 184.177,47.384C177.884,43.491 172.897,38.051 169.217,31.064C165.537,24.078 163.697,16.158 163.697,7.304ZM235.857,7.624C235.857,1.544 234.604,-3.736 232.097,-8.216C229.59,-12.696 226.31,-16.109 222.257,-18.456C218.204,-20.802 213.83,-21.976 209.137,-21.976C204.444,-21.976 200.07,-20.829 196.017,-18.536C191.964,-16.242 188.684,-12.882 186.177,-8.456C183.67,-4.029 182.417,1.224 182.417,7.304C182.417,13.384 183.67,18.718 186.177,23.304C188.684,27.891 191.99,31.384 196.097,33.784C200.204,36.184 204.55,37.384 209.137,37.384C213.83,37.384 218.204,36.211 222.257,33.864C226.31,31.518 229.59,28.078 232.097,23.544C234.604,19.011 235.857,13.704 235.857,7.624Z" style="fill-rule:nonzero;"/>
            <path d="M296.497,-23.576C299.164,-28.056 302.71,-31.549 307.137,-34.056C311.564,-36.562 316.817,-37.816 322.897,-37.816L322.897,-18.936L318.257,-18.936C311.11,-18.936 305.697,-17.122 302.017,-13.496C298.337,-9.869 296.497,-3.576 296.497,5.384L296.497,51.784L278.257,51.784L278.257,-36.376L296.497,-36.376L296.497,-23.576Z" style="fill-rule:nonzero;"/>
            <path d="M357.937,-23.576C360.604,-28.056 364.15,-31.549 368.577,-34.056C373.004,-36.562 378.257,-37.816 384.337,-37.816L384.337,-18.936L379.697,-18.936C372.55,-18.936 367.137,-17.122 363.457,-13.496C359.777,-9.869 357.937,-3.576 357.937,5.384L357.937,51.784L339.697,51.784L339.697,-36.376L357.937,-36.376L357.937,-23.576Z" style="fill-rule:nonzero;"/>
            <path d="M410.417,-48.056C407.11,-48.056 404.337,-49.176 402.097,-51.416C399.857,-53.656 398.737,-56.429 398.737,-59.736C398.737,-63.042 399.857,-65.816 402.097,-68.056C404.337,-70.296 407.11,-71.416 410.417,-71.416C413.617,-71.416 416.337,-70.296 418.577,-68.056C420.817,-65.816 421.937,-63.042 421.937,-59.736C421.937,-56.429 420.817,-53.656 418.577,-51.416C416.337,-49.176 413.617,-48.056 410.417,-48.056ZM419.377,-36.376L419.377,51.784L401.137,51.784L401.137,-36.376L419.377,-36.376Z" style="fill-rule:nonzero;"/>
            <path d="M524.177,5.544C524.177,8.851 523.964,11.838 523.537,14.504L456.177,14.504C456.71,21.544 459.324,27.198 464.017,31.464C468.71,35.731 474.47,37.864 481.297,37.864C491.11,37.864 498.044,33.758 502.097,25.544L521.777,25.544C519.11,33.651 514.284,40.291 507.297,45.464C500.31,50.638 491.644,53.224 481.297,53.224C472.87,53.224 465.324,51.331 458.657,47.544C451.99,43.758 446.764,38.424 442.977,31.544C439.19,24.664 437.297,16.691 437.297,7.624C437.297,-1.442 439.137,-9.416 442.817,-16.296C446.497,-23.176 451.67,-28.482 458.337,-32.216C465.004,-35.949 472.657,-37.816 481.297,-37.816C489.617,-37.816 497.03,-36.002 503.537,-32.376C510.044,-28.749 515.11,-23.656 518.737,-17.096C522.364,-10.536 524.177,-2.989 524.177,5.544ZM505.137,-0.216C505.03,-6.936 502.63,-12.322 497.937,-16.376C493.244,-20.429 487.43,-22.456 480.497,-22.456C474.204,-22.456 468.817,-20.456 464.337,-16.456C459.857,-12.456 457.19,-7.042 456.337,-0.216L505.137,-0.216Z" style="fill-rule:nonzero;"/>
            <path d="M560.337,-23.576C563.004,-28.056 566.55,-31.549 570.977,-34.056C575.404,-36.562 580.657,-37.816 586.737,-37.816L586.737,-18.936L582.097,-18.936C574.95,-18.936 569.537,-17.122 565.857,-13.496C562.177,-9.869 560.337,-3.576 560.337,5.384L560.337,51.784L542.097,51.784L542.097,-36.376L560.337,-36.376L560.337,-23.576Z" style="fill-rule:nonzero;"/>
            <path d="M684.337,5.544C684.337,8.851 684.124,11.838 683.697,14.504L616.337,14.504C616.87,21.544 619.484,27.198 624.177,31.464C628.87,35.731 634.63,37.864 641.457,37.864C651.27,37.864 658.204,33.758 662.257,25.544L681.937,25.544C679.27,33.651 674.444,40.291 667.457,45.464C660.47,50.638 651.804,53.224 641.457,53.224C633.03,53.224 625.484,51.331 618.817,47.544C612.15,43.758 606.924,38.424 603.137,31.544C599.35,24.664 597.457,16.691 597.457,7.624C597.457,-1.442 599.297,-9.416 602.977,-16.296C606.657,-23.176 611.83,-28.482 618.497,-32.216C625.164,-35.949 632.817,-37.816 641.457,-37.816C649.777,-37.816 657.19,-36.002 663.697,-32.376C670.204,-28.749 675.27,-23.656 678.897,-17.096C682.524,-10.536 684.337,-2.989 684.337,5.544ZM665.297,-0.216C665.19,-6.936 662.79,-12.322 658.097,-16.376C653.404,-20.429 647.59,-22.456 640.657,-22.456C634.364,-22.456 628.977,-20.456 624.497,-16.456C620.017,-12.456 617.35,-7.042 616.497,-0.216L665.297,-0.216Z" style="fill-rule:nonzero;"/>
            <path d="M739.217,-21.496L722.897,-21.496L722.897,51.784L704.497,51.784L704.497,-21.496L694.097,-21.496L694.097,-36.376L704.497,-36.376L704.497,-42.616C704.497,-52.749 707.19,-60.136 712.577,-64.776C717.964,-69.416 726.417,-71.736 737.937,-71.736L737.937,-56.536C732.39,-56.536 728.497,-55.496 726.257,-53.416C724.017,-51.336 722.897,-47.736 722.897,-42.616L722.897,-36.376L739.217,-36.376L739.217,-21.496Z" style="fill-rule:nonzero;"/>
            <path d="M773.617,-23.576C776.284,-28.056 779.83,-31.549 784.257,-34.056C788.684,-36.562 793.937,-37.816 800.017,-37.816L800.017,-18.936L795.377,-18.936C788.23,-18.936 782.817,-17.122 779.137,-13.496C775.457,-9.869 773.617,-3.576 773.617,5.384L773.617,51.784L755.377,51.784L755.377,-36.376L773.617,-36.376L773.617,-23.576Z" style="fill-rule:nonzero;"/>
            <path d="M897.617,5.544C897.617,8.851 897.404,11.838 896.977,14.504L829.617,14.504C830.15,21.544 832.764,27.198 837.457,31.464C842.15,35.731 847.91,37.864 854.737,37.864C864.55,37.864 871.484,33.758 875.537,25.544L895.217,25.544C892.55,33.651 887.724,40.291 880.737,45.464C873.75,50.638 865.084,53.224 854.737,53.224C846.31,53.224 838.764,51.331 832.097,47.544C825.43,43.758 820.204,38.424 816.417,31.544C812.63,24.664 810.737,16.691 810.737,7.624C810.737,-1.442 812.577,-9.416 816.257,-16.296C819.937,-23.176 825.11,-28.482 831.777,-32.216C838.444,-35.949 846.097,-37.816 854.737,-37.816C863.057,-37.816 870.47,-36.002 876.977,-32.376C883.484,-28.749 888.55,-23.656 892.177,-17.096C895.804,-10.536 897.617,-2.989 897.617,5.544ZM878.577,-0.216C878.47,-6.936 876.07,-12.322 871.377,-16.376C866.684,-20.429 860.87,-22.456 853.937,-22.456C847.644,-22.456 842.257,-20.456 837.777,-16.456C833.297,-12.456 830.63,-7.042 829.777,-0.216L878.577,-0.216Z" style="fill-rule:nonzero;"/>
            <path d="M924.817,-48.056C921.51,-48.056 918.737,-49.176 916.497,-51.416C914.257,-53.656 913.137,-56.429 913.137,-59.736C913.137,-63.042 914.257,-65.816 916.497,-68.056C918.737,-70.296 921.51,-71.416 924.817,-71.416C928.017,-71.416 930.737,-70.296 932.977,-68.056C935.217,-65.816 936.337,-63.042 936.337,-59.736C936.337,-56.429 935.217,-53.656 932.977,-51.416C930.737,-49.176 928.017,-48.056 924.817,-48.056ZM933.777,-36.376L933.777,51.784L915.537,51.784L915.537,-36.376L933.777,-36.376Z" style="fill-rule:nonzero;"/>
        </g>
        <g transform="matrix(0.99359,0,0,0.981661,-47.4519,44.6088)">
            <path d="M155.283,23.526L97.374,23.526L87.424,51.784L63.743,51.784L113.294,-86.72L139.562,-86.72L189.113,51.784L165.233,51.784L155.283,23.526ZM148.915,5.019L126.428,-59.258L103.742,5.019L148.915,5.019Z" style="fill-rule:nonzero;"/>
            <path d="M253.987,-2.941L304.533,51.784L273.887,51.784L233.291,4.621L233.291,51.784L210.605,51.784L210.605,-95.476L233.291,-95.476L233.291,-9.906L273.091,-57.865L304.533,-57.865L253.987,-2.941Z" style="fill-rule:nonzero;"/>
            <path d="M347.318,-39.358L347.318,21.337C347.318,25.45 348.28,28.402 350.203,30.193C352.127,31.984 355.411,32.879 360.054,32.879L373.984,32.879L373.984,51.784L356.074,51.784C345.859,51.784 338.031,49.396 332.592,44.62C327.153,39.844 324.433,32.083 324.433,21.337L324.433,-39.358L311.498,-39.358L311.498,-57.865L324.433,-57.865L324.433,-85.128L347.318,-85.128L347.318,-57.865L373.984,-57.865L373.984,-39.358L347.318,-39.358Z" style="fill-rule:nonzero;"/>
            <path d="M406.421,-69.336C402.308,-69.336 398.859,-70.729 396.073,-73.515C393.287,-76.301 391.894,-79.75 391.894,-83.863C391.894,-87.975 393.287,-91.425 396.073,-94.211C398.859,-96.997 402.308,-98.39 406.421,-98.39C410.401,-98.39 413.784,-96.997 416.57,-94.211C419.356,-91.425 420.749,-87.975 420.749,-83.863C420.749,-79.75 419.356,-76.301 416.57,-73.515C413.784,-70.729 410.401,-69.336 406.421,-69.336ZM417.565,-57.865L417.565,40.579L394.879,40.579L394.879,-57.865L417.565,-57.865Z" style="fill-rule:nonzero;"/>
            <path d="M494.976,53.575C484.628,53.575 475.275,51.22 466.917,46.511C458.559,41.801 451.992,35.168 447.216,26.611C442.44,18.054 440.052,8.137 440.052,-3.14C440.052,-14.284 442.506,-24.167 447.415,-32.791C452.324,-41.414 459.023,-48.047 467.514,-52.691C476.005,-57.334 485.49,-59.656 495.971,-59.656C506.452,-59.656 515.937,-57.334 524.428,-52.691C532.919,-48.047 539.618,-41.414 544.527,-32.791C549.436,-24.167 551.89,-14.284 551.89,-3.14C551.89,8.004 549.369,17.888 544.328,26.511C539.287,35.135 532.421,41.801 523.731,46.511C515.042,51.22 505.457,53.575 494.976,53.575ZM494.976,33.874C500.813,33.874 506.286,32.481 511.393,29.695C516.501,26.909 520.647,22.73 523.831,17.158C527.015,11.586 528.607,4.82 528.607,-3.14C528.607,-11.1 527.081,-17.833 524.03,-23.338C520.979,-28.844 516.932,-32.99 511.891,-35.776C506.85,-38.562 501.41,-39.955 495.573,-39.955C489.736,-39.955 484.329,-38.562 479.354,-35.776C474.379,-32.99 470.433,-28.844 467.514,-23.338C464.595,-17.833 463.136,-11.1 463.136,-3.14C463.136,8.668 466.154,17.788 472.19,24.223C478.227,30.657 485.822,33.874 494.976,33.874Z" style="fill-rule:nonzero;"/>
            <path d="M629.699,-59.656C638.322,-59.656 646.05,-57.865 652.882,-54.283C659.715,-50.701 665.055,-45.394 668.902,-38.363C672.749,-31.331 674.673,-22.841 674.673,-12.891L674.673,51.784L652.186,51.784L652.186,-9.508C652.186,-19.325 649.732,-26.854 644.823,-32.094C639.914,-37.335 633.215,-39.955 624.724,-39.955C616.233,-39.955 609.5,-37.335 604.525,-32.094C599.55,-26.854 597.063,-19.325 597.063,-9.508L597.063,51.784L574.377,51.784L574.377,-57.865L597.063,-57.865L597.063,-45.328C600.778,-49.838 605.52,-53.354 611.291,-55.875C617.062,-58.395 623.198,-59.656 629.699,-59.656Z" style="fill-rule:nonzero;"/>
        </g>
    </g>
</svg>
