<svg width="208" height="30" viewBox="0 0 208 30" fill="none" xmlns="http://www.w3.org/2000/svg" class="global-navigation__logo global-navigation__logo--desktop"><path fill-rule="evenodd" clip-rule="evenodd" d="M21.5542 6.19939L23.3865 8.02863L23.3835 8.03156L11.6382 19.7716C10.3536 21.0568 8.63974 21.7655 6.81638 21.7655C4.99302 21.7655 3.27918 21.0568 1.99454 19.7716C-0.663544 17.113 -0.663544 12.7899 1.99454 10.1314L12.1296 0L13.9618 1.82923L3.82678 11.9606C2.17806 13.6075 2.17806 16.2896 3.82678 17.9394C5.4755 19.5893 8.16022 19.5893 9.80894 17.9394L21.5542 6.19939ZM19.4349 4.12313L7.74291 15.8808L5.92251 14.0486L17.6145 2.29096C18.8932 1.00285 20.5982 0.294098 22.4127 0.294098C24.2272 0.294098 25.9321 1.00285 27.2108 2.29096L28.1225 3.20558L26.2992 5.03775L25.3875 4.12313C24.5942 3.32321 23.5404 2.88502 22.4127 2.88502C21.2849 2.88502 20.2282 3.32321 19.4349 4.12313ZM35.0074 10.2284C33.7228 8.94325 32.0089 8.2345 30.1856 8.2345C28.3622 8.2345 26.6484 8.94325 25.3637 10.2284L13.6184 21.9684L15.4477 23.7977L27.193 12.0577C28.8417 10.4078 31.5265 10.4108 33.1752 12.0577C33.9714 12.8546 34.4125 13.9163 34.4125 15.0485C34.4125 16.1808 33.9744 17.2424 33.1752 18.0394L23.0401 28.1708L24.8724 30L35.0074 19.8687C37.6655 17.2101 37.6655 12.887 35.0074 10.2284ZM29.2606 14.1178L29.262 14.1163H29.2591L29.2606 14.1178ZM29.2606 14.1178L17.57 25.8739C15.9272 27.5238 13.2573 27.5267 11.6145 25.8739L10.7028 24.9593L8.87947 26.7915L9.79115 27.7061C11.0699 28.9942 12.7748 29.703 14.5893 29.703C16.4038 29.703 18.1088 28.9942 19.3875 27.7061L31.0795 15.9484L29.2606 14.1178Z" fill="white"></path><path fill-rule="evenodd" clip-rule="evenodd" d="M47.9687 18.065C48.1187 18.8149 48.4687 19.4031 49.0216 19.8266C49.5715 20.2501 50.2979 20.4618 51.1978 20.4618C52.0977 20.4618 52.7683 20.253 53.2506 19.8354C53.7329 19.4178 53.977 18.8708 53.977 18.1885C53.977 17.8562 53.9123 17.5739 53.7829 17.3445C53.6535 17.1151 53.4741 16.921 53.2417 16.7622C53.0094 16.6034 52.7241 16.4681 52.383 16.3563C52.0419 16.2446 51.6595 16.1269 51.239 16.0034L50.1362 15.6917C49.4833 15.5123 48.8951 15.2917 48.3775 15.0359C47.8599 14.78 47.4158 14.4771 47.0482 14.1301C46.6806 13.7831 46.4012 13.3831 46.2101 12.9331C46.0189 12.4832 45.9248 11.9568 45.9248 11.3598C45.9248 10.7628 46.0483 10.1569 46.2924 9.63053C46.5365 9.10411 46.8835 8.65121 47.3335 8.27478C47.7835 7.89834 48.3275 7.60425 48.9686 7.38957C49.6097 7.17488 50.3303 7.06607 51.1331 7.06607C52.6447 7.06607 53.8446 7.43074 54.7298 8.16008C55.615 8.88942 56.1326 9.8658 56.2826 11.0892L53.8299 11.298C53.6799 10.6716 53.38 10.1864 52.93 9.83933C52.4801 9.4923 51.8536 9.31879 51.0508 9.31879C50.3009 9.31879 49.7156 9.49524 49.2951 9.85109C48.8716 10.204 48.6598 10.6598 48.6598 11.2157C48.6598 11.5362 48.7216 11.8009 48.8451 12.0185C48.9686 12.2332 49.1451 12.4214 49.3774 12.5802C49.6097 12.739 49.8921 12.8831 50.2244 13.0067C50.5596 13.1331 50.9361 13.2655 51.3596 13.4037L52.4006 13.736C53.0535 13.9448 53.6446 14.1624 54.1681 14.3918C54.6916 14.6212 55.1386 14.8947 55.5062 15.2153C55.8738 15.5358 56.1562 15.9181 56.3532 16.3622C56.5502 16.8063 56.6502 17.3562 56.6502 18.0091C56.6502 18.7032 56.5149 19.3384 56.2414 19.9148C55.9679 20.4912 55.5886 20.9824 55.0974 21.3853C54.6063 21.7882 54.024 22.0999 53.3506 22.3234C52.6771 22.5469 51.9301 22.6557 51.1125 22.6557C49.6009 22.6557 48.3393 22.294 47.3335 21.5735C46.3248 20.85 45.7072 19.7619 45.4749 18.3003L47.9687 18.0709V18.065ZM67.1947 9.5982C66.4601 9.59839 65.8048 9.73661 65.2259 10.0129C64.6465 10.2893 64.1554 10.6716 63.7554 11.1627C63.3525 11.6539 63.0467 12.2332 62.835 12.9008C62.6232 13.5713 62.5203 14.2977 62.5203 15.0859C62.5203 15.8741 62.6291 16.6034 62.8467 17.2798C63.0643 17.9562 63.3731 18.5414 63.776 19.0384C64.176 19.5355 64.6671 19.9237 65.2465 20.2089C65.8258 20.4912 66.4817 20.6324 67.2169 20.6324C67.9521 20.6324 68.6079 20.4971 69.1873 20.2295C69.7666 19.9589 70.2548 19.5855 70.6577 19.1002C71.0606 18.6179 71.3694 18.0327 71.587 17.3504C71.8047 16.6681 71.9135 15.9182 71.9135 15.1035C71.9135 14.2889 71.8047 13.5655 71.587 12.889C71.3694 12.2126 71.0606 11.6333 70.6577 11.151C70.2548 10.6687 69.7637 10.2893 69.1755 10.0129C68.5906 9.73659 67.9294 9.59837 67.1947 9.5982ZM67.2169 7.35724C68.3197 7.35724 69.3284 7.5484 70.2401 7.92777C71.1518 8.30715 71.9282 8.83945 72.5693 9.52467C73.2075 10.2099 73.7045 11.0275 74.0603 11.9833C74.4132 12.9361 74.5897 13.9801 74.5897 15.1153C74.5897 16.2505 74.4015 17.3533 74.028 18.3003C73.6515 19.2473 73.1192 20.0678 72.4252 20.7589L74.3868 23.1028V23.8292H71.8958L70.5283 22.1293C70.0519 22.3499 69.5402 22.5234 68.9961 22.6469C68.4521 22.7704 67.8668 22.8351 67.2404 22.8351C66.1111 22.8351 65.0936 22.644 64.1878 22.2646C63.282 21.8852 62.5115 21.3529 61.8792 20.6677C61.2469 19.9825 60.7557 19.1678 60.4087 18.2209C60.0617 17.2739 59.8882 16.2417 59.8882 15.1212C59.8882 14.0007 60.0617 12.9479 60.4087 11.998C60.7557 11.051 61.2498 10.2364 61.888 9.55114C62.5262 8.86591 63.2996 8.33067 64.2054 7.94247C65.1112 7.55722 66.114 7.36312 67.2169 7.36312V7.35724ZM87.0296 19.5149C86.4476 20.1733 85.6335 20.5027 84.5901 20.503C83.5468 20.5027 82.7327 20.1733 82.1507 19.5149C81.5654 18.8561 81.2743 17.8444 81.2743 16.4828V7.35724H78.7098V16.5446C78.7098 17.6298 78.8451 18.5561 79.1157 19.3267C79.3892 20.0972 79.7744 20.7295 80.2773 21.2235C80.7773 21.7147 81.3919 22.0764 82.1183 22.3058C82.8447 22.5352 83.6829 22.6499 84.5916 22.6499C85.5004 22.6499 86.3209 22.5352 87.0531 22.3058C87.7854 22.0764 88.403 21.7176 88.9059 21.2235C89.4058 20.7295 89.794 20.0972 90.0646 19.3267C90.3352 18.5561 90.4704 17.6268 90.4704 16.5446V7.35724H87.906V16.4828C87.906 17.8444 87.6119 18.8561 87.0296 19.5149ZM102.725 15.9446H97.8178L98.6667 13.6125C98.8461 13.1184 98.999 12.689 99.1225 12.3214C99.246 11.9538 99.3607 11.6274 99.4636 11.3392C99.5085 11.2135 99.5518 11.0933 99.5931 10.9786L99.5941 10.9756C99.6471 10.8284 99.6969 10.69 99.743 10.5598C99.8283 10.3275 99.9107 10.0952 99.993 9.86285H100.634C100.784 10.2981 100.958 10.8039 101.152 11.3774C101.343 11.9509 101.599 12.6949 101.916 13.6095L102.725 15.9446ZM93.1172 21.6382L98.3961 7.65131H102.31L107.528 21.6382V22.3557H104.96L103.469 18.1562H97.0286L95.5376 22.3557H93.1143V21.6382H93.1172ZM115.542 14.3683H113.306V14.3654V9.85991H115.542C116.512 9.85991 117.285 10.0246 117.859 10.3481C118.432 10.6745 118.721 11.2627 118.721 12.0744C118.721 12.8861 118.435 13.4713 117.868 13.8301C117.3 14.1889 116.527 14.3683 115.542 14.3683ZM119.456 22.3557H121.938V21.6382L117.694 16.3328C118.159 16.224 118.606 16.0593 119.038 15.8417C119.468 15.6241 119.847 15.3388 120.176 14.9918C120.503 14.6418 120.767 14.2183 120.965 13.7213C121.162 13.2243 121.262 12.642 121.262 11.9715C121.262 10.4275 120.679 9.27468 119.518 8.51004C118.971 8.14243 118.359 7.90716 117.682 7.80423C117.006 7.7013 116.291 7.65131 115.539 7.65131H110.76V22.3557H113.304V16.5798H114.965L119.456 22.3557ZM125.173 7.65131H134.734V9.90403H127.702V13.7536H134.24V15.9652H127.702V20.103H134.878V22.3557H125.173V7.65131ZM140.608 18.071L140.607 18.065L140.61 18.0709L140.608 18.071ZM140.608 18.071C140.759 18.8181 141.108 19.4042 141.659 19.8266C142.212 20.2501 142.936 20.4618 143.836 20.4618C144.736 20.4618 145.406 20.253 145.888 19.8354C146.371 19.4178 146.615 18.8708 146.615 18.1885C146.615 17.8562 146.55 17.5739 146.421 17.3445C146.291 17.1151 146.112 16.921 145.88 16.7622C145.647 16.6034 145.362 16.4681 145.021 16.3563C144.68 16.2446 144.297 16.1269 143.877 16.0034L142.774 15.6917C142.121 15.5123 141.533 15.2917 141.015 15.0359C140.498 14.78 140.054 14.4771 139.689 14.1301C139.321 13.7831 139.042 13.3831 138.851 12.9331C138.66 12.4832 138.566 11.9568 138.566 11.3598C138.566 10.7628 138.689 10.1569 138.933 9.63053C139.177 9.10411 139.524 8.65121 139.974 8.27478C140.424 7.90128 140.968 7.60425 141.609 7.38957C142.251 7.17488 142.971 7.06607 143.774 7.06607C145.286 7.06607 146.485 7.43074 147.371 8.16008C148.256 8.88942 148.773 9.8658 148.923 11.0892L146.471 11.298C146.321 10.6716 146.021 10.1864 145.571 9.83933C145.121 9.4923 144.494 9.31879 143.692 9.31879C142.942 9.31879 142.356 9.49524 141.936 9.85109C141.512 10.204 141.304 10.6598 141.304 11.2157C141.304 11.5362 141.365 11.8009 141.489 12.0185C141.612 12.2332 141.789 12.4214 142.021 12.5802C142.254 12.739 142.536 12.8831 142.868 13.0067C143.203 13.1331 143.58 13.2655 144 13.4037L145.042 13.736C145.694 13.9448 146.286 14.1624 146.809 14.3918C147.332 14.6212 147.779 14.8947 148.147 15.2153C148.515 15.5358 148.797 15.9181 148.994 16.3622C149.191 16.8063 149.291 17.3562 149.291 18.0091C149.291 18.7032 149.156 19.3384 148.882 19.9148C148.609 20.4912 148.229 20.9824 147.738 21.3853C147.247 21.7882 146.665 22.0999 145.991 22.3234C145.318 22.5469 144.571 22.6557 143.753 22.6557C142.242 22.6557 140.98 22.294 139.974 21.5735C138.966 20.85 138.348 19.7619 138.116 18.3003L140.608 18.071ZM155.717 14.4918H158.22C158.678 14.4918 159.099 14.4536 159.481 14.3801C159.864 14.3065 160.196 14.1801 160.481 14.0036C160.766 13.8272 160.99 13.5919 161.149 13.2919C161.308 12.9949 161.387 12.6302 161.387 12.195C161.387 11.7597 161.308 11.3745 161.149 11.0686C160.99 10.7628 160.769 10.5246 160.493 10.3481C160.214 10.1717 159.884 10.0481 159.502 9.97168C159.12 9.89816 158.705 9.85993 158.261 9.85993H155.717V14.4889V14.4918ZM153.111 7.65132H158.573C159.587 7.65132 160.437 7.76601 161.125 7.99834C161.813 8.23067 162.369 8.55123 162.793 8.96001C163.216 9.3688 163.522 9.8511 163.71 10.404C163.898 10.9569 163.993 11.5539 163.993 12.195C163.993 12.9596 163.863 13.6243 163.607 14.1919C163.352 14.7594 162.978 15.227 162.493 15.5947C162.005 15.9623 161.416 16.2387 160.719 16.424C160.025 16.6093 159.24 16.7004 158.364 16.7004H155.717V22.3528H153.111V7.65132ZM174.189 15.9446H169.28L169.277 15.9476L170.127 13.6125C170.307 13.1184 170.46 12.689 170.583 12.3214C170.707 11.9538 170.821 11.6274 170.924 11.3392C170.97 11.2122 171.013 11.0909 171.055 10.9751L171.057 10.9707C171.109 10.8253 171.158 10.6885 171.204 10.5598C171.289 10.3276 171.371 10.0953 171.454 9.86309L171.454 9.86301L171.454 9.86293L171.454 9.86285H172.095C172.233 10.2575 172.387 10.7102 172.559 11.2186L172.612 11.3774C172.806 11.9509 173.062 12.6949 173.38 13.6095L174.189 15.9446ZM169.86 7.65131L164.581 21.6382H164.578V22.3557H167.001L168.492 18.1562H174.933L176.424 22.3557H178.991V21.6382L173.774 7.65131H169.86ZM194.578 18.4679C194.346 19.0414 194.037 19.5825 193.66 20.0883C193.281 20.5942 192.825 21.0382 192.287 21.4176C191.752 21.797 191.128 22.097 190.42 22.3175C189.711 22.5381 188.923 22.6499 188.058 22.6499C186.958 22.6499 185.958 22.4587 185.055 22.0764C184.155 21.6941 183.385 21.1647 182.75 20.4883C182.112 19.8119 181.62 19.0061 181.273 18.068C180.926 17.1328 180.753 16.1181 180.753 15.0241C180.753 13.9301 180.926 12.9155 181.273 11.9803C181.62 11.0451 182.114 10.2334 182.758 9.55114C183.403 8.86885 184.176 8.33067 185.076 7.94247C185.976 7.55134 186.985 7.35724 188.099 7.35724C189.723 7.35724 191.081 7.73367 192.172 8.4836C193.266 9.23353 194.04 10.2334 194.493 11.4774L191.872 11.9891C191.514 11.2392 191.017 10.6452 190.375 10.2158C189.734 9.78641 188.961 9.56879 188.055 9.56879C187.326 9.56879 186.676 9.70701 186.105 9.98639C185.535 10.2658 185.052 10.651 184.661 11.1392C184.27 11.6303 183.97 12.2068 183.764 12.8743C183.558 13.5419 183.455 14.2566 183.455 15.0183C183.455 15.7799 183.561 16.5122 183.776 17.1739C183.988 17.8356 184.3 18.4062 184.705 18.8885C185.111 19.3708 185.602 19.7501 186.182 20.0207C186.758 20.2942 187.42 20.4295 188.161 20.4295C189.123 20.4295 189.917 20.1972 190.543 19.7325C191.169 19.2678 191.655 18.7002 191.999 18.0297L194.578 18.4591V18.4679ZM207.559 7.47485H197.942V22.3205H207.703V20.0472H200.486V15.8681H207.062V13.636H200.486V9.74816H207.559V7.47485Z" fill="white"></path></svg>
