<svg xmlns="http://www.w3.org/2000/svg" viewBox="0 0 448 512"><path d="M416 160H32c-17.673 0-32 14.327-32 32 0 17.673 14.327 32 32 32h384c17.673 0 32-14.327 32-32 0-17.673-14.327-32-32-32Zm0 256H32c-17.673 0-32 14.327-32 32 0 17.673 14.327 32 32 32h384c17.673 0 32-14.327 32-32 0-17.673-14.327-32-32-32ZM128 96h192c17.673 0 32-14.327 32-32 0-17.673-14.327-32-32-32H128c-17.673 0-32 14.327-32 32 0 17.673 14.327 32 32 32Zm192 256c17.673 0 32-14.327 32-32 0-17.673-14.327-32-32-32H128c-17.673 0-32 14.327-32 32 0 17.673 14.327 32 32 32h192Z"/></svg>