<?xml version="1.0" encoding="UTF-8" standalone="no"?><!DOCTYPE svg PUBLIC "-//W3C//DTD SVG 1.1//EN" "http://www.w3.org/Graphics/SVG/1.1/DTD/svg11.dtd"><svg width="100%" height="100%" viewBox="0 0 1707 585" version="1.1" xmlns="http://www.w3.org/2000/svg" xmlns:xlink="http://www.w3.org/1999/xlink" xml:space="preserve" xmlns:serif="http://www.serif.com/" style="fill-rule:evenodd;clip-rule:evenodd;stroke-linejoin:round;stroke-miterlimit:2;"><path d="M209.879,579.66l39.571,-188.189l-32.669,0l6.442,-29.907l32.668,-0l5.522,-25.307c4.601,-21.779 15.337,-39.57 32.208,-53.374c16.871,-13.803 38.65,-20.705 65.337,-20.705c20.552,0 36.503,2.301 47.852,6.902l-5.981,28.527c-4.295,-1.533 -9.969,-2.76 -17.025,-3.681c-7.055,-0.92 -14.263,-1.38 -21.625,-1.38c-19.018,-0 -33.435,3.604 -43.251,10.813c-9.816,7.208 -16.411,18.174 -19.785,32.898l-5.522,25.307l120.091,-0l-46.012,218.096l-37.73,0l39.571,-188.189l-82.362,0l-39.57,188.189l-37.73,0Z" style="fill:#fff;fill-rule:nonzero;"/><path d="M402.209,579.66l106.288,-110.889l-57.515,-107.207l40.95,-0l42.331,81.441l76.84,-81.441l40.491,-0l-101.687,107.207l58.895,110.889l-40.95,0l-44.632,-85.122l-80.06,85.122l-40.951,0Z" style="fill:#fff;fill-rule:nonzero;"/><path d="M705.888,584.261c-12.884,0 -25.69,-0.997 -38.42,-2.991c-12.73,-1.993 -23.236,-4.371 -31.519,-7.131l6.902,-33.129c20.246,7.362 41.871,11.043 64.877,11.043c19.325,-0 33.589,-2.071 42.791,-6.212c9.202,-4.141 15.031,-11.886 17.485,-23.236c1.84,-8.282 0.92,-14.57 -2.761,-18.865c-3.681,-4.294 -9.663,-8.128 -17.945,-11.502c-8.282,-3.375 -19.018,-7.362 -32.208,-11.964c-11.656,-4.294 -21.856,-8.972 -30.598,-14.033c-8.742,-5.062 -15.031,-11.426 -18.865,-19.095c-3.834,-7.669 -4.371,-17.791 -1.61,-30.368c4.294,-19.325 13.573,-34.125 27.837,-44.401c14.264,-10.276 37.653,-15.414 70.168,-15.414c11.656,-0 22.699,0.843 33.129,2.53c10.429,1.687 19.325,3.758 26.686,6.212l-6.901,33.128c-17.792,-6.441 -35.736,-9.662 -53.834,-9.662c-18.098,-0 -31.902,1.917 -41.411,5.751c-9.509,3.835 -15.491,10.967 -17.945,21.396c-1.533,7.055 -0.843,12.653 2.071,16.794c2.914,4.141 8.129,7.669 15.644,10.583c7.515,2.914 17.255,6.518 29.218,10.813c23.619,7.668 40.03,16.181 49.232,25.536c9.203,9.356 11.81,23.39 7.822,42.101c-4.601,21.472 -14.417,37.193 -29.447,47.162c-15.031,9.97 -38.497,14.954 -70.398,14.954Z" style="fill:#fff;fill-rule:nonzero;"/><path d="M920.303,584.261c-20.245,0 -34.816,-5.751 -43.711,-17.254c-8.896,-11.503 -11.197,-27.531 -6.902,-48.083l26.687,-127.453l-33.129,0l6.442,-29.907l33.128,-0l11.503,-53.834l40.031,-11.503l-13.804,65.337l60.276,-0l-8.743,29.907l-57.975,0l-26.686,125.613c-2.761,13.19 -2.071,22.622 2.07,28.297c4.141,5.675 12.96,8.512 26.457,8.512c4.294,0 9.202,-0.383 14.724,-1.15c5.521,-0.767 11.043,-1.917 16.564,-3.451l-6.442,28.528c-12.269,4.294 -25.766,6.441 -40.49,6.441Z" style="fill:#fff;fill-rule:nonzero;"/><path d="M1110.79,584.261c-37.73,0 -64.57,-9.355 -80.521,-28.067c-15.95,-18.711 -19.785,-47.546 -11.503,-86.502c7.669,-34.969 21.703,-62.5 42.101,-82.592c20.399,-20.091 49.156,-30.137 86.272,-30.137c21.473,-0 38.42,3.911 50.844,11.733c12.423,7.822 20.628,18.558 24.616,32.208c3.988,13.65 4.141,29.064 0.46,46.242l-8.742,40.95l-161.502,0c-2.147,16.565 -1.61,29.601 1.611,39.111c3.22,9.509 10.429,16.334 21.625,20.475c11.196,4.141 27.377,6.211 48.543,6.211c22.392,0 43.864,-3.834 64.416,-11.503l-6.441,29.448c-10.43,3.988 -21.779,7.055 -34.049,9.202c-12.27,2.148 -24.847,3.221 -37.73,3.221Zm-52.453,-123.312l127.913,0l4.141,-17.944c3.681,-17.791 2.3,-31.518 -4.141,-41.181c-6.442,-9.662 -21.319,-14.494 -44.632,-14.494c-24.846,0 -43.635,6.135 -56.364,18.405c-12.73,12.27 -21.703,30.675 -26.917,55.214Z" style="fill:#fff;fill-rule:nonzero;"/><path d="M1250.67,579.66l46.012,-218.096l34.049,-0l-3.221,27.607c12.577,-7.055 26.687,-13.497 42.331,-19.325c15.644,-5.828 30.828,-10.123 45.552,-12.883l-5.982,29.447c-9.202,1.841 -19.171,4.371 -29.908,7.592c-10.736,3.221 -21.088,6.825 -31.058,10.813c-9.969,3.988 -18.481,8.129 -25.536,12.423l-34.509,162.422l-37.73,0Z" style="fill:#fff;fill-rule:nonzero;"/><path d="M1410.33,579.66l46.012,-218.096l34.049,-0l-2.761,24.846c12.27,-8.589 25.92,-15.644 40.951,-21.165c15.031,-5.522 31.595,-8.282 49.693,-8.282c52.76,-0 73.465,26.686 62.116,80.06l-29.908,142.637l-37.73,0l29.908,-141.256c3.988,-19.019 3.144,-32.285 -2.531,-39.801c-5.674,-7.515 -19.401,-11.273 -41.18,-11.273c-12.577,0 -25.844,2.454 -39.8,7.362c-13.957,4.908 -25.997,11.657 -36.12,20.246l-34.969,164.722l-37.73,0Z" style="fill:#fff;fill-rule:nonzero;"/><path d="M96.031,162.18l-38.022,-131.342l81.11,64.692l115.74,-95.53l-34.381,132.684l93.541,65.062l-110.3,34.288l-11.895,156.68l-85.17,-137.221l-106.654,46.646l96.031,-135.959Z" style="fill:#fff;"/><g id="Ebene1"><path id="_---" serif:id="(®)" d="M1679.12,381.071c-3.833,0 -7.416,-0.722 -10.75,-2.166c-3.333,-1.445 -6.264,-3.431 -8.791,-5.959c-2.528,-2.527 -4.514,-5.458 -5.959,-8.791c-1.444,-3.334 -2.166,-6.917 -2.166,-10.75c-0,-3.834 0.722,-7.417 2.166,-10.75c1.445,-3.334 3.431,-6.264 5.959,-8.792c2.527,-2.528 5.458,-4.514 8.791,-5.958c3.334,-1.445 6.917,-2.167 10.75,-2.167c3.834,0 7.417,0.722 10.75,2.167c3.334,1.444 6.264,3.43 8.792,5.958c2.528,2.528 4.514,5.458 5.958,8.792c1.445,3.333 2.167,6.916 2.167,10.75c0,3.833 -0.722,7.416 -2.167,10.75c-1.444,3.333 -3.43,6.264 -5.958,8.791c-2.528,2.528 -5.458,4.514 -8.792,5.959c-3.333,1.444 -6.916,2.166 -10.75,2.166Zm0,-3.583c4.5,0 8.556,-1.056 12.167,-3.167c3.611,-2.111 6.486,-4.986 8.625,-8.625c2.139,-3.639 3.208,-7.736 3.208,-12.291c0,-4.556 -1.069,-8.639 -3.208,-12.25c-2.139,-3.611 -5.014,-6.473 -8.625,-8.584c-3.611,-2.111 -7.667,-3.166 -12.167,-3.166c-4.5,-0 -8.569,1.055 -12.208,3.166c-3.639,2.111 -6.514,4.973 -8.625,8.584c-2.111,3.611 -3.167,7.694 -3.167,12.25c0,4.555 1.056,8.652 3.167,12.291c2.111,3.639 4.986,6.514 8.625,8.625c3.639,2.111 7.708,3.167 12.208,3.167Zm-12.916,-5.583l-0,-37.084l15.666,0c3.889,0 6.806,0.973 8.75,2.917c1.945,1.944 2.917,4.611 2.917,8c0,2.889 -0.736,5.236 -2.208,7.042c-1.473,1.805 -3.598,2.958 -6.375,3.458c0.889,0.444 1.555,0.986 2,1.625c0.444,0.639 0.889,1.458 1.333,2.458l4.917,11.584l-3.667,-0l-5,-11.417c-0.556,-1.389 -1.25,-2.292 -2.083,-2.708c-0.834,-0.417 -2.445,-0.625 -4.834,-0.625l-7.666,-0l-0,14.75l-3.75,-0Zm3.75,-18l10.416,-0c3,-0 5.334,-0.556 7,-1.667c1.667,-1.111 2.5,-3.278 2.5,-6.5c0,-2.944 -0.666,-4.958 -2,-6.042c-1.333,-1.083 -3.416,-1.625 -6.25,-1.625l-11.666,0l-0,15.834Z" style="fill:#fff;fill-rule:nonzero;"/></g></svg>