<?xml version="1.0" encoding="utf-8"?>
<!-- Generator: Adobe Illustrator 27.8.1, SVG Export Plug-In . SVG Version: 6.00 Build 0)  -->
<svg version="1.1" id="Layer_1" xmlns="http://www.w3.org/2000/svg" xmlns:xlink="http://www.w3.org/1999/xlink" x="0px" y="0px"
	 viewBox="0 0 512 512" style="enable-background:new 0 0 512 512;" xml:space="preserve">
<path d="M233.4,502.6c12.5,12.5,32.8,12.5,45.3,0l96-96c12.5-12.5,12.5-32.8,0-45.3s-32.8-12.5-45.3,0L288,402.7V192
	c0-17.7-14.3-32-32-32s-32,14.3-32,32v210.7l-41.4-41.4c-12.5-12.5-32.8-12.5-45.3,0s-12.5,32.8,0,45.3L233.4,502.6L233.4,502.6z
	 M448,400c0,8.8-7.2,16-16,16h-8c-17.7,0-32,14.3-32,32c0,17.7,14.3,32,32,32h8c44.2,0,80-35.8,80-80V80c0-44.2-35.8-80-80-80H80
	C35.8,0,0,35.8,0,80v320c0,44.2,35.8,80,80,80h8c17.7,0,32-14.3,32-32c0-17.7-14.3-32-32-32h-8c-8.8,0-16-7.2-16-16V80
	c0-8.8,7.2-16,16-16h352c8.8,0,16,7.2,16,16V400z"/>
</svg>
