<?xml version="1.0" encoding="utf-8"?>
<!-- Generator: Adobe Illustrator 27.8.1, SVG Export Plug-In . SVG Version: 6.00 Build 0)  -->
<svg version="1.1" id="Layer_1" xmlns="http://www.w3.org/2000/svg" xmlns:xlink="http://www.w3.org/1999/xlink" x="0px" y="0px"
	 viewBox="0 0 512 512" style="enable-background:new 0 0 512 512;" xml:space="preserve">
<path d="M288,159c0-0.3,0-0.7,0-1c0-0.4-0.1-0.8-0.1-1.2c0-0.1,0-0.2,0-0.3c0-0.5-0.1-0.9-0.2-1.4c-0.1-0.5-0.2-1-0.3-1.4
	c-2.6-12.4-12.5-22.3-24.9-24.9c-0.5-0.1-1-0.2-1.4-0.3c-0.5-0.1-0.9-0.1-1.4-0.2c-0.1,0-0.2,0-0.3,0c-0.4,0-0.8-0.1-1.2-0.1
	c-0.4,0-0.7,0-1,0c-0.3,0-0.7,0-1,0c0,0,0,0,0,0c-0.3,0-0.7,0-1,0c-0.3,0-0.7,0-1,0c-0.4,0-0.8,0.1-1.2,0.1c-0.1,0-0.2,0-0.3,0
	c-0.5,0-0.9,0.1-1.4,0.2c-0.5,0.1-1,0.2-1.4,0.3c-12.5,2.6-22.3,12.4-24.9,24.9c-0.1,0.5-0.2,1-0.3,1.4c-0.1,0.5-0.1,0.9-0.2,1.4
	c0,0.1,0,0.2,0,0.3c0,0.4-0.1,0.8-0.1,1.2c0,0.4,0,0.7,0,1c0,0.3,0,0.7,0,1c0,0,0,0,0,0c0,0.3,0,0.7,0,1c0,0.3,0,0.7,0,1
	c0,0.4,0.1,0.8,0.1,1.2c0,0.1,0,0.2,0,0.3c0,0.5,0.1,0.9,0.2,1.4c0.1,0.5,0.2,1,0.3,1.4c2.6,12.4,12.5,22.3,24.9,24.9
	c0.5,0.1,1,0.2,1.4,0.3c0.5,0.1,0.9,0.1,1.4,0.2c0.1,0,0.2,0,0.3,0c0.4,0,0.8,0.1,1.2,0.1c0.4,0,0.7,0,1,0c0.3,0,0.7,0,1,0
	c0,0,0,0,0,0c0.3,0,0.7,0,1,0c0.3,0,0.7,0,1,0c0.4,0,0.8-0.1,1.2-0.1c0.1,0,0.2,0,0.3,0c0.5,0,0.9-0.1,1.4-0.2
	c0.5-0.1,1-0.2,1.4-0.3c12.5-2.6,22.3-12.4,24.9-24.9c0.1-0.5,0.2-1,0.3-1.4c0.1-0.5,0.1-0.9,0.2-1.4c0-0.1,0-0.2,0-0.3
	c0-0.4,0.1-0.8,0.1-1.2c0-0.4,0-0.7,0-1c0-0.3,0-0.7,0-1c0,0,0,0,0,0C288,159.7,288,159.3,288,159z M308.5,339.5L263.9,384h31.5
	c12.7,0,24.1-10.4,24.5-23.1C320.3,351.8,315.6,343.8,308.5,339.5z M288,159c0-0.3,0-0.7,0-1c0-0.4-0.1-0.8-0.1-1.2
	c0-0.1,0-0.2,0-0.3c0-0.5-0.1-0.9-0.2-1.4c-0.1-0.5-0.2-1-0.3-1.4c-2.6-12.5-12.4-22.3-24.9-24.9c-0.5-0.1-1-0.2-1.4-0.3
	c-0.5-0.1-0.9-0.1-1.4-0.2c-0.1,0-0.2,0-0.3,0c-0.4,0-0.8-0.1-1.2-0.1c-0.4,0-0.7,0-1,0c-0.3,0-0.7,0-1,0c0,0,0,0,0,0
	c-0.3,0-0.7,0-1,0c-0.3,0-0.7,0-1,0c-0.4,0-0.8,0.1-1.2,0.1c-0.1,0-0.2,0-0.3,0c-0.5,0-0.9,0.1-1.4,0.2c-0.5,0.1-1,0.2-1.4,0.3
	c-12.4,2.6-22.3,12.5-24.9,24.9c-0.1,0.5-0.2,1-0.3,1.4c-0.1,0.5-0.1,0.9-0.2,1.4c0,0.1,0,0.2,0,0.3c0,0.4-0.1,0.8-0.1,1.2
	c0,0.4,0,0.7,0,1c0,0.3,0,0.7,0,1c0,0,0,0,0,0c0,0.3,0,0.7,0,1c0,0.3,0,0.7,0,1c0,0.4,0.1,0.8,0.1,1.2c0,0.1,0,0.2,0,0.3
	c0,0.5,0.1,0.9,0.2,1.4c0.1,0.5,0.2,1,0.3,1.4c2.6,12.5,12.4,22.3,24.9,24.9c0.5,0.1,1,0.2,1.4,0.3c0.5,0.1,0.9,0.1,1.4,0.2
	c0.1,0,0.2,0,0.3,0c0.4,0,0.8,0.1,1.2,0.1c0.4,0,0.7,0,1,0c0.3,0,0.7,0,1,0c0,0,0,0,0,0c0.3,0,0.7,0,1,0c0.3,0,0.7,0,1,0
	c0.4,0,0.8-0.1,1.2-0.1c0.1,0,0.2,0,0.3,0c0.5,0,0.9-0.1,1.4-0.2c0.5-0.1,1-0.2,1.4-0.3c12.4-2.6,22.3-12.5,24.9-24.9
	c0.1-0.5,0.2-1,0.3-1.4c0.1-0.5,0.1-0.9,0.2-1.4c0-0.1,0-0.2,0-0.3c0-0.4,0.1-0.8,0.1-1.2c0-0.4,0-0.7,0-1c0-0.3,0-0.7,0-1
	c0,0,0,0,0,0C288,159.7,288,159.3,288,159z M308.5,339.5L263.9,384h31.5c12.7,0,24.1-10.4,24.5-23.1
	C320.3,351.8,315.6,343.8,308.5,339.5z M491.8,156.2l-37.3,37.3c9,28.5,12,59.8,7.5,92.2C449.3,377,377,449.3,285.7,461.9
	c-32.4,4.5-63.6,1.5-92.2-7.5l-37.3,37.3c45.9,19.5,98.8,25.9,153.8,14.7c89.4-18.3,178.3-107.2,196.6-196.6
	C517.7,254.9,511.3,202.1,491.8,156.2z M308.5,339.5L263.9,384h31.5c12.7,0,24.1-10.4,24.5-23.1
	C320.3,351.8,315.6,343.8,308.5,339.5z M288,159c0-0.3,0-0.7,0-1c0-0.4-0.1-0.8-0.1-1.2c0-0.1,0-0.2,0-0.3c0-0.5-0.1-0.9-0.2-1.4
	c-0.1-0.5-0.2-1-0.3-1.4c-2.6-12.4-12.5-22.3-24.9-24.9c-0.5-0.1-1-0.2-1.4-0.3c-0.5-0.1-0.9-0.1-1.4-0.2c-0.1,0-0.2,0-0.3,0
	c-0.4,0-0.8-0.1-1.2-0.1c-0.4,0-0.7,0-1,0c-0.3,0-0.7,0-1,0c0,0,0,0,0,0c-0.3,0-0.7,0-1,0c-0.3,0-0.7,0-1,0c-0.4,0-0.8,0.1-1.2,0.1
	c-0.1,0-0.2,0-0.3,0c-0.5,0-0.9,0.1-1.4,0.2c-0.5,0.1-1,0.2-1.4,0.3c-12.5,2.6-22.3,12.4-24.9,24.9c-0.1,0.5-0.2,1-0.3,1.4
	c-0.1,0.5-0.1,0.9-0.2,1.4c0,0.1,0,0.2,0,0.3c0,0.4-0.1,0.8-0.1,1.2c0,0.4,0,0.7,0,1c0,0.3,0,0.7,0,1c0,0,0,0,0,0c0,0.3,0,0.7,0,1
	c0,0.3,0,0.7,0,1c0,0.4,0.1,0.8,0.1,1.2c0,0.1,0,0.2,0,0.3c0,0.5,0.1,0.9,0.2,1.4c0.1,0.5,0.2,1,0.3,1.4
	c2.6,12.4,12.5,22.3,24.9,24.9c0.5,0.1,1,0.2,1.4,0.3c0.5,0.1,0.9,0.1,1.4,0.2c0.1,0,0.2,0,0.3,0c0.4,0,0.8,0.1,1.2,0.1
	c0.4,0,0.7,0,1,0c0.3,0,0.7,0,1,0c0,0,0,0,0,0c0.3,0,0.7,0,1,0c0.3,0,0.7,0,1,0c0.4,0,0.8-0.1,1.2-0.1c0.1,0,0.2,0,0.3,0
	c0.5,0,0.9-0.1,1.4-0.2c0.5-0.1,1-0.2,1.4-0.3c12.5-2.6,22.3-12.4,24.9-24.9c0.1-0.5,0.2-1,0.3-1.4c0.1-0.5,0.1-0.9,0.2-1.4
	c0-0.1,0-0.2,0-0.3c0-0.4,0.1-0.8,0.1-1.2c0-0.4,0-0.7,0-1c0-0.3,0-0.7,0-1c0,0,0,0,0,0C288,159.7,288,159.3,288,159z"/>
<path d="M288,248v44.1l-86.8,86.8c-5.9-4.6-9.5-11.9-9.1-20c0.6-12.9,11.6-22.9,24.5-22.9H240v-64h-24c-13.8,0-24.9-11.6-23.9-25.7
	c0.8-12.7,11.7-22.3,24.4-22.3H264C277.2,224,288,234.8,288,248z"/>
<path d="M467.8,112.2l-34.7,34.7c-40.3-65.3-115.8-106.7-200-97.7C136.5,59.5,59.5,136.5,49.2,233.1c-9,84.2,32.4,159.7,97.7,200
	l-34.7,34.7C31.9,413.2-15.7,314.2,4.7,206.1C24,104.2,104.2,24,206.1,4.7C314.2-15.7,413.2,31.9,467.8,112.2z"/>
<path d="M503,76.9L76.9,503c-9.4,9.4-24.6,9.4-33.9,0l0,0c-9.4-9.4-9.4-24.6,0-33.9L469.1,43c9.4-9.4,24.6-9.4,33.9,0l0,0
	C512.4,52.4,512.4,67.6,503,76.9z"/>
</svg>
