<?xml version="1.0" encoding="UTF-8" standalone="no"?>
<!DOCTYPE svg PUBLIC "-//W3C//DTD SVG 1.1//EN" "http://www.w3.org/Graphics/SVG/1.1/DTD/svg11.dtd">
<svg width="100%" height="100%" viewBox="0 0 512 512" version="1.1" xmlns="http://www.w3.org/2000/svg" xmlns:xlink="http://www.w3.org/1999/xlink" xml:space="preserve" xmlns:serif="http://www.serif.com/" style="fill-rule:evenodd;clip-rule:evenodd;">
    <g transform="matrix(0.795085,0,0,0.795085,8.57127,10)">
        <path d="M112,361.6L112,499C112,506.2 106.2,512 99,512L77,512C69.8,512 64,506.2 64,499L64,386.4C64,383.1 62.8,380 60.5,377.6C21.7,336.1 0,281.2 0,224.2C0,100.6 100.2,0 224,0L256,0C356.4,0 438.8,77 447.3,175.3C447.5,178 448.7,180.6 450.5,182.7L503.9,242.8L508.7,248.2C510.8,250.6 512,253.6 512,256.8L512,323C512,330.2 506.2,336 499,336L461,336C453.8,336 448,341.8 448,349L448,434.4C448,441.4 442.4,447.1 435.4,447.4L416,448L333,448C325.8,448 320,453.8 320,461L320,499C320,506.2 314.2,512 307,512L285,512C277.8,512 272,506.2 272,499L272,413C272,405.8 277.8,400 285,400L320,400L387.2,399.2C394.3,399.1 400,393.3 400,386.2L400,301C400,293.8 405.8,288 413,288L451,288C458.2,288 464,282.2 464,275C464,271.8 462.8,268.8 460.7,266.4L411.7,211.3L403.7,202.3C401.8,200.1 400.6,197.4 400.4,194.5L399.6,182.5C394.8,107.4 332.3,48 256,48L224,48C126.8,48 48,127 48,224.2C48,270.3 66.1,314.7 98.3,347.6L112,361.6Z" style="fill-rule:nonzero;"/>
    </g>
    <g transform="matrix(1.04364,0,0,1.04364,140.676,292.219)">
        <g id="Ebene1">
            <text x="0px" y="0px" style="font-family:'ArialRoundedMTBold', 'Arial Rounded MT Bold', sans-serif;font-size:288px;">!</text>
        </g>
    </g>
    <g transform="matrix(-1.9018,-16.9602,16.9602,-1.9018,337.772,688.132)">
        <g id="Ebene3">
            <path d="M12.743,2.063L13.127,2.276C15.848,3.788 17.656,6.538 17.966,9.635L17.998,9.95C18.025,10.225 17.825,10.47 17.55,10.498C17.275,10.525 17.03,10.325 17.003,10.05L16.971,9.735C16.694,6.963 15.076,4.503 12.641,3.15L12.257,2.937C12.016,2.803 11.929,2.499 12.063,2.257C12.197,2.016 12.501,1.929 12.743,2.063ZM11.571,4.743C11.698,4.532 11.954,4.448 12.176,4.532L12.257,4.571L12.381,4.646C13.937,5.579 15.028,7.117 15.399,8.884L15.449,9.151L15.493,9.418C15.539,9.69 15.355,9.948 15.082,9.993C14.84,10.034 14.61,9.893 14.53,9.67L14.507,9.582L14.462,9.315C14.212,7.814 13.352,6.488 12.093,5.647L11.867,5.503L11.743,5.429C11.506,5.287 11.429,4.98 11.571,4.743Z" style="fill:rgb(33,33,33);fill-rule:nonzero;stroke:black;stroke-width:1px;"/>
        </g>
    </g>
</svg>
