<?xml version="1.0" encoding="UTF-8" standalone="no"?>
<!DOCTYPE svg PUBLIC "-//W3C//DTD SVG 1.1//EN" "http://www.w3.org/Graphics/SVG/1.1/DTD/svg11.dtd">
<svg width="100%" height="100%" viewBox="0 0 512 512" version="1.1" xmlns="http://www.w3.org/2000/svg" xmlns:xlink="http://www.w3.org/1999/xlink" xml:space="preserve" xmlns:serif="http://www.serif.com/" style="fill-rule:evenodd;clip-rule:evenodd;stroke-linejoin:round;stroke-miterlimit:2;">
    <g transform="matrix(0.786524,0,0,0.786524,3,4)">
        <path d="M112,361.6L112,499C112,506.2 106.2,512 99,512L77,512C69.8,512 64,506.2 64,499L64,386.4C64,383.1 62.8,380 60.5,377.6C21.7,336.1 0,281.2 0,224.2C0,100.6 100.2,0 224,0L256,0C356.4,0 438.8,77 447.3,175.3C447.5,178 448.7,180.6 450.5,182.7L503.9,242.8L508.7,248.2C510.8,250.6 512,253.6 512,256.8L512,323C512,330.2 506.2,336 499,336L461,336C453.8,336 448,341.8 448,349L448,434.4C448,441.4 442.4,447.1 435.4,447.4L416,448L333,448C325.8,448 320,453.8 320,461L320,499C320,506.2 314.2,512 307,512L285,512C277.8,512 272,506.2 272,499L272,413C272,405.8 277.8,400 285,400L320,400L387.2,399.2C394.3,399.1 400,393.3 400,386.2L400,301C400,293.8 405.8,288 413,288L451,288C458.2,288 464,282.2 464,275C464,271.8 462.8,268.8 460.7,266.4L411.7,211.3L403.7,202.3C401.8,200.1 400.6,197.4 400.4,194.5L399.6,182.5C394.8,107.4 332.3,48 256,48L224,48C126.8,48 48,127 48,224.2C48,270.3 66.1,314.7 98.3,347.6L112,361.6Z" style="fill-rule:nonzero;"/>
    </g>
    <g transform="matrix(1.0324,0,0,1.0324,133.682,283.18)">
        <g id="Ebene1">
            <text x="0px" y="0px" style="font-family:'ArialRoundedMTBold', 'Arial Rounded MT Bold', sans-serif;font-size:288px;">!</text>
        </g>
    </g>
    <g transform="matrix(-0.268149,0,0,0.268149,493.237,365.781)">
        <path d="M448,0L64,0C28.7,0 0,28.7 0,64L0,352C0,387.3 28.7,416 64,416L160,416L160,500C160,507.1 165.8,512 172,512C174.4,512 176.9,511.3 179.1,509.6L304,416L448,416C483.3,416 512,387.3 512,352L512,64C512,28.7 483.3,0 448,0ZM464,352C464,360.8 456.8,368 448,368L288,368L208,428L208,368L64,368C55.2,368 48,360.8 48,352L48,64C48,55.2 55.2,48 64,48L448,48C456.8,48 464,55.2 464,64L464,352Z" style="fill-rule:nonzero;"/>
    </g>
    <g transform="matrix(0.227694,0,0,0.139334,366.461,385.43)">
        <path d="M256,0C265.6,0 273.68,8.8 275.04,20.7L308.64,325.1L339.44,84.2C340.96,72.5 349.04,63.9 358.56,64C368.08,64.1 376.08,72.9 377.44,84.6L400,281.9L416.4,179.3C418.16,168.5 425.44,160.6 434.24,160C443.04,159.4 450.96,166.4 453.6,176.9L474.96,264L492.8,264C503.44,264 512,274.7 512,288C512,301.3 503.44,312 492.8,312L460.8,312C452.4,312 444.96,305.1 442.48,295.1L439.2,281.7L415.68,428.7C413.84,440.2 405.68,448.3 396.32,448C386.96,447.7 379.2,439 377.84,427.4L357.36,248.3L326.16,491.8C324.64,503.5 316.48,512.1 306.96,512C297.44,511.9 289.44,503.1 288.16,491.3L256,199.6L223.84,491.3C222.56,503.1 214.56,511.9 205.04,512C195.52,512.1 187.36,503.5 185.84,491.8L154.64,248.3L134.24,427.4C132.88,439 125.12,447.7 115.76,448C106.4,448.3 98.24,440.2 96.4,428.7L72.88,281.7L69.6,295.1C67.04,305.1 59.6,312 51.2,312L19.2,312C8.56,312 0,301.3 0,288C0,274.7 8.56,264 19.2,264L37.04,264L58.48,176.9C61.04,166.4 69.04,159.4 77.84,160C86.64,160.6 94,168.5 95.68,179.3L112.08,281.9L134.56,84.6C135.92,72.9 143.92,64.1 153.44,64C162.96,63.9 171.04,72.5 172.56,84.2L203.36,325.1L236.96,20.7C238.32,8.8 246.4,0 256,0Z" style="fill-rule:nonzero;"/>
    </g>
</svg>
