<?xml version="1.0" encoding="UTF-8" standalone="no"?>
<!DOCTYPE svg PUBLIC "-//W3C//DTD SVG 1.1//EN" "http://www.w3.org/Graphics/SVG/1.1/DTD/svg11.dtd">
<svg width="100%" height="100%" viewBox="0 0 512 512" version="1.1" xmlns="http://www.w3.org/2000/svg" xmlns:xlink="http://www.w3.org/1999/xlink" xml:space="preserve" xmlns:serif="http://www.serif.com/" style="fill-rule:evenodd;clip-rule:evenodd;stroke-linejoin:round;stroke-miterlimit:2;">
    <g transform="matrix(-1,0,0,1,512,0)">
        <path d="M448,0L64,0C28.7,0 0,28.7 0,64L0,352C0,387.3 28.7,416 64,416L160,416L160,500C160,507.1 165.8,512 172,512C174.4,512 176.9,511.3 179.1,509.6L304,416L448,416C483.3,416 512,387.3 512,352L512,64C512,28.7 483.3,0 448,0ZM464,352C464,360.8 456.8,368 448,368L288,368L208,428L208,368L64,368C55.2,368 48,360.8 48,352L48,64C48,55.2 55.2,48 64,48L448,48C456.8,48 464,55.2 464,64L464,352Z" style="fill-rule:nonzero;"/>
    </g>
    <g transform="matrix(0.688668,0,0,0.584688,101.738,57.5166)">
        <path d="M416,160L32,160C14.327,160 0,174.327 0,192C0,209.673 14.327,224 32,224L416,224C433.673,224 448,209.673 448,192C448,174.327 433.673,160 416,160ZM416,416L32,416C14.327,416 0,430.327 0,448C0,465.673 14.327,480 32,480L416,480C433.673,480 448,465.673 448,448C448,430.327 433.673,416 416,416ZM40.875,96L349.042,96C366.715,96 381.042,81.673 381.042,64C381.042,46.327 366.715,32 349.042,32L40.875,32C23.202,32 8.875,46.327 8.875,64C8.875,81.673 23.202,96 40.875,96ZM378.083,352C395.756,352 410.083,337.673 410.083,320C410.083,302.327 395.756,288 378.083,288L40.875,288C23.202,288 8.875,302.327 8.875,320C8.875,337.673 23.202,352 40.875,352L378.083,352Z" style="fill-rule:nonzero;"/>
    </g>
</svg>
