<svg height="20" viewBox="0 0 20 20" width="20" xmlns="http://www.w3.org/2000/svg"><path d="m7.50001 4c.18022286 0 .34393714.09663429.43228128.24868023l.03761872.08044977 3.99999 10.99997c.0944.2595-.0395.5464-.299.6408-.2306667.0839111-.4829827-.012563-.6025053-.2172927l-.0382947-.0817073-1.33485-3.6709h-4.39048l-1.33486 3.6709c-.09437.2595-.38125.3934-.64077.299-.23067556-.0839111-.3620879-.319921-.32216373-.5535868l.02314373-.0872132 4-10.99997c.07185-.1976.25964-.32913.46989-.32913zm0 1.96309-1.8316 5.03691h3.66321zm5.24279-3.90017.384.21332c2.7214 1.51194 4.5294 4.26139 4.8392 7.35921l.0315.3148c.0275.27475-.173.51975-.4478.54725s-.5198-.173-.5472-.4477l-.0315-.31485c-.2772-2.77173-1.8949-5.23177-4.3299-6.58456l-.384-.21331c-.2413-.13411-.3283-.43851-.1942-.6799s.4385-.32837.6799-.19426zm-1.1715 2.67985c.1262222-.21048.3829728-.29454025.6047824-.21083446l.0812176.03933446.1241.07447c1.5552381.93317143 2.6462585 2.47124082 3.0171061 4.2383697l.0501939.2667403.0445.26696c.0454.27239-.1386.53-.411.5754-.2421333.0403467-.4725728-.10055309-.5526782-.32367045l-.0227218-.08732955-.0445-.26696c-.2501833-1.50123222-1.1102994-2.82750349-2.3691532-3.66867646l-.2262468-.14334354-.1241-.07447c-.2368-.14207-.3136-.4492-.1715-.68599z" fill="#212121" stroke="black" stroke-width="1"/></svg>