<?xml version="1.0" encoding="utf-8"?>
<!-- Generator: Adobe Illustrator 27.8.1, SVG Export Plug-In . SVG Version: 6.00 Build 0)  -->
<svg version="1.1" id="Layer_1" xmlns="http://www.w3.org/2000/svg" xmlns:xlink="http://www.w3.org/1999/xlink" x="0px" y="0px"
	 viewBox="0 0 448 512" style="enable-background:new 0 0 448 512;" xml:space="preserve">
<path d="M246.6,502.6c-12.5,12.5-32.8,12.5-45.3,0l-128-128c-12.5-12.5-12.5-32.8,0-45.3s32.8-12.5,45.3,0l73.4,73.4V224
	c0-17.7,14.3-32,32-32s32,14.3,32,32v178.7l73.4-73.4c12.5-12.5,32.8-12.5,45.3,0s12.5,32.8,0,45.3L246.6,502.6L246.6,502.6z"/>
<path d="M224,158c43.6,0,79-35.4,79-79S267.6,0,224,0s-79,35.4-79,79S180.4,158,224,158z M224,47c17.7,0,32,14.3,32,32
	s-14.3,32-32,32s-32-14.3-32-32S206.3,47,224,47z"/>
</svg>
