<svg xmlns="http://www.w3.org/2000/svg"  xmlns:xlink="http://www.w3.org/1999/xlink"  class="icon"><path d="m22.7 13.1c-0.4-0.4-0.9-0.6-1.8-0.6-0.3 0-0.8 0-1.2 0.1v-7.2c0-0.6-0.5-1-1-1h-12.7c-0.6 0-1 0.5-1 1v12.6c0 0.6 0.5 1 1 1h3.4c0.1 0.1 0.1 0.2 0.2 0.3 0.9 1.1 2.5 1.6 4.6 1.6 1.7 0 3.4-0.3 4.5-0.5l0.4-0.1c1.4-0.2 2.1-0.5 2.6-1 0.2-0.1 0.5-0.2 0.6-0.4 0.1-0.1 0.1-0.2 0-0.3 0-0.1-0.1-0.2-0.2-0.2 0.1-0.1 0.1-0.2 0.1-0.2 0.2-0.1 0.3-0.2 0.4-0.4 0.1-0.1 0.1-0.2 0-0.3 0-0.1-0.1-0.2-0.2-0.3v-0.2s0-0.1 0.1-0.1c0.3-0.1 0.6-0.3 0.8-0.5 0.1-0.1 0.1-0.3 0-0.4-0.1-0.2-0.3-0.4-0.6-0.5v-0.1c0.1-0.1 0.1-0.2 0.2-0.3 0.3-0.1 0.7-0.3 0.9-0.6 0.1-0.2 0.1-0.4 0-0.5 0-0.7-0.7-0.8-1.1-0.9zm-0.3 1.9l-1.6 0.2 1.5 0.2c0.1 0.4 0.2 1-0.4 1.6l-1.2 0.2 1.3 0.1c0 0.2 0 0.5-0.1 0.7l-1 0.3h0.8c0 0.2-0.2 0.9-2.6 1.3-2.7 0.5-10.4 2.1-9.2-3.9s7.6-8.6 8.9-8.6v5.8c-0.7 0.1-1.3 0.2-1.9 0.4-0.6-0.1-2.1-0.2-2.8 0l1.7 0.3c-1.6 0.4-2.2 0.8-2.2 0.8 1.8-0.5 3.9-0.8 4.8-1 1.6-0.2 3.4-0.1 3.7 0.3 0.7 0.6 0.5 1.1 0.3 1.3z"></path></svg>