<svg xmlns="http://www.w3.org/2000/svg"  xmlns:xlink="http://www.w3.org/1999/xlink"  class="icon"><path d="m18 5.8h-0.3l-0.3-0.3c-0.4-0.5-1-0.8-1.7-0.8-0.6 0-1.2 0.2-1.6 0.6-0.3-0.3-0.6-0.5-1-0.7-0.9-0.5-2-0.7-2.7-0.4-0.4 0.1-0.7 0.4-0.9 0.7-0.1 0.3-0.2 0.5-0.1 0.9h-3.1c-0.5 0-1 0.4-1 1v5.5h-0.3c-0.6 0-1.3 0.3-1.7 0.7-0.5 0.5-0.7 1.1-0.7 1.7s0.2 1.2 0.6 1.6c-0.3 0.3-0.5 0.6-0.7 1-0.5 0.9-0.7 2-0.4 2.7 0.1 0.4 0.4 0.7 0.7 0.9 0.3 0.1 0.7 0.1 1.1 0 0.7-0.2 1.4-0.8 1.9-1.6 0.2 0.1 0.3 0.2 0.5 0.2h11.7c0.5 0 1-0.4 1-1v-11.8c0-0.5-0.4-0.9-1-0.9zm-2.4-0.7c0.6 0 1.1 0.2 1.5 0.6s0.6 0.9 0.6 1.5c0 0.2 0 0.4-0.1 0.6l-2.6-2.6c0.3 0 0.4-0.1 0.6-0.1zm1.4 3.8l-0.2 0.1-1-1c0.1 0 0.3 0.1 0.4 0.1 0.3 0.2 0.5 0.4 0.8 0.8zm-0.5-1.1l-0.1-0.1c-0.3-0.2-0.6-0.2-0.9-0.2l-0.5-0.3c0-0.4-0.1-0.8-0.3-1.1l1.8 1.7zm-1.7 0.7c0-0.1 0.1-0.1 0.1-0.2l1.3 1.3-0.4 0.4-1.2-1.2c0.1 0 0.1-0.1 0.2-0.3zm-0.8-2.6c0.3 0.3 0.5 0.6 0.6 0.9l-0.8-0.8 0.2-0.1zm0.4 1.9c-0.2 0.1-0.3 0.2-0.5 0.2h-0.1l-1-1 0.4-0.4 1.2 1.2zm-4.5-2.7c0.1-0.2 0.3-0.4 0.6-0.5 0.6-0.2 1.6 0 2.4 0.4 0.3 0.2 0.7 0.4 0.9 0.6l-1.3 1.3c-0.3 0.3-0.5 0.6-0.6 0.9-0.2-0.1-0.3-0.1-0.5-0.2-0.7-0.4-1.4-1.1-1.6-1.7-0.1-0.3-0.1-0.6 0.1-0.8zm2.6 2.9c-0.1 0-0.2 0-0.2-0.1v-0.1l0.2 0.2zm-6.5 6.2c0.2-0.3 0.4-0.6 0.8-0.8l0.2 0.2-1.1 1.1c0-0.2 0-0.4 0.1-0.5zm0.8 1.5c-0.1 0-0.2-0.1-0.4-0.1-0.1 0-0.1-0.1-0.2-0.1l1.3-1.3 0.4 0.4-1.1 1.1zm1.6-0.4c0 0.1 0.1 0.3 0.1 0.4-0.2 0-0.4 0.1-0.6 0.1l0.5-0.5zm-2.9-0.3l-0.4 0.4c-0.4 0-0.8 0.1-1.1 0.3l1.7-1.7-0.1 0.1c-0.1 0.2-0.2 0.6-0.1 0.9zm-0.8 0.8l-0.8 0.8-0.2-0.2c0.4-0.4 0.7-0.5 1-0.6zm-1.6-0.5c-0.1-0.2-0.1-0.4-0.1-0.6 0-0.6 0.2-1.1 0.6-1.5s0.9-0.6 1.5-0.6c0.2 0 0.4 0 0.6 0.1l-2.6 2.6zm2.4 3.6c-0.4 0.8-1.1 1.5-1.8 1.7-0.3 0.1-0.6 0.1-0.8 0s-0.4-0.3-0.5-0.6c-0.2-0.6 0-1.6 0.4-2.4 0.2-0.3 0.4-0.7 0.6-0.9l1.3 1.3c0.3 0.3 0.6 0.5 0.9 0.6 0.1 0 0 0.1-0.1 0.3zm0.4-0.8h-0.1l0.2-0.2c-0.1 0-0.1 0.1-0.1 0.2zm-0.9-0.5c0-0.1-0.1-0.1 0 0l-0.4-0.4 1.1-1.2c0.1 0.1 0.2 0.3 0.2 0.4v0.1l-0.9 1.1zm1.2-1.7c0.1 0.1 0.2 0.1 0.3 0.1l-0.2 0.2c-0.1-0.2-0.1-0.3-0.2-0.4 0 0.1 0.1 0.1 0.1 0.1zm0.2 2.2h-0.2c0.1-0.3 0.1-0.5 0.1-0.8l0.5-0.3c-0.1 0.3 0 0.5 0.2 0.7l0.4 0.2c-0.3 0.2-0.6 0.2-1 0.2zm1-1.7l0.1-0.1c0.3 0 0.7 0 1-0.1 0 0.3-0.1 0.6-0.2 0.8l-0.2-0.4c-0.2-0.2-0.5-0.3-0.7-0.2zm0.3 1.8c0.1 0 0.1 0 0 0l0.8-0.7 1.1 1.8-1.9-1.1zm3.1-4c-0.3 0.6-1.1 1.1-2 1.4-0.1-0.5-0.3-0.9-0.7-1.2l-1.1-1.2c0.3-0.2 0.6-0.3 1-0.4 1.4-0.4 2.7-0.1 3 0.7 0 0.2 0 0.5-0.2 0.7zm0.3-2.4l1.1-1.9 0.8 0.8-1.9 1.1zm1.6-2.7l-0.2 0.4c-0.1-0.3-0.2-0.6-0.2-0.9v-0.2c0.3 0.1 0.5 0.1 0.8 0.1l0.4 0.4c-0.4-0.1-0.6 0-0.8 0.2zm0.7 1.4l0.4-0.2c0.2-0.3 0.3-0.5 0.2-0.8l0.1 0.1c0 0.3 0 0.7 0.1 1-0.3 0-0.5 0-0.8-0.1zm0.9-1.9l-0.2-0.2c0.2-0.1 0.3-0.1 0.4-0.2 0 0.1-0.1 0.1-0.1 0.2 0 0 0 0.1-0.1 0.2zm0.2 1.4l0.5 0.5c-0.1 0-0.3 0.1-0.4 0.1 0-0.2-0.1-0.4-0.1-0.6zm2.4 3.1c-0.2 0.1-0.5 0-0.8-0.1-0.6-0.3-1.1-1.1-1.4-2 0.5-0.1 0.9-0.3 1.2-0.7l1.2-1.2c0.2 0.3 0.3 0.6 0.4 0.9 0.5 1.5 0.2 2.8-0.6 3.1z"></path></svg>