<svg xmlns:xlink="http://www.w3.org/1999/xlink"  role="img" aria-label="Open Accessibility Panel" xmlns="http://www.w3.org/2000/svg" viewBox="0 0 293.05 349.63"><path d="M95.37,51.29a51.23,51.23,0,1,1,51.29,51.16h-.07A51.19,51.19,0,0,1,95.37,51.29ZM293,134.59A25.61,25.61,0,0,0,265.49,111h-.13l-89.64,8c-3.06.28-6.13.42-9.19.42H126.65q-4.59,0-9.16-.41L27.7,111a25.58,25.58,0,0,0-4.23,51l.22,0,72.45,6.56a8.55,8.55,0,0,1,7.77,8.48v19.62a33.82,33.82,0,0,1-2.36,12.45L60.48,313.66a25.61,25.61,0,1,0,46.85,20.71h0l39.14-95.61L186,334.63A25.61,25.61,0,0,0,232.86,314L191.63,209.14a34.14,34.14,0,0,1-2.35-12.44V177.09a8.55,8.55,0,0,1,7.77-8.49l72.33-6.55A25.61,25.61,0,0,0,293,134.59Z"></path></svg>