<svg xmlns="http://www.w3.org/2000/svg"  xmlns:xlink="http://www.w3.org/1999/xlink"  class="icon"><path d="m15.1 7.1c0 1 0.2 5.7 1.4 3.1 0 0-0.9 1-1.4-3.1zm1.4-1.1h-9.9c-0.4 0-0.8 0.4-0.8 0.8v9.9c0 0.2 0.1 0.3 0.1 0.5-0.5 0.3-1 0.4-1.6 0.4-0.9 0-2.1-0.3-3.5-1l-0.5-0.2v0.6c0 0.1-0.1 1.3 0.9 2.3 0.8 0.7 2.1 1.1 3.9 1.1 0 0.9 0.1 1.8 1.2 3.1l0.3 0.3 0.3-0.3c0-0.1 1.1-0.5 2-4.4 0.9-0.4 3.1-1.6 3.1-1.6h4.5c0.4 0 0.8-0.4 0.8-0.8v-9.9c0-0.4-0.4-0.8-0.8-0.8zm-6.4 1.4l2-0.2c-1.1 1.1-2.2 3.8-2.2 3.8v-0.1l-0.1-0.6-0.1-0.9v-0.1-0.1l0.1-0.6-0.1-0.6-0.1-0.4 0.5-0.2zm6.9 3.2c-0.3 0.3-0.9 0.9-1 1.4-1.5 4.1-7.5 6.4-7.6 6.4l-0.2 0.1v0.2c-0.6 2.8-1.2 3.2-1.6 3.8-0.9-1.4-0.8-2.5-0.7-2.5v-0.4h-0.4c-1.7 0.1-3-0.2-3.7-0.9-0.4-0.4-0.5-0.8-0.6-1.1 1.3 0.6 2.3 0.8 3.3 0.8 2.3 0 3.9-1.7 5.3-5.6 0.3-0.7 0.5-1.4 0.9-2 0 0 2-4.4 4-4.5h1.1c0.7 0.1 1.2 0.6 1.2 1.5v2.8z"></path></svg>