<?xml version="1.0" encoding="UTF-8" standalone="no"?>
<!DOCTYPE svg PUBLIC "-//W3C//DTD SVG 1.1//EN" "http://www.w3.org/Graphics/SVG/1.1/DTD/svg11.dtd">
<svg width="100%" height="100%" viewBox="0 0 150 50" version="1.1" xmlns="http://www.w3.org/2000/svg" xmlns:xlink="http://www.w3.org/1999/xlink" xml:space="preserve" xmlns:serif="http://www.serif.com/" style="fill-rule:evenodd;clip-rule:evenodd;stroke-linecap:round;stroke-linejoin:round;">
    <g transform="matrix(0.883653,0,0,0.883653,39.3696,12.6572)">
        <path d="M37.039,24.876C35.306,24.876 33.856,24.643 32.689,24.176C31.523,23.709 30.506,22.993 29.639,22.026L28.889,24.376L24.189,24.376L31.339,-9.324L36.789,-9.324L34.339,2.226C36.673,0.859 39.289,0.176 42.189,0.176C44.323,0.176 46.123,0.601 47.589,1.451C49.056,2.301 50.064,3.618 50.614,5.401C51.164,7.184 51.139,9.493 50.539,12.326C49.606,16.626 47.998,19.793 45.714,21.826C43.431,23.859 40.539,24.876 37.039,24.876ZM36.489,20.776C39.056,20.776 40.973,20.076 42.239,18.676C43.506,17.276 44.439,15.159 45.039,12.326C45.673,9.393 45.606,7.326 44.839,6.126C44.073,4.926 42.423,4.326 39.889,4.326C37.423,4.326 35.273,5.009 33.439,6.376L30.889,18.276C31.489,19.109 32.273,19.734 33.239,20.151C34.206,20.568 35.289,20.776 36.489,20.776Z" style="fill-rule:nonzero;"/>
    </g>
    <g transform="matrix(1,0,0,1,55.9067,-2.11502)">
        <g transform="matrix(1,0,0,1,-51.9067,2.11502)">
            <path d="M98.3,34.181C98.036,34.235 97.767,34.285 97.493,34.33C96.226,34.536 94.901,34.639 93.516,34.639C91.219,34.639 89.297,34.241 87.751,33.446C86.204,32.651 85.122,31.443 84.503,29.823C83.885,28.203 83.84,26.156 84.371,23.682C85.078,20.324 86.425,17.673 88.413,15.729C90.402,13.785 93.266,12.813 97.007,12.813C99.098,12.813 100.762,13.21 101.999,14.006C103.237,14.801 104.083,15.876 104.54,17.231C104.997,18.586 105.048,20.088 104.695,21.738L104.25,23.91C104.062,23.893 103.871,23.885 103.678,23.885C101.963,23.885 100.401,24.546 99.232,25.626L88.568,25.626C88.362,27.658 88.745,29.057 89.717,29.823C90.689,30.589 92.544,30.972 95.284,30.972C95.888,30.972 96.506,30.938 97.139,30.871C97.219,32.097 97.637,33.231 98.3,34.181ZM89.231,22.489L100.321,22.489L100.63,21.031C100.954,19.587 100.829,18.461 100.254,17.651C99.68,16.841 98.391,16.436 96.388,16.436C94.15,16.436 92.508,16.922 91.462,17.894C90.416,18.866 89.673,20.397 89.231,22.489Z" style="fill-rule:nonzero;"/>
        </g>
        <g transform="matrix(0.772676,0,0,0.772676,15.7315,5.56797)">
            <circle cx="48.258" cy="35.148" r="5.213"/>
        </g>
    </g>
    <g id="decl1.svg" transform="matrix(0.771647,0.179465,-0.179465,0.771647,46.6862,25.885)">
        <g transform="matrix(1,0,0,1,-32,-32)">
            <path d="M46,14C46,10.689 43.311,8 40,8L16,8C12.689,8 10,10.689 10,14L10,50C10,53.311 12.689,56 16,56L40,56C43.311,56 46,53.311 46,50L46,14Z"/>
            <path d="M22,36L30,44L44,24" style="fill:none;fill-rule:nonzero;stroke:white;stroke-width:4px;"/>
        </g>
    </g>
</svg>
