<?xml version="1.0" encoding="UTF-8" standalone="no"?>
<!DOCTYPE svg PUBLIC "-//W3C//DTD SVG 1.1//EN" "http://www.w3.org/Graphics/SVG/1.1/DTD/svg11.dtd">
<svg width="100%" height="100%" viewBox="0 0 800 800" version="1.1" xmlns="http://www.w3.org/2000/svg" xmlns:xlink="http://www.w3.org/1999/xlink" xml:space="preserve" xmlns:serif="http://www.serif.com/" style="fill-rule:evenodd;clip-rule:evenodd;stroke-linejoin:round;stroke-miterlimit:2;">
    <g id="Ebene1">
    </g>
    <path d="M196.643,61.382C165.833,80.081 137.775,102.873 113.219,129.015L113.445,129.586L61.605,231.913L127.204,190.477L193.006,278.117L188.673,168.677L257.588,135.478L191.905,98.489L196.643,61.382C256.4,25.113 326.478,4.232 401.395,4.232C619.619,4.232 796.789,181.403 796.789,399.627C796.789,535.581 728.024,655.6 623.415,726.767L626.359,742.529C626.77,744.336 627.112,746.198 627.399,748.087C630.658,770.265 614.421,791.813 583.591,791.813C564.395,791.813 552.871,782.333 545.986,767.707C573.422,756.909 599.363,743.13 623.415,726.767L581.688,503.322L573.762,441.716C568.025,405.835 572.639,393.979 574.2,391.2C574.241,391.135 574.278,391.066 574.309,390.995C575.788,388.257 582.523,382.123 598.239,376.223L720.464,333.496C721.215,333.296 721.955,333.059 722.682,332.784C744.586,324.57 766.491,313.208 766.491,289.072C766.491,264.936 748.707,238.473 722.696,245.305L722.08,245.469L721.505,245.647C720.136,246.03 718.767,246.441 717.398,246.865C691.921,254.34 568.272,289.195 481.162,289.195C400.212,289.195 287.748,259.077 251.771,248.851C248.19,247.466 244.534,246.287 240.819,245.318C214.808,238.473 197.01,264.895 197.01,289.045C197.01,312.961 218.504,324.351 240.203,332.524L240.203,332.908L370.56,373.622C383.88,378.728 387.439,383.944 389.178,388.462C394.832,402.96 390.314,431.668 388.713,441.689L380.772,503.294L336.704,744.5C336.567,745.157 336.444,745.828 336.334,746.512L336.02,748.251C332.843,770.361 349.08,791.813 379.828,791.813C406.66,791.813 418.502,773.29 423.636,748.087C428.77,722.883 461.968,532.372 481.134,532.372C500.301,532.372 539.783,748.087 539.783,748.087C541.244,755.26 543.248,761.891 545.986,767.707C501.192,785.337 452.415,795.022 401.395,795.022C183.17,795.022 6,617.851 6,399.627C6,294.988 46.735,199.789 113.219,129.015L78.681,41.966L136.271,79.766L204.005,3.723L196.643,61.382ZM481.75,244.21C439.694,244.21 405.086,209.602 405.086,167.545C405.086,125.488 439.694,90.881 481.75,90.881C523.807,90.881 558.415,125.488 558.415,167.545C558.37,209.585 523.79,244.165 481.75,244.21Z"/>
</svg>
