<?xml version="1.0" encoding="UTF-8" standalone="no"?>
<!DOCTYPE svg PUBLIC "-//W3C//DTD SVG 1.1//EN" "http://www.w3.org/Graphics/SVG/1.1/DTD/svg11.dtd">
<svg width="100%" height="100%" viewBox="0 0 1281 439" version="1.1" xmlns="http://www.w3.org/2000/svg" xmlns:xlink="http://www.w3.org/1999/xlink" xml:space="preserve" xmlns:serif="http://www.serif.com/" style="fill-rule:evenodd;clip-rule:evenodd;stroke-linejoin:round;stroke-miterlimit:2;">
    <path d="M157.41,434.745L187.087,293.604L162.586,293.604L167.417,271.173L191.919,271.173L196.06,252.193C199.51,235.859 207.563,222.515 220.216,212.163C232.869,201.81 249.203,196.634 269.218,196.634C284.632,196.634 296.596,198.359 305.108,201.81L300.622,223.205C297.401,222.055 293.145,221.135 287.853,220.445C282.562,219.755 277.156,219.409 271.634,219.409C257.37,219.409 246.558,222.113 239.196,227.519C231.834,232.925 226.888,241.15 224.357,252.193L220.216,271.173L310.284,271.173L275.775,434.745L247.478,434.745L277.156,293.604L215.385,293.604L185.707,434.745L157.41,434.745Z" style="fill-rule:nonzero;"/>
    <path d="M301.657,434.745L381.372,351.579L338.236,271.173L368.949,271.173L400.697,332.254L458.327,271.173L488.695,271.173L412.43,351.579L456.602,434.745L425.889,434.745L392.415,370.904L332.37,434.745L301.657,434.745Z" style="fill-rule:nonzero;"/>
    <path d="M529.416,438.196C519.753,438.196 510.148,437.448 500.601,435.953C491.053,434.457 483.174,432.675 476.962,430.604L482.138,405.758C497.322,411.279 513.542,414.04 530.796,414.04C545.29,414.04 555.988,412.487 562.889,409.381C569.791,406.275 574.162,400.466 576.003,391.954C577.383,385.742 576.693,381.026 573.932,377.805C571.171,374.585 566.685,371.709 560.474,369.178C554.262,366.647 546.21,363.657 536.317,360.206C527.575,356.985 519.926,353.477 513.369,349.681C506.812,345.885 502.096,341.111 499.22,335.359C496.345,329.608 495.942,322.016 498.013,312.584C501.233,298.09 508.193,286.989 518.89,279.282C529.588,271.575 547.13,267.722 571.517,267.722C580.259,267.722 588.541,268.355 596.363,269.62C604.185,270.885 610.857,272.438 616.378,274.279L611.202,299.125C597.858,294.294 584.4,291.878 570.826,291.878C557.253,291.878 546.9,293.316 539.768,296.192C532.636,299.068 528.15,304.416 526.31,312.238C525.16,317.53 525.677,321.728 527.863,324.834C530.048,327.94 533.959,330.586 539.596,332.771C545.232,334.957 552.537,337.66 561.509,340.881C579.224,346.632 591.532,353.016 598.433,360.033C605.335,367.05 607.291,377.575 604.3,391.609C600.849,407.713 593.487,419.504 582.214,426.981C570.941,434.457 553.342,438.196 529.416,438.196Z" style="fill-rule:nonzero;"/>
    <path d="M690.227,438.196C675.043,438.196 664.115,433.882 657.444,425.255C650.772,416.628 649.047,404.607 652.267,389.193L672.283,293.604L647.436,293.604L652.267,271.173L677.114,271.173L685.741,230.797L715.764,222.17L705.411,271.173L750.618,271.173L744.061,293.604L700.58,293.604L680.565,387.813C678.494,397.705 679.012,404.78 682.118,409.036C685.223,413.292 691.838,415.42 701.96,415.42C705.181,415.42 708.862,415.132 713.003,414.557C717.144,413.982 721.285,413.119 725.426,411.969L720.595,433.365C711.393,436.586 701.27,438.196 690.227,438.196Z" style="fill-rule:nonzero;"/>
    <path d="M833.094,438.196C804.797,438.196 784.667,431.179 772.703,417.146C760.74,403.112 757.865,381.486 764.076,352.269C769.828,326.042 780.353,305.394 795.652,290.325C810.951,275.256 832.519,267.722 860.356,267.722C876.46,267.722 889.171,270.655 898.488,276.522C907.806,282.388 913.96,290.44 916.951,300.678C919.941,310.916 920.057,322.476 917.296,335.359L910.739,366.072L789.613,366.072C788.002,378.496 788.405,388.273 790.821,395.405C793.236,402.537 798.643,407.656 807.04,410.761C815.437,413.867 827.573,415.42 843.447,415.42C860.241,415.42 876.345,412.544 891.759,406.793L886.928,428.879C879.106,431.869 870.594,434.17 861.391,435.78C852.189,437.391 842.757,438.196 833.094,438.196ZM793.754,345.712L889.689,345.712L892.794,332.254C895.555,318.91 894.52,308.615 889.689,301.368C884.857,294.121 873.7,290.498 856.215,290.498C837.58,290.498 823.489,295.099 813.942,304.301C804.394,313.504 797.665,327.307 793.754,345.712Z" style="fill-rule:nonzero;"/>
    <path d="M938.001,434.745L972.51,271.173L998.047,271.173L995.631,291.878C1005.06,286.587 1015.65,281.756 1027.38,277.384C1039.11,273.013 1050.5,269.792 1061.54,267.722L1057.06,289.808C1050.15,291.188 1042.68,293.086 1034.63,295.502C1026.57,297.917 1018.81,300.62 1011.33,303.611C1003.86,306.602 997.472,309.708 992.18,312.929L966.298,434.745L938.001,434.745Z" style="fill-rule:nonzero;"/>
    <path d="M1057.75,434.745L1092.26,271.173L1117.8,271.173L1115.73,289.808C1124.93,283.366 1135.16,278.075 1146.44,273.934C1157.71,269.792 1170.13,267.722 1183.71,267.722C1223.28,267.722 1238.81,287.737 1230.3,327.767L1207.86,434.745L1179.57,434.745L1202,328.803C1204.99,314.539 1204.36,304.589 1200.1,298.953C1195.84,293.316 1185.55,290.498 1169.21,290.498C1159.78,290.498 1149.83,292.338 1139.36,296.019C1128.9,299.7 1119.87,304.762 1112.27,311.203L1086.05,434.745L1057.75,434.745Z" style="fill-rule:nonzero;"/>
    <path d="M72.024,121.635L43.507,23.128L104.339,71.648L191.144,0L165.359,99.513L235.515,148.31L152.789,174.026L143.868,291.535L79.99,188.62L0,223.604L72.024,121.635Z"/>
    <g id="Ebene1">
    </g>
</svg>
