<?xml version="1.0" encoding="UTF-8" standalone="no"?>
<!DOCTYPE svg PUBLIC "-//W3C//DTD SVG 1.1//EN" "http://www.w3.org/Graphics/SVG/1.1/DTD/svg11.dtd">
<svg width="100%" height="100%" viewBox="0 0 295 100" version="1.1" xmlns="http://www.w3.org/2000/svg" xmlns:xlink="http://www.w3.org/1999/xlink" xml:space="preserve" xmlns:serif="http://www.serif.com/" style="fill-rule:evenodd;clip-rule:evenodd;stroke-linejoin:round;stroke-miterlimit:2;">
    <g transform="matrix(1,0,0,1,-7,-2)">
        <g transform="matrix(2.27442,0,0,2.27442,-3.12031,-4.64124)">
            <g transform="matrix(1.90499,0,0,1.90499,0.639638,2.91997)">
                <path d="M4,20C3.45,20 2.979,19.804 2.588,19.413C2.196,19.021 2,18.55 2,18L2,14L4,14L4,18L8,18L8,20L4,20ZM2,6L2,2C2,1.45 2.196,0.979 2.588,0.587C2.979,0.196 3.45,0 4,0L8,0L8,2L4,2L4,6L2,6ZM11,16.9C9.467,16.667 8.158,16.008 7.075,14.925C5.992,13.842 5.333,12.533 5.1,11L7.1,11C7.3,11.983 7.754,12.829 8.463,13.538C9.171,14.246 10.017,14.7 11,14.9L11,16.9ZM5.1,9C5.333,7.467 5.992,6.154 7.075,5.063C8.158,3.971 9.467,3.317 11,3.1L11,5.1C10.017,5.3 9.171,5.754 8.463,6.462C7.754,7.171 7.3,8.017 7.1,9L5.1,9ZM12,12C11.45,12 10.979,11.804 10.588,11.413C10.196,11.021 10,10.55 10,10C10,9.433 10.196,8.958 10.588,8.575C10.979,8.192 11.45,8 12,8C12.567,8 13.042,8.192 13.425,8.575C13.808,8.958 14,9.433 14,10C14,10.55 13.808,11.021 13.425,11.413C13.042,11.804 12.567,12 12,12ZM16.9,9C16.7,8.017 16.246,7.171 15.538,6.462C14.829,5.754 13.983,5.3 13,5.1L13,3.1C14.533,3.333 15.846,3.992 16.938,5.075C18.029,6.158 18.683,7.467 18.9,9L16.9,9ZM20,6L20,2L16,2L16,0L20,0C20.55,0 21.021,0.196 21.413,0.587C21.804,0.979 22,1.45 22,2L22,6L20,6Z" style="fill-rule:nonzero;"/>
            </g>
            <g id="search_activity_24dp_5F6368_FILL0_wght400_GRAD0_opsz24.svg" transform="matrix(1.03822,0,0,1.03822,35.4587,34.4286)">
                <g transform="matrix(1,0,0,1,-12,-12)">
                    <path d="M15.25,5C14.9,5 14.604,4.879 14.363,4.637C14.121,4.396 14,4.1 14,3.75C14,3.4 14.121,3.104 14.363,2.862C14.604,2.621 14.9,2.5 15.25,2.5C15.6,2.5 15.896,2.621 16.137,2.862C16.379,3.104 16.5,3.4 16.5,3.75C16.5,4.1 16.379,4.396 16.137,4.637C15.896,4.879 15.6,5 15.25,5ZM15.25,21.5C14.9,21.5 14.604,21.379 14.363,21.138C14.121,20.896 14,20.6 14,20.25C14,19.9 14.121,19.604 14.363,19.363C14.604,19.121 14.9,19 15.25,19C15.6,19 15.896,19.121 16.137,19.363C16.379,19.604 16.5,19.9 16.5,20.25C16.5,20.6 16.379,20.896 16.137,21.138C15.896,21.379 15.6,21.5 15.25,21.5ZM19.25,8.5C18.9,8.5 18.604,8.379 18.363,8.137C18.121,7.896 18,7.6 18,7.25C18,6.9 18.121,6.604 18.363,6.363C18.604,6.121 18.9,6 19.25,6C19.6,6 19.896,6.121 20.138,6.363C20.379,6.604 20.5,6.9 20.5,7.25C20.5,7.6 20.379,7.896 20.138,8.137C19.896,8.379 19.6,8.5 19.25,8.5ZM19.25,18C18.9,18 18.604,17.879 18.363,17.638C18.121,17.396 18,17.1 18,16.75C18,16.4 18.121,16.104 18.363,15.862C18.604,15.621 18.9,15.5 19.25,15.5C19.6,15.5 19.896,15.621 20.138,15.862C20.379,16.104 20.5,16.4 20.5,16.75C20.5,17.1 20.379,17.396 20.138,17.638C19.896,17.879 19.6,18 19.25,18ZM20.75,13.25C20.4,13.25 20.104,13.129 19.863,12.887C19.621,12.646 19.5,12.35 19.5,12C19.5,11.65 19.621,11.354 19.863,11.112C20.104,10.871 20.4,10.75 20.75,10.75C21.1,10.75 21.396,10.871 21.638,11.112C21.879,11.354 22,11.65 22,12C22,12.35 21.879,12.646 21.638,12.887C21.396,13.129 21.1,13.25 20.75,13.25ZM12,22C10.617,22 9.317,21.738 8.1,21.212C6.883,20.688 5.825,19.975 4.925,19.075C4.025,18.175 3.313,17.117 2.788,15.9C2.263,14.683 2,13.383 2,12C2,10.617 2.263,9.317 2.788,8.1C3.313,6.883 4.025,5.825 4.925,4.925C5.825,4.025 6.883,3.313 8.1,2.787C9.317,2.262 10.617,2 12,2L12,4C9.767,4 7.875,4.775 6.325,6.325C4.775,7.875 4,9.767 4,12C4,14.233 4.775,16.125 6.325,17.675C7.875,19.225 9.767,20 12,20L12,22ZM15.3,16.7L11,12.4L11,7L13,7L13,11.6L16.7,15.3L15.3,16.7Z" style="fill-rule:nonzero;"/>
                </g>
            </g>
        </g>
        <g transform="matrix(2.27442,0,0,2.27442,-61.1756,35.7712)">
            <g transform="matrix(30.6667,0,0,30.6667,74.776,10.7691)">
                <path d="M0.41,-0.1L0.41,-0.778L0.163,-0.778C0.137,-0.778 0.113,-0.764 0.113,-0.728C0.113,-0.692 0.137,-0.678 0.163,-0.678L0.31,-0.678L0.31,-0.1L0.163,-0.1C0.137,-0.1 0.113,-0.086 0.113,-0.05C0.113,-0.014 0.137,-0 0.163,-0L0.557,-0C0.583,-0 0.607,-0.014 0.607,-0.05L0.607,-0.302C0.607,-0.331 0.594,-0.352 0.557,-0.352C0.52,-0.352 0.507,-0.331 0.507,-0.302L0.507,-0.1L0.41,-0.1Z" style="fill-rule:nonzero;"/>
            </g>
            <g transform="matrix(30.6667,0,0,30.6667,96.856,10.7691)">
                <path d="M0.213,-0.778C0.158,-0.778 0.113,-0.733 0.113,-0.678L0.113,-0.1C0.113,-0.044 0.156,-0 0.213,-0L0.507,-0C0.564,-0 0.607,-0.044 0.607,-0.1L0.607,-0.678C0.607,-0.733 0.562,-0.778 0.507,-0.778L0.213,-0.778ZM0.213,-0.1L0.213,-0.678L0.507,-0.678L0.507,-0.1L0.213,-0.1Z" style="fill-rule:nonzero;"/>
            </g>
            <g transform="matrix(30.6667,0,0,30.6667,118.936,10.7691)">
                <path d="M0.213,-0.778C0.158,-0.778 0.113,-0.733 0.113,-0.678L0.113,-0.1C0.113,-0.044 0.156,-0 0.213,-0L0.507,-0C0.564,-0 0.607,-0.044 0.607,-0.1L0.607,-0.678C0.607,-0.733 0.562,-0.778 0.507,-0.778L0.213,-0.778ZM0.213,-0.1L0.213,-0.678L0.507,-0.678L0.507,-0.1L0.213,-0.1Z" style="fill-rule:nonzero;"/>
            </g>
            <g transform="matrix(30.6667,0,0,30.6667,141.016,10.7691)">
                <path d="M0.213,-0.778C0.158,-0.778 0.113,-0.733 0.113,-0.678L0.113,-0.1C0.113,-0.044 0.156,-0 0.213,-0L0.507,-0C0.564,-0 0.607,-0.044 0.607,-0.1L0.607,-0.678C0.607,-0.733 0.562,-0.778 0.507,-0.778L0.213,-0.778ZM0.213,-0.1L0.213,-0.678L0.507,-0.678L0.507,-0.1L0.213,-0.1Z" style="fill-rule:nonzero;"/>
            </g>
        </g>
    </g>
</svg>
