<?xml version="1.0" encoding="UTF-8" standalone="no"?>
<!DOCTYPE svg PUBLIC "-//W3C//DTD SVG 1.1//EN" "http://www.w3.org/Graphics/SVG/1.1/DTD/svg11.dtd">
<svg width="100%" height="100%" viewBox="0 0 475 168" version="1.1" xmlns="http://www.w3.org/2000/svg" xmlns:xlink="http://www.w3.org/1999/xlink" xml:space="preserve" xmlns:serif="http://www.serif.com/" style="fill-rule:evenodd;clip-rule:evenodd;stroke-linejoin:round;stroke-miterlimit:2;">
    <g transform="matrix(1,0,0,1,-38.225,-52.7268)">
        <g transform="matrix(1.19092,0,0,1.19092,-8.51824,-4.03416)">
            <g transform="matrix(-1.03072,0,0,1.03072,437.911,47.6615)">
                <path d="M54.723,136.806C38.876,132.816 25.794,123.724 15.476,109.53C5.159,95.337 0,79.575 0,62.247L0,20.521L54.723,0L109.445,20.521L109.445,59.339C107.279,58.427 105.056,57.601 102.776,56.86C100.496,56.119 98.159,55.577 95.765,55.235L95.765,30.097L54.723,14.706L13.681,30.097L13.681,62.247C13.681,67.605 14.393,72.963 15.818,78.321C17.243,83.68 19.238,88.781 21.804,93.627C24.369,98.472 27.475,102.946 31.123,107.051C34.772,111.155 38.819,114.575 43.265,117.311C44.519,120.959 46.172,124.436 48.224,127.743C50.276,131.049 52.613,134.013 55.236,136.635C55.122,136.635 55.036,136.664 54.979,136.721C54.922,136.778 54.837,136.806 54.723,136.806Z" style="fill-rule:nonzero;"/>
            </g>
        </g>
        <g transform="matrix(1.19092,0,0,1.19092,-8.51824,-4.03416)">
            <g transform="matrix(-1.03072,0,0,1.03072,437.911,118.165)">
                <path d="M88.924,68.403L78.197,60.008L64.75,58.376L63.118,44.929L54.723,34.202L63.118,23.475L64.75,10.027L78.197,8.395L88.924,0L99.651,8.395L113.098,10.027L114.731,23.475L123.126,34.202L114.731,44.929L113.098,58.376L99.651,60.008L88.924,68.403ZM88.924,60.475L97.164,54.101L107.58,52.779L108.823,42.441L115.197,34.202L108.823,25.962L107.502,15.624L97.164,14.303L88.924,7.929L80.685,14.303L70.269,15.624L69.025,25.962L62.651,34.202L69.025,42.441L70.347,52.857L80.685,54.101L88.924,60.475Z" style="fill-rule:nonzero;"/>
            </g>
        </g>
        <g transform="matrix(1.19092,0,0,1.19092,-8.51824,-4.03416)">
            <g transform="matrix(0.839687,0,0,0.839687,-270.489,-19.4855)">
                <g transform="matrix(82,0,0,82,368.792,163.241)">
                    <path d="M0.001,-0L0.137,-0.644L0.272,-0.644L0.136,-0L0.001,-0Z" style="fill-rule:nonzero;"/>
                </g>
                <g transform="matrix(82,0,0,82,386.996,163.241)">
                    <path d="M0.001,-0L0.101,-0.474L0.226,-0.474L0.222,-0.429C0.245,-0.444 0.272,-0.456 0.304,-0.468C0.335,-0.478 0.367,-0.484 0.4,-0.484C0.52,-0.484 0.567,-0.424 0.542,-0.304L0.478,-0L0.343,-0L0.406,-0.297C0.413,-0.329 0.411,-0.352 0.402,-0.365C0.393,-0.378 0.371,-0.385 0.338,-0.385C0.313,-0.385 0.29,-0.38 0.267,-0.371C0.244,-0.362 0.224,-0.35 0.207,-0.336L0.136,-0L0.001,-0Z" style="fill-rule:nonzero;"/>
                </g>
                <g transform="matrix(82,0,0,82,431.604,163.241)">
                    <path d="M0.239,0.01C0.188,0.01 0.145,0.001 0.11,-0.018C0.074,-0.037 0.049,-0.064 0.035,-0.101C0.02,-0.138 0.019,-0.183 0.03,-0.237C0.047,-0.32 0.083,-0.382 0.137,-0.423C0.191,-0.464 0.261,-0.484 0.348,-0.484C0.381,-0.484 0.409,-0.482 0.433,-0.477C0.456,-0.472 0.477,-0.465 0.498,-0.454L0.477,-0.357C0.462,-0.365 0.444,-0.371 0.424,-0.376C0.403,-0.381 0.379,-0.383 0.354,-0.383C0.303,-0.383 0.262,-0.373 0.231,-0.352C0.2,-0.331 0.178,-0.292 0.167,-0.237C0.156,-0.186 0.159,-0.149 0.176,-0.126C0.192,-0.103 0.23,-0.091 0.291,-0.091C0.314,-0.091 0.338,-0.093 0.361,-0.098C0.384,-0.103 0.407,-0.11 0.428,-0.119L0.407,-0.019C0.358,0 0.302,0.01 0.239,0.01Z" style="fill-rule:nonzero;"/>
                </g>
                <g transform="matrix(82,0,0,82,469.324,163.241)">
                    <path d="M0.129,0.01C0.041,0.01 0.007,-0.035 0.026,-0.124L0.143,-0.674L0.278,-0.674L0.163,-0.135C0.16,-0.118 0.16,-0.107 0.165,-0.101C0.169,-0.094 0.178,-0.091 0.193,-0.091C0.21,-0.091 0.226,-0.093 0.241,-0.098L0.222,-0.005C0.194,0.005 0.163,0.01 0.129,0.01Z" style="fill-rule:nonzero;"/>
                </g>
                <g transform="matrix(82,0,0,82,489.414,163.241)">
                    <path d="M0.173,0.01C0.118,0.01 0.078,-0.006 0.053,-0.038C0.027,-0.069 0.02,-0.116 0.033,-0.177L0.096,-0.474L0.231,-0.474L0.169,-0.18C0.162,-0.148 0.164,-0.125 0.175,-0.111C0.186,-0.096 0.208,-0.089 0.241,-0.089C0.264,-0.089 0.287,-0.094 0.309,-0.103C0.331,-0.112 0.35,-0.124 0.367,-0.138L0.438,-0.474L0.573,-0.474L0.473,-0L0.348,-0L0.352,-0.045C0.329,-0.029 0.302,-0.016 0.273,-0.006C0.244,0.005 0.21,0.01 0.173,0.01Z" style="fill-rule:nonzero;"/>
                </g>
                <g transform="matrix(82,0,0,82,535.334,163.241)">
                    <path d="M0.332,0.01C0.27,0.01 0.216,0.001 0.17,-0.019C0.123,-0.038 0.087,-0.066 0.061,-0.103C0.035,-0.139 0.022,-0.185 0.022,-0.239C0.022,-0.264 0.025,-0.291 0.031,-0.32C0.054,-0.429 0.101,-0.512 0.17,-0.569C0.239,-0.626 0.34,-0.654 0.472,-0.654C0.511,-0.654 0.547,-0.651 0.578,-0.645C0.608,-0.639 0.637,-0.63 0.664,-0.619L0.624,-0.432C0.597,-0.446 0.571,-0.456 0.545,-0.463C0.518,-0.469 0.486,-0.472 0.448,-0.472C0.394,-0.472 0.35,-0.46 0.317,-0.438C0.284,-0.415 0.261,-0.375 0.25,-0.32C0.248,-0.309 0.246,-0.299 0.245,-0.29C0.244,-0.281 0.243,-0.272 0.243,-0.264C0.243,-0.23 0.254,-0.206 0.277,-0.193C0.299,-0.179 0.335,-0.172 0.386,-0.172C0.419,-0.172 0.451,-0.175 0.483,-0.182C0.514,-0.188 0.546,-0.198 0.579,-0.211L0.539,-0.023C0.508,-0.012 0.475,-0.004 0.443,0.002C0.409,0.007 0.373,0.01 0.332,0.01Z" style="fill-rule:nonzero;"/>
                </g>
                <g transform="matrix(82,0,0,82,583.14,163.241)">
                    <path d="M0.249,0.01C0.202,0.01 0.161,0.003 0.125,-0.012C0.088,-0.026 0.06,-0.047 0.039,-0.075C0.017,-0.103 0.007,-0.138 0.007,-0.179C0.007,-0.196 0.009,-0.215 0.013,-0.235C0.024,-0.286 0.042,-0.329 0.066,-0.367C0.089,-0.403 0.122,-0.432 0.165,-0.453C0.207,-0.474 0.261,-0.484 0.328,-0.484C0.394,-0.484 0.446,-0.467 0.485,-0.435C0.523,-0.401 0.542,-0.358 0.542,-0.305C0.542,-0.298 0.542,-0.29 0.541,-0.282C0.54,-0.274 0.538,-0.266 0.537,-0.258L0.52,-0.176L0.198,-0.176C0.201,-0.157 0.213,-0.143 0.234,-0.134C0.255,-0.125 0.287,-0.121 0.332,-0.121C0.361,-0.121 0.39,-0.124 0.419,-0.129C0.448,-0.134 0.471,-0.139 0.489,-0.146L0.463,-0.024C0.411,-0.001 0.34,0.01 0.249,0.01ZM0.212,-0.288L0.37,-0.288L0.372,-0.301C0.374,-0.315 0.37,-0.327 0.36,-0.337C0.349,-0.347 0.332,-0.352 0.307,-0.352C0.278,-0.352 0.256,-0.346 0.241,-0.335C0.226,-0.324 0.216,-0.308 0.212,-0.288Z" style="fill-rule:nonzero;"/>
                </g>
                <g transform="matrix(82,0,0,82,626.764,163.241)">
                    <path d="M-0.016,-0L0.084,-0.474L0.293,-0.474L0.291,-0.441C0.312,-0.452 0.337,-0.461 0.369,-0.47C0.4,-0.479 0.43,-0.483 0.461,-0.484L0.428,-0.325C0.411,-0.324 0.392,-0.323 0.371,-0.32C0.35,-0.317 0.33,-0.314 0.311,-0.311C0.292,-0.307 0.275,-0.302 0.262,-0.297L0.199,-0L-0.016,-0Z" style="fill-rule:nonzero;"/>
                </g>
                <g transform="matrix(82,0,0,82,659.4,163.241)">
                    <path d="M0.194,0.01C0.141,0.01 0.102,-0.003 0.076,-0.028C0.049,-0.053 0.036,-0.086 0.036,-0.127C0.036,-0.142 0.038,-0.159 0.042,-0.177L0.072,-0.317L0.013,-0.317L0.046,-0.474L0.105,-0.474L0.125,-0.569L0.35,-0.616L0.32,-0.474L0.423,-0.474L0.384,-0.317L0.287,-0.317L0.26,-0.19C0.259,-0.187 0.259,-0.184 0.259,-0.181C0.258,-0.178 0.258,-0.175 0.258,-0.172C0.258,-0.152 0.273,-0.142 0.304,-0.142C0.323,-0.142 0.344,-0.145 0.366,-0.152L0.336,-0.014C0.315,-0.006 0.294,0 0.271,0.004C0.248,0.008 0.222,0.01 0.194,0.01Z" style="fill-rule:nonzero;"/>
                </g>
            </g>
        </g>
    </g>
</svg>
