<?xml version="1.0" encoding="UTF-8" standalone="no"?>
<!DOCTYPE svg PUBLIC "-//W3C//DTD SVG 1.1//EN" "http://www.w3.org/Graphics/SVG/1.1/DTD/svg11.dtd">
<svg width="100%" height="100%" viewBox="0 0 120 40" version="1.1" xmlns="http://www.w3.org/2000/svg" xmlns:xlink="http://www.w3.org/1999/xlink" xml:space="preserve" xmlns:serif="http://www.serif.com/" style="fill-rule:evenodd;clip-rule:evenodd;stroke-linejoin:round;stroke-miterlimit:2;">
    <g transform="matrix(1.67772,0,0,1.67772,-301.087,-218.865)">
        <g transform="matrix(15,0,0,15,180.299,143.117)">
            <path d="M0.184,0.01C0.119,0.01 0.071,-0.009 0.041,-0.047C0.011,-0.085 0.004,-0.142 0.02,-0.218C0.031,-0.271 0.05,-0.317 0.075,-0.357C0.1,-0.396 0.133,-0.427 0.173,-0.45C0.212,-0.473 0.258,-0.484 0.311,-0.484C0.338,-0.484 0.36,-0.481 0.377,-0.475C0.394,-0.468 0.409,-0.459 0.424,-0.447L0.429,-0.474L0.59,-0.474L0.49,-0L0.351,-0L0.35,-0.04C0.303,-0.007 0.248,0.01 0.184,0.01ZM0.261,-0.107C0.296,-0.107 0.329,-0.119 0.359,-0.143L0.399,-0.333C0.386,-0.355 0.362,-0.366 0.328,-0.366C0.29,-0.366 0.259,-0.354 0.236,-0.331C0.213,-0.307 0.195,-0.269 0.184,-0.218C0.175,-0.176 0.177,-0.147 0.189,-0.131C0.2,-0.115 0.224,-0.107 0.261,-0.107Z" style="fill:rgb(109,109,109);fill-rule:nonzero;"/>
        </g>
        <g transform="matrix(15,0,0,15,189.269,143.117)">
            <path d="M0.137,0.01C0.089,0.01 0.055,-0.001 0.036,-0.024C0.016,-0.047 0.011,-0.083 0.022,-0.133L0.137,-0.674L0.298,-0.674L0.186,-0.149C0.183,-0.134 0.185,-0.123 0.19,-0.118C0.195,-0.112 0.203,-0.109 0.216,-0.109C0.234,-0.109 0.25,-0.111 0.265,-0.116L0.242,-0.007C0.225,-0.001 0.209,0.003 0.194,0.006C0.178,0.009 0.159,0.01 0.137,0.01Z" style="fill:rgb(109,109,109);fill-rule:nonzero;"/>
        </g>
        <g transform="matrix(15,0,0,15,193.499,143.117)">
            <path d="M0.187,0.01C0.133,0.01 0.094,-0.005 0.071,-0.035C0.048,-0.065 0.041,-0.106 0.052,-0.159L0.093,-0.352L0.029,-0.352L0.055,-0.474L0.119,-0.474L0.14,-0.573L0.31,-0.616L0.28,-0.474L0.395,-0.474L0.362,-0.352L0.254,-0.352L0.216,-0.17C0.211,-0.147 0.212,-0.132 0.219,-0.123C0.225,-0.114 0.241,-0.109 0.268,-0.109C0.289,-0.109 0.31,-0.112 0.332,-0.119L0.309,-0.01C0.275,0.003 0.234,0.01 0.187,0.01Z" style="fill:rgb(109,109,109);fill-rule:nonzero;"/>
        </g>
    </g>
    <g transform="matrix(1.67772,0,0,1.67772,-320.11,-231.505)">
        <g transform="matrix(20.8333,0,0,20.8333,210.971,155.038)">
            <path d="M0.197,0.01C0.154,0.01 0.115,0.007 0.08,0.001C0.044,-0.006 0.014,-0.015 -0.01,-0.027L0.019,-0.164C0.046,-0.151 0.077,-0.141 0.111,-0.133C0.144,-0.125 0.177,-0.121 0.209,-0.121C0.249,-0.121 0.28,-0.125 0.301,-0.132C0.322,-0.139 0.336,-0.155 0.341,-0.18C0.344,-0.197 0.342,-0.21 0.335,-0.22C0.328,-0.23 0.314,-0.239 0.294,-0.247C0.273,-0.254 0.246,-0.263 0.211,-0.274C0.149,-0.293 0.108,-0.317 0.088,-0.346C0.067,-0.374 0.062,-0.413 0.073,-0.464C0.086,-0.525 0.119,-0.572 0.17,-0.605C0.221,-0.638 0.289,-0.654 0.375,-0.654C0.412,-0.654 0.448,-0.651 0.482,-0.646C0.516,-0.64 0.543,-0.633 0.564,-0.626L0.534,-0.488C0.507,-0.499 0.48,-0.508 0.453,-0.513C0.425,-0.518 0.397,-0.521 0.37,-0.521C0.334,-0.521 0.304,-0.518 0.281,-0.511C0.257,-0.504 0.242,-0.489 0.237,-0.465C0.234,-0.451 0.236,-0.44 0.242,-0.432C0.248,-0.423 0.26,-0.416 0.279,-0.409C0.297,-0.402 0.322,-0.394 0.354,-0.385C0.404,-0.371 0.441,-0.354 0.465,-0.335C0.488,-0.315 0.503,-0.292 0.508,-0.267C0.513,-0.241 0.513,-0.212 0.506,-0.18C0.494,-0.123 0.462,-0.078 0.411,-0.043C0.359,-0.008 0.288,0.01 0.197,0.01Z" style="fill:rgb(109,109,109);fill-rule:nonzero;"/>
        </g>
        <g transform="matrix(20.8333,0,0,20.8333,222.242,155.038)">
            <path d="M0.187,0.01C0.133,0.01 0.094,-0.005 0.071,-0.035C0.048,-0.065 0.041,-0.106 0.052,-0.159L0.093,-0.352L0.029,-0.352L0.055,-0.474L0.119,-0.474L0.14,-0.573L0.31,-0.616L0.28,-0.474L0.395,-0.474L0.362,-0.352L0.254,-0.352L0.216,-0.17C0.211,-0.147 0.212,-0.132 0.219,-0.123C0.225,-0.114 0.241,-0.109 0.268,-0.109C0.289,-0.109 0.31,-0.112 0.332,-0.119L0.309,-0.01C0.275,0.003 0.234,0.01 0.187,0.01Z" style="fill:rgb(109,109,109);fill-rule:nonzero;"/>
        </g>
        <g transform="matrix(20.8333,0,0,20.8333,230.054,155.038)">
            <path d="M0.184,0.01C0.119,0.01 0.071,-0.009 0.041,-0.047C0.011,-0.085 0.004,-0.142 0.02,-0.218C0.031,-0.271 0.05,-0.317 0.075,-0.357C0.1,-0.396 0.133,-0.427 0.173,-0.45C0.212,-0.473 0.258,-0.484 0.311,-0.484C0.338,-0.484 0.36,-0.481 0.377,-0.475C0.394,-0.468 0.409,-0.459 0.424,-0.447L0.429,-0.474L0.59,-0.474L0.49,-0L0.351,-0L0.35,-0.04C0.303,-0.007 0.248,0.01 0.184,0.01ZM0.261,-0.107C0.296,-0.107 0.329,-0.119 0.359,-0.143L0.399,-0.333C0.386,-0.355 0.362,-0.366 0.328,-0.366C0.29,-0.366 0.259,-0.354 0.236,-0.331C0.213,-0.307 0.195,-0.269 0.184,-0.218C0.175,-0.176 0.177,-0.147 0.189,-0.131C0.2,-0.115 0.224,-0.107 0.261,-0.107Z" style="fill:rgb(109,109,109);fill-rule:nonzero;"/>
        </g>
        <g transform="matrix(20.8333,0,0,20.8333,242.513,155.038)">
            <path d="M-0.005,-0L0.095,-0.474L0.248,-0.474L0.244,-0.43C0.267,-0.443 0.295,-0.454 0.328,-0.465C0.361,-0.475 0.393,-0.481 0.424,-0.484L0.399,-0.363C0.381,-0.361 0.361,-0.358 0.339,-0.354C0.317,-0.349 0.296,-0.344 0.276,-0.338C0.255,-0.332 0.238,-0.326 0.223,-0.319L0.156,-0L-0.005,-0Z" style="fill:rgb(109,109,109);fill-rule:nonzero;"/>
        </g>
    </g>
    <g transform="matrix(0.0506916,0,0,0.0506916,102.343,0.641533)">
        <path d="M96.031,162.18L58.009,30.838L139.119,95.53L254.859,-0L220.478,132.684L314.019,197.746L203.719,232.034L191.824,388.714L106.654,251.493L-0,298.139L96.031,162.18Z" style="fill:rgb(109,109,109);"/>
    </g>
    <g transform="matrix(-1.31151,0,0,1.31151,45.0502,22.3416)">
        <path d="M15,6C15.283,6 15.521,5.904 15.713,5.712C15.904,5.521 16,5.283 16,5C16,4.717 15.904,4.479 15.713,4.287C15.521,4.096 15.283,4 15,4C14.717,4 14.479,4.096 14.288,4.287C14.096,4.479 14,4.717 14,5C14,5.283 14.096,5.521 14.288,5.712C14.479,5.904 14.717,6 15,6ZM16.55,12.55L11.45,7.45C11.317,7.317 11.208,7.154 11.125,6.962C11.042,6.771 11,6.575 11,6.375L11,2.5C11,2.083 11.146,1.729 11.438,1.438C11.729,1.146 12.083,1 12.5,1L16.375,1C16.575,1 16.771,1.042 16.963,1.125C17.154,1.208 17.317,1.317 17.45,1.45L22.55,6.55C22.833,6.833 22.975,7.188 22.975,7.613C22.975,8.037 22.833,8.392 22.55,8.675L18.675,12.55C18.392,12.833 18.038,12.975 17.613,12.975C17.188,12.975 16.833,12.833 16.55,12.55ZM17.625,10.8L20.8,7.625L16.175,3L13,3L13,6.175L17.625,10.8Z" style="fill:rgb(109,109,109);fill-rule:nonzero;"/>
    </g>
</svg>
