<svg width="100%" height="100%" viewBox="0 0 24 24" version="1.1" xmlns="http://www.w3.org/2000/svg" xmlns:xlink="http://www.w3.org/1999/xlink" xml:space="preserve" xmlns:serif="http://www.serif.com/" style="fill-rule:evenodd;clip-rule:evenodd;stroke-linejoin:round;stroke-miterlimit:2;">
    <g transform="matrix(1.2833,0,0,1.2833,-3.27737,-3.22384)">
        <path d="M12,19C13.1,19 14.042,18.608 14.825,17.825C15.608,17.042 16,16.1 16,15L16,11C16,9.9 15.608,8.958 14.825,8.175C14.042,7.392 13.1,7 12,7C10.9,7 9.958,7.392 9.175,8.175C8.392,8.958 8,9.9 8,11L8,15C8,16.1 8.392,17.042 9.175,17.825C9.958,18.608 10.9,19 12,19ZM10,16L14,16L14,14L10,14L10,16ZM10,12L14,12L14,10L10,10L10,12ZM12,21C10.917,21 9.913,20.733 8.988,20.2C8.063,19.667 7.333,18.933 6.8,18L4,18L4,16L6.1,16C6.05,15.667 6.021,15.333 6.013,15C6.004,14.667 6,14.333 6,14L4,14L4,12L6,12C6,11.667 6.004,11.333 6.013,11C6.021,10.667 6.05,10.333 6.1,10L4,10L4,8L6.8,8C7.033,7.617 7.296,7.258 7.588,6.925C7.879,6.592 8.217,6.3 8.6,6.05L7,4.4L8.4,3L10.55,5.15C11.017,5 11.492,4.925 11.975,4.925C12.458,4.925 12.933,5 13.4,5.15L15.6,3L17,4.4L15.35,6.05C15.733,6.3 16.079,6.587 16.388,6.912C16.696,7.238 16.967,7.6 17.2,8L20,8L20,10L17.9,10C17.95,10.333 17.979,10.667 17.988,11C17.996,11.333 18,11.667 18,12L20,12L20,14L18,14C18,14.333 17.996,14.667 17.988,15C17.979,15.333 17.95,15.667 17.9,16L20,16L20,18L17.2,18C16.667,18.933 15.938,19.667 15.013,20.2C14.088,20.733 13.083,21 12,21Z" fill="currentColor"/>
    </g>
</svg>
