<?xml version="1.0" encoding="UTF-8" standalone="no"?>
<!DOCTYPE svg PUBLIC "-//W3C//DTD SVG 1.1//EN" "http://www.w3.org/Graphics/SVG/1.1/DTD/svg11.dtd">
<svg width="100%" height="100%" viewBox="0 0 24 24" version="1.1" xmlns="http://www.w3.org/2000/svg" xmlns:xlink="http://www.w3.org/1999/xlink" xml:space="preserve" xmlns:serif="http://www.serif.com/" fill="currentColor">
    <g transform="matrix(-1.83773,0,0,1.83773,43.2697,-0.82018)">
        <path d="M15,6C15.283,6 15.521,5.904 15.713,5.712C15.904,5.521 16,5.283 16,5C16,4.717 15.904,4.479 15.713,4.287C15.521,4.096 15.283,4 15,4C14.717,4 14.479,4.096 14.288,4.287C14.096,4.479 14,4.717 14,5C14,5.283 14.096,5.521 14.288,5.712C14.479,5.904 14.717,6 15,6ZM16.55,12.55L11.45,7.45C11.317,7.317 11.208,7.154 11.125,6.962C11.042,6.771 11,6.575 11,6.375L11,2.5C11,2.083 11.146,1.729 11.438,1.438C11.729,1.146 12.083,1 12.5,1L16.375,1C16.575,1 16.771,1.042 16.963,1.125C17.154,1.208 17.317,1.317 17.45,1.45L22.55,6.55C22.833,6.833 22.975,7.188 22.975,7.613C22.975,8.037 22.833,8.392 22.55,8.675L18.675,12.55C18.392,12.833 18.038,12.975 17.613,12.975C17.188,12.975 16.833,12.833 16.55,12.55ZM17.625,10.8L20.8,7.625L16.175,3L13,3L13,6.175L17.625,10.8Z" fill="currentColor"/>
    </g>
</svg>
