<svg width="100%" height="100%" viewBox="0 0 24 24" version="1.1" xmlns="http://www.w3.org/2000/svg" xmlns:xlink="http://www.w3.org/1999/xlink" xml:space="preserve" xmlns:serif="http://www.serif.com/" fill="currentColor">
    <g transform="matrix(1.33986,0,0,1.33986,-4.13608,-631.014)">
        <path d="M12,488C9.767,488 7.875,487.225 6.325,485.675C4.775,484.125 4,482.233 4,480C4,477.767 4.775,475.875 6.325,474.325C7.875,472.775 9.767,472 12,472C13.15,472 14.25,472.238 15.3,472.712C16.35,473.188 17.25,473.867 18,474.75L18,472L20,472L20,479L13,479L13,477L17.2,477C16.667,476.067 15.938,475.333 15.013,474.8C14.088,474.267 13.083,474 12,474C10.333,474 8.917,474.583 7.75,475.75C6.583,476.917 6,478.333 6,480C6,481.667 6.583,483.083 7.75,484.25C8.917,485.417 10.333,486 12,486C13.283,486 14.442,485.633 15.475,484.9C16.508,484.167 17.233,483.2 17.65,482L19.75,482C19.283,483.767 18.333,485.208 16.9,486.325C15.467,487.442 13.833,488 12,488Z" fill="currentColor"/>
    </g>
</svg>
