<svg width="100%" height="100%" viewBox="0 0 800 800" version="1.1" xmlns="http://www.w3.org/2000/svg" xmlns:xlink="http://www.w3.org/1999/xlink" xml:space="preserve" xmlns:serif="http://www.serif.com/" fill="currentColor">
    <g transform="matrix(1.31219,0,0,1.31219,-110.951,-140.901)">
        <path d="M149.95,125L125.275,125L125.275,700L625.275,700L625.275,675.925L150.375,674.7L149.95,125ZM200.275,625L325.275,625L325.275,353.125L200.275,478.125L200.275,625ZM350.275,625L475.275,625L475.275,378.125L425.275,428.125L350.275,353.125L350.275,625ZM500.275,625L625.275,625L625.275,245.325L500.275,370.325L500.275,625ZM334.675,276.675L425.175,366.675L603.875,188.875L649.725,234.975L648.625,125L538.25,125.575L581.175,168.625L425.125,325.125L332.9,232.55L192.325,372.65L215.8,395.45L334.675,276.675Z" style="fill-rule:nonzero;"/>
    </g>
</svg>
