<svg xmlns="http://www.w3.org/2000/svg" viewBox="0 0 448 512"><path d="M0 448c0 17.674 14.326 32 32 32h384c17.674 0 32-14.326 32-32s-14.326-32-32-32H32c-17.674 0-32 14.326-32 32Zm448-256c0-17.674-14.326-32-32-32H32c-17.674 0-32 14.326-32 32s14.326 32 32 32h384c17.674 0 32-14.326 32-32Zm0-128c0-17.674-14.326-32-32-32H192c-17.674 0-32 14.326-32 32s14.326 32 32 32h224c17.674 0 32-14.326 32-32Zm0 256c0-17.674-14.326-32-32-32H192c-17.674 0-32 14.326-32 32s14.326 32 32 32h224c17.674 0 32-14.326 32-32Z"/></svg>