<?xml version="1.0" encoding="utf-8"?>
<!-- Generator: Adobe Illustrator 27.9.0, SVG Export Plug-In . SVG Version: 6.00 Build 0)  -->
<svg version="1.1" id="b" xmlns="http://www.w3.org/2000/svg" xmlns:xlink="http://www.w3.org/1999/xlink" x="0px" y="0px"
	 viewBox="0 0 448 512" style="enable-background:new 0 0 448 512;" xml:space="preserve">
<path d="M344.2,283.9c5.9,5.8,8.8,13.5,8.8,21.2c0,7.7-2.9,15.4-8.8,21.2l-99,99c-5.9,5.9-13.5,8.8-21.2,8.8s-15.4-2.9-21.2-8.8
	l-99-99c-11.7-11.7-11.7-30.7,0-42.4c5.8-5.9,13.5-8.8,21.2-8.8s15.4,2.9,21.2,8.8l77.8,77.8l77.8-77.8
	C313.5,272.1,332.5,272.1,344.2,283.9L344.2,283.9z"/>
<path d="M224,278L224,278c-16.6,0-30-13.4-30-30V108c0-16.6,13.4-30,30-30h0c16.6,0,30,13.4,30,30v140C254,264.5,240.6,278,224,278z
	"/>
</svg>
