<?xml version="1.0" encoding="utf-8"?>
<!-- Generator: Adobe Illustrator 27.8.1, SVG Export Plug-In . SVG Version: 6.00 Build 0)  -->
<svg version="1.1" id="Layer_1" xmlns="http://www.w3.org/2000/svg" xmlns:xlink="http://www.w3.org/1999/xlink" x="0px" y="0px"
	 viewBox="0 0 448 512" style="enable-background:new 0 0 448 512;" xml:space="preserve">
<path d="M201.4,9.4c12.5-12.5,32.8-12.5,45.3,0l128,128c12.5,12.5,12.5,32.8,0,45.3s-32.8,12.5-45.3,0L256,109.3V288
	c0,17.7-14.3,32-32,32s-32-14.3-32-32V109.3l-73.4,73.4c-12.5,12.5-32.8,12.5-45.3,0s-12.5-32.8,0-45.3L201.4,9.4L201.4,9.4z"/>
<path d="M224,354c-43.6,0-79,35.4-79,79s35.4,79,79,79s79-35.4,79-79S267.6,354,224,354z M224,465c-17.7,0-32-14.3-32-32
	s14.3-32,32-32s32,14.3,32,32S241.7,465,224,465z"/>
</svg>
