<svg xmlns="http://www.w3.org/2000/svg"  xmlns:xlink="http://www.w3.org/1999/xlink"  class="icon"><path d="m21.2 10.5c-0.5-0.5-1-0.9-1.6-1.3-0.1 0-0.1-0.1-0.1-0.1-0.1-0.4-0.1-0.8-0.1-1.2v-2.5c0-0.6-0.5-1.1-1.1-1.1h-0.1-6.2c-0.2 0-0.4-0.1-0.6-0.1-0.7-0.2-1.4-0.4-2.2-0.6 0-0.1-0.2-0.1-0.4-0.2h-0.1v0.1c0.2 0.3 0.4 0.5 0.6 0.8l0.1 0.1h-0.1-3.2c-0.6 0-1 0.4-1.1 0.9v0.2 2.8c0 0.1 0 0.1-0.1 0.1s-0.2 0.1-0.3 0.1h0.3v0.1 1.1c0 0.1 0 0.1-0.1 0.1-0.2 0.1-0.3 0.2-0.5 0.3l-0.3 0.3c0.2 0.1 0.5 0.1 0.7 0.2 0.1 0 0.1 0 0.1 0.1v4 3.2c0 0.6 0.4 1 0.9 1.1h0.2 12.4c0.6 0 1.1-0.5 1.1-1.1v-1.9-2.3-0.1c0.3 0.1 0.5 0.2 0.7 0.4 0.3 0.3 0.5 0.7 0.8 1 0.1 0.2 0.3 0.3 0.4 0.5l0.1 0.1c0.2-0.5 0.5-1 0.7-1.4 0.1-0.2 0.2-0.5 0.2-0.7 0.1-0.3 0-0.6-0.1-0.9 0-0.9-0.4-1.5-1-2.1zm0.7 3.2l-0.3 1.2c0-0.1-0.1-0.1-0.1-0.2-0.2-0.4-0.5-0.7-0.7-1.1-0.2-0.3-0.6-0.5-0.9-0.7-0.7-0.4-1.4-0.7-2.2-0.9 0.5 0.3 0.9 0.5 1.4 0.8-0.3-0.1-0.5-0.1-0.8-0.2-0.4-0.1-0.3-0.1-1.2-0.3-1.7-0.5-2-0.2-2-0.2 1.6 0.2 2 0.5 2.8 0.9 0 0.1-0.1 0.2-0.1 0.3-0.1 0.2-0.1 0.3-0.2 0.5v0.3c0.3 0.9 0.7 1.8 1 2.6v0.2 1.5 0.1c-0.1 0.2-0.3 0.2-0.6 0.2h-8.2-3.9-0.2c-0.3-0.1-0.5-0.3-0.5-0.6v-0.4-0.1c0.3-0.7 0.6-1.3 0.9-2 0-0.1 0-0.1 0.1-0.2-0.2 0.4-0.6 0.8-0.9 1.1v-0.7c0.1-0.9 0.2-1.7 0.4-2.6-0.1 0.4-0.3 0.8-0.4 1.3v-0.1-2.4-0.1c0.2-0.4 0.4-0.8 0.5-1.2 0.1-0.1 0-0.2-0.1-0.2-0.2 0-0.4-0.1-0.6-0.1h-0.4s0.1 0 0.1-0.1c1-0.7 1.8-1.4 2.5-2.3 0 0 0.1-0.1 0.1-0.2s-0.1-0.1-0.2 0c-0.2 0.1-0.5 0.1-0.7 0.2-0.1 0-0.2 0-0.3 0.1l2.4-2.1-2.1-1.5c1.4 0.3 2.7 0.5 4.1 0.7-0.4-0.5-0.8-0.9-1.2-1.3h0.1c1.4 0.5 2.8 0.9 4.2 1.4 1.3 0.4 2.6 1 3.7 1.8 0.5 0.3 0.9 0.7 1.2 1.2 0.2 0.2 0.3 0.5 0.3 0.8v0.1l-0.3 0.3c-0.1 0.2-0.2 0.4-0.2 0.6 0 0.1 0 0.2-0.2 0.2h-0.3c-0.1 0-0.3-0.1-0.4-0.1h-0.1c0.3 0.2 0.6 0.4 0.9 0.4 0.2 0 0.3 0 0.4-0.1 0 0 0.1-0.1 0-0.1-0.1-0.2 0-0.3 0.1-0.4 0 0 0.1-0.1 0.1 0 0.6 0.4 1.1 0.8 1.6 1.3 0.3 0.3 0.5 0.6 0.7 0.9 0.7 0.3 0.8 0.9 0.7 1.5zm-7.9-4.3c-0.2 0-0.4-0.1-0.6-0.1h-0.1c-0.1 0.1-0.2 0.1-0.3 0.1s-0.2-0.1-0.2-0.2-0.1-0.1-0.2-0.2h-0.1-0.1c-0.2 0.2-0.3 0.5-0.2 0.8 0.1 0.4 0.5 0.7 1 0.7 0.1 0 0.3-0.1 0.4-0.1 0.4-0.2 0.6-0.6 0.6-1h-0.2z"></path></svg>