<?xml version="1.0" encoding="UTF-8"?><svg id="b" xmlns="http://www.w3.org/2000/svg" viewBox="0 0 512 512"><g id="c"><path d="m256,0c9.6,0,17.68,8.8,19.04,20.7l33.6,304.4,30.8-240.9c1.52-11.7,9.6-20.3,19.12-20.2,9.52.1,17.52,8.9,18.88,20.6l22.56,197.3,16.4-102.6c1.76-10.8,9.04-18.7,17.84-19.3s16.72,6.4,19.36,16.9l21.36,87.1h17.84c10.64,0,19.2,10.7,19.2,24s-8.56,24-19.2,24h-32c-8.4,0-15.84-6.9-18.32-16.9l-3.28-13.4-23.52,147c-1.84,11.5-10,19.6-19.36,19.3-9.36-.3-17.12-9-18.48-20.6l-20.48-179.1-31.2,243.5c-1.52,11.7-9.68,20.3-19.2,20.2-9.52-.1-17.52-8.9-18.8-20.7l-32.16-291.7-32.16,291.7c-1.28,11.8-9.28,20.6-18.8,20.7-9.52.1-17.68-8.5-19.2-20.2l-31.2-243.5-20.4,179.1c-1.36,11.6-9.12,20.3-18.48,20.6-9.36.3-17.52-7.8-19.36-19.3l-23.52-147-3.28,13.4c-2.56,10-10,16.9-18.4,16.9H19.2c-10.64,0-19.2-10.7-19.2-24s8.56-24,19.2-24h17.84l21.44-87.1c2.56-10.5,10.56-17.5,19.36-16.9s16.16,8.5,17.84,19.3l16.4,102.6,22.48-197.3c1.36-11.7,9.36-20.5,18.88-20.6s17.6,8.5,19.12,20.2l30.8,240.9L236.96,20.7c1.36-11.9,9.44-20.7,19.04-20.7Z" style="stroke-width:0px;"/></g></svg>