<?xml version="1.0" ?><svg id="Layer_1" style="enable-background:new 0 0 64 64;" version="1.1" viewBox="0 0 64 64" xml:space="preserve" xmlns="http://www.w3.org/2000/svg" xmlns:xlink="http://www.w3.org/1999/xlink"><style type="text/css">
	.st0{fill:#FF5100;}
	.st1{fill:none;stroke:#6081C4;stroke-width:1.858;stroke-linecap:round;stroke-linejoin:round;stroke-miterlimit:10;}
	.st2{fill:none;stroke:#FF5100;stroke-linecap:round;stroke-linejoin:round;stroke-miterlimit:10;}
	.st3{opacity:0.15;}
	.st4{opacity:0.2;}
	.st5{fill:#FFFFFF;}
</style><circle class="st0" cx="32" cy="32" r="26.1"/><path class="st2" d="M52.1,12.7c4.8,5,7.8,11.8,7.8,19.3c0,15.4-12.5,27.9-27.9,27.9S4.1,47.4,4.1,32S16.6,4.1,32,4.1  c3.4,0,6.7,0.6,9.7,1.7"/><path class="st2" d="M45.5,7.6c1.2,0.6,2.3,1.4,3.3,2.2"/><circle class="st3" cx="32" cy="32" r="22.8"/><circle class="st3" cx="32" cy="32" r="17.5"/><g id="Oval-1"><g class="st4"><path d="M18.7,33l0,0.3c-0.1,1-0.1,2,0,3l0,0.3c0,0.1,0.1,0.1,0.1,0.1c0.1,0,0.1-0.1,0.1-0.1l0,0c0.2-1.2,0.2-2.4,0-3.5l0,0    c0-0.1-0.1-0.1-0.1-0.1C18.8,32.9,18.7,32.9,18.7,33z M20.4,31.9c0,0-0.1,0.9-0.2,1.7c-0.1,0.8-0.1,1.7,0,2.5l0.2,1.6    c0,0.1,0.1,0.1,0.1,0.1c0.1,0,0.1-0.1,0.1-0.1l0.2-1.4c0.1-0.9,0.1-1.9,0-2.8l-0.2-1.5c0-0.1-0.1-0.1-0.1-0.1    C20.4,31.8,20.4,31.8,20.4,31.9L20.4,31.9z M21.9,31.3l-0.2,2.6c0,0.6,0,1.2,0,1.8l0.2,2.5c0,0.1,0.1,0.2,0.2,0.2    c0.1,0,0.2-0.1,0.2-0.2l0.2-2.4c0.1-0.7,0.1-1.4,0-2.1l-0.2-2.5c0-0.1-0.1-0.2-0.2-0.2C22,31.1,21.9,31.2,21.9,31.3L21.9,31.3z     M23.5,31l-0.2,2.5c0,0.6,0,1.3,0,1.9l0.2,2.7c0,0.1,0.1,0.2,0.2,0.2c0.1,0,0.2-0.1,0.2-0.2l0.2-2.6c0.1-0.7,0.1-1.5,0-2.2    L23.8,31c0-0.1-0.1-0.2-0.2-0.2C23.5,30.8,23.5,30.9,23.5,31L23.5,31z M25,29.5l-0.2,4.6c0,0.5,0,0.9,0,1.4l0.2,2.8    c0,0.1,0.1,0.2,0.2,0.2c0.1,0,0.2-0.1,0.2-0.2l0.2-2.7c0-0.5,0-1,0-1.5l-0.2-4.6c0-0.1-0.1-0.2-0.2-0.2C25.1,29.2,25,29.3,25,29.5    L25,29.5z M26.6,28.2c0,0-0.1,4.4-0.2,6c0,0.4,0,0.8,0,1.2l0.2,2.8c0,0.1,0.1,0.3,0.2,0.3c0.1,0,0.2-0.1,0.2-0.3l0.2-2.8    c0-0.4,0-0.9,0-1.3l-0.2-5.9c0-0.2-0.1-0.3-0.2-0.3C26.7,28,26.6,28.1,26.6,28.2L26.6,28.2z M28.1,27.5L28,34.3c0,0.3,0,0.7,0,1    l0.2,2.9c0,0.2,0.2,0.3,0.3,0.3c0.2,0,0.3-0.1,0.3-0.3l0.1-2.8c0-0.3,0-0.7,0-1l-0.2-6.8c0-0.2-0.1-0.3-0.3-0.3    C28.3,27.1,28.1,27.3,28.1,27.5L28.1,27.5z M29.7,27.3l-0.1,6.8c0,0.3,0,0.6,0,0.9l0.1,3c0,0.2,0.2,0.4,0.3,0.4    c0.2,0,0.3-0.2,0.3-0.4l0.1-3c0-0.3,0-0.7,0-1l-0.2-6.8c0-0.2-0.2-0.4-0.3-0.4C29.8,26.9,29.7,27.1,29.7,27.3L29.7,27.3z     M31.3,25.9l-0.1,8.5c0,0.3,0,0.6,0,0.8l0.1,2.8c0,0.2,0.2,0.4,0.4,0.4c0.2,0,0.4-0.2,0.4-0.4l0.1-3.1c0-0.1,0-0.2,0-0.3L32,25.9    c0-0.2-0.2-0.4-0.4-0.4C31.4,25.4,31.3,25.6,31.3,25.9L31.3,25.9z M41.7,30.9c-0.3-3.6-2.9-6.4-6.1-6.4c-0.8,0-1.5,0.2-2.2,0.5    c-0.3,0.1-0.3,0.2-0.3,0.5V38c0,0.2,0.2,0.4,0.4,0.5c0,0,9.5,0,9.5,0c1.9,0,3.4-1.8,3.4-4c0-2.2-1.5-4-3.4-4    C42.6,30.6,42.1,30.7,41.7,30.9L41.7,30.9z"/></g><g><path class="st5" d="M18.2,32.5l0,0.3c-0.1,1-0.1,2,0,3l0,0.3c0,0.1,0.1,0.1,0.1,0.1c0.1,0,0.1-0.1,0.1-0.1l0,0    c0.2-1.2,0.2-2.4,0-3.5l0,0c0-0.1-0.1-0.1-0.1-0.1C18.3,32.4,18.2,32.4,18.2,32.5z M19.9,31.4c0,0-0.1,0.9-0.2,1.7    c-0.1,0.8-0.1,1.7,0,2.5l0.2,1.6c0,0.1,0.1,0.1,0.1,0.1c0.1,0,0.1-0.1,0.1-0.1l0.2-1.4c0.1-0.9,0.1-1.9,0-2.8l-0.2-1.5    c0-0.1-0.1-0.1-0.1-0.1C19.9,31.3,19.9,31.3,19.9,31.4L19.9,31.4z M21.4,30.8l-0.2,2.6c0,0.6,0,1.2,0,1.8l0.2,2.5    c0,0.1,0.1,0.2,0.2,0.2c0.1,0,0.2-0.1,0.2-0.2l0.2-2.4c0.1-0.7,0.1-1.4,0-2.1l-0.2-2.5c0-0.1-0.1-0.2-0.2-0.2    C21.5,30.6,21.4,30.7,21.4,30.8L21.4,30.8z M23,30.5l-0.2,2.5c0,0.6,0,1.3,0,1.9l0.2,2.7c0,0.1,0.1,0.2,0.2,0.2    c0.1,0,0.2-0.1,0.2-0.2l0.2-2.6c0.1-0.7,0.1-1.5,0-2.2l-0.2-2.4c0-0.1-0.1-0.2-0.2-0.2C23,30.3,23,30.4,23,30.5L23,30.5z M24.5,29    l-0.2,4.6c0,0.5,0,0.9,0,1.4l0.2,2.8c0,0.1,0.1,0.2,0.2,0.2c0.1,0,0.2-0.1,0.2-0.2l0.2-2.7c0-0.5,0-1,0-1.5L25,29    c0-0.1-0.1-0.2-0.2-0.2C24.6,28.7,24.5,28.8,24.5,29L24.5,29z M26.1,27.7c0,0-0.1,4.4-0.2,6c0,0.4,0,0.8,0,1.2l0.2,2.8    c0,0.1,0.1,0.3,0.2,0.3c0.1,0,0.2-0.1,0.2-0.3l0.2-2.8c0-0.4,0-0.9,0-1.3l-0.2-5.9c0-0.2-0.1-0.3-0.2-0.3    C26.2,27.5,26.1,27.6,26.1,27.7L26.1,27.7z M27.6,27l-0.2,6.8c0,0.3,0,0.7,0,1l0.2,2.9c0,0.2,0.2,0.3,0.3,0.3    c0.2,0,0.3-0.1,0.3-0.3l0.1-2.8c0-0.3,0-0.7,0-1L28.2,27c0-0.2-0.1-0.3-0.3-0.3C27.8,26.6,27.6,26.8,27.6,27L27.6,27z M29.2,26.8    L29,33.6c0,0.3,0,0.6,0,0.9l0.1,3c0,0.2,0.2,0.4,0.3,0.4c0.2,0,0.3-0.2,0.3-0.4l0.1-3c0-0.3,0-0.7,0-1l-0.2-6.8    c0-0.2-0.2-0.4-0.3-0.4C29.3,26.4,29.2,26.6,29.2,26.8L29.2,26.8z M30.8,25.4l-0.1,8.5c0,0.3,0,0.6,0,0.8l0.1,2.8    c0,0.2,0.2,0.4,0.4,0.4c0.2,0,0.4-0.2,0.4-0.4l0.1-3.1c0-0.1,0-0.2,0-0.3l-0.2-8.8c0-0.2-0.2-0.4-0.4-0.4    C30.9,24.9,30.8,25.1,30.8,25.4L30.8,25.4z M41.2,30.4c-0.3-3.6-2.9-6.4-6.1-6.4c-0.8,0-1.5,0.2-2.2,0.5c-0.3,0.1-0.3,0.2-0.3,0.5    v12.6c0,0.2,0.2,0.4,0.4,0.5c0,0,9.5,0,9.5,0c1.9,0,3.4-1.8,3.4-4c0-2.2-1.5-4-3.4-4C42.1,30.1,41.6,30.2,41.2,30.4L41.2,30.4z"/></g></g></svg>
