<svg width="100%" height="100%" viewBox="0 0 414 580" xmlns="http://www.w3.org/2000/svg" fill="currentColor" style="fill-rule:evenodd;clip-rule:evenodd;stroke-linejoin:round;stroke-miterlimit:2;">

    <path d="M209.879,579.66L249.45,391.471L216.781,391.471L223.223,361.564L255.891,361.564L261.413,336.257C266.014,314.478 276.75,296.687 293.621,282.883C310.492,269.08 332.271,262.178 358.958,262.178C379.51,262.178 395.461,264.479 406.81,269.08L400.829,297.607C396.534,296.074 390.86,294.847 383.804,293.926C376.749,293.006 369.541,292.546 362.179,292.546C343.161,292.546 328.744,296.15 318.928,303.359C309.112,310.567 302.517,321.533 299.143,336.257L293.621,361.564L413.712,361.564L367.7,579.66L329.97,579.66L369.541,391.471L287.179,391.471L247.609,579.66L209.879,579.66Z"/>

    <path d="M96.031,162.18L58.009,30.838L139.119,95.53L254.859,-0L220.478,132.684L314.019,197.746L203.719,232.034L191.824,388.714L106.654,251.493L-0,298.139L96.031,162.18Z"/>

</svg>
