<svg width="100%" height="100%" viewBox="0 0 152 168" xmlns="http://www.w3.org/2000/svg" fill="currentColor">
    <g transform="matrix(1,0,0,1,-323.636,-0.0001)">
        <g transform="matrix(1,0,0,1,-38.225,-52.7268)">
            <g transform="matrix(-1.22751,0,0,1.22751,512.999,52.7269)">
                <path d="M54.723,136.806C38.876,132.816 25.794,123.724 15.476,109.53C5.159,95.337 0,79.575 0,62.247L0,20.521L54.723,0L109.445,20.521L109.445,59.339C107.279,58.427 105.056,57.601 102.776,56.86C100.496,56.119 98.159,55.577 95.765,55.235L95.765,30.097L54.723,14.706L13.681,30.097L13.681,62.247C13.681,67.605 14.393,72.963 15.818,78.321C17.243,83.68 19.238,88.781 21.804,93.627C24.369,98.472 27.475,102.946 31.123,107.051C34.772,111.155 38.819,114.575 43.265,117.311C44.519,120.959 46.172,124.436 48.224,127.743C50.276,131.049 52.613,134.013 55.236,136.635C55.122,136.635 55.036,136.664 54.979,136.721C54.922,136.778 54.837,136.806 54.723,136.806Z"/>
            </g>
        </g>
        <g transform="matrix(1,0,0,1,-38.225,-52.7268)">
            <g transform="matrix(-1.22751,0,0,1.22751,512.999,136.691)">
                <path d="M88.924,68.403L78.197,60.008L64.75,58.376L63.118,44.929L54.723,34.202L63.118,23.475L64.75,10.027L78.197,8.395L88.924,0L99.651,8.395L113.098,10.027L114.731,23.475L123.126,34.202L114.731,44.929L113.098,58.376L99.651,60.008L88.924,68.403ZM88.924,60.475L97.164,54.101L107.58,52.779L108.823,42.441L115.197,34.202L108.823,25.962L107.502,15.624L97.164,14.303L88.924,7.929L80.685,14.303L70.269,15.624L69.025,25.962L62.651,34.202L69.025,42.441L70.347,52.857L80.685,54.101L88.924,60.475Z"/>
            </g>
        </g>
    </g>
</svg>
