<?xml version="1.0" encoding="UTF-8" standalone="no"?>
<!DOCTYPE svg PUBLIC "-//W3C//DTD SVG 1.1//EN" "http://www.w3.org/Graphics/SVG/1.1/DTD/svg11.dtd">
<svg width="100%" height="100%" viewBox="0 0 800 800" version="1.1" xmlns="http://www.w3.org/2000/svg" xmlns:xlink="http://www.w3.org/1999/xlink" xml:space="preserve" xmlns:serif="http://www.serif.com/" fill="currentColor">
    <g transform="matrix(-1.4509,0,0,1.4509,775,21.2576)">
        <path d="M112,361.6L112,499C112,506.2 106.2,512 99,512L77,512C69.8,512 64,506.2 64,499L64,386.4C64,383.1 62.8,380 60.5,377.6C21.7,336.1 0,281.2 0,224.2C0,100.6 100.2,0 224,0L256,0C356.4,0 438.8,77 447.3,175.3C447.5,178 448.7,180.6 450.5,182.7L503.9,242.8L508.7,248.2C510.8,250.6 512,253.6 512,256.8L512,323C512,330.2 506.2,336 499,336L461,336C453.8,336 448,341.8 448,349L448,434.4C448,441.4 442.4,447.1 435.4,447.4L416,448L333,448C325.8,448 320,453.8 320,461L320,499C320,506.2 314.2,512 307,512L285,512C277.8,512 272,506.2 272,499L272,413C272,405.8 277.8,400 285,400L320,400L387.2,399.2C394.3,399.1 400,393.3 400,386.2L400,301C400,293.8 405.8,288 413,288L451,288C458.2,288 464,282.2 464,275C464,271.8 462.8,268.8 460.7,266.4L411.7,211.3L403.7,202.3C401.8,200.1 400.6,197.4 400.4,194.5L399.6,182.5C394.8,107.4 332.3,48 256,48L224,48C126.8,48 48,127 48,224.2C48,270.3 66.1,314.7 98.3,347.6L112,361.6Z" fill="currentColor"/>
    </g>
    <g transform="matrix(-1.90446,0,0,1.90446,533.931,536.26)">
        <g transform="matrix(288,0,0,288,0,0)">
            <path d="M0.113,-0.31L0.097,-0.544C0.094,-0.59 0.093,-0.622 0.093,-0.642C0.093,-0.669 0.1,-0.69 0.114,-0.705C0.128,-0.72 0.147,-0.728 0.17,-0.728C0.198,-0.728 0.217,-0.718 0.226,-0.699C0.236,-0.68 0.24,-0.652 0.24,-0.615C0.24,-0.594 0.239,-0.572 0.237,-0.55L0.216,-0.309C0.214,-0.28 0.209,-0.258 0.201,-0.243C0.194,-0.228 0.181,-0.22 0.164,-0.22C0.146,-0.22 0.134,-0.228 0.127,-0.242C0.121,-0.257 0.116,-0.28 0.113,-0.31ZM0.167,0.011C0.147,0.011 0.13,0.005 0.115,-0.008C0.1,-0.021 0.093,-0.039 0.093,-0.062C0.093,-0.082 0.1,-0.099 0.114,-0.114C0.128,-0.128 0.146,-0.135 0.166,-0.135C0.187,-0.135 0.204,-0.128 0.219,-0.114C0.233,-0.099 0.24,-0.082 0.24,-0.062C0.24,-0.039 0.233,-0.021 0.218,-0.008C0.204,0.005 0.187,0.011 0.167,0.011Z" fill="currentColor"/>
        </g>
    </g>
</svg>
