<svg viewBox="0 0 512 512" xmlns="http://www.w3.org/2000/svg">

    <!-- Box 1 -->
    <path fill="currentColor"
          d="M0,53.328V160h106.672V53.328H0z M90.672,144H16V69.328h74.672V144z"/>

    <!-- Lines -->
    <rect x="149.328" y="79.728" width="320" height="16" fill="currentColor"/>
    <rect x="149.328" y="120" width="362.672" height="16" fill="currentColor"/>

    <!-- Box 2 -->
    <path fill="currentColor"
          d="M0,202.672v106.672h106.672V202.672H0z M90.672,293.328H16v-74.672h74.672V293.328z"/>

    <!-- Lines -->
    <rect x="149.328" y="229.056" width="320" height="16" fill="currentColor"/>
    <rect x="149.328" y="269.328" width="362.672" height="16" fill="currentColor"/>

    <!-- Box 3 -->
    <path fill="currentColor"
          d="M0,352v106.672h106.672V352H0z M90.672,442.672H16V368h74.672V442.672z"/>

    <!-- Lines -->
    <rect x="149.328" y="378.4" width="320" height="16" fill="currentColor"/>
    <rect x="149.328" y="418.72" width="362.672" height="16" fill="currentColor"/>

    <!-- Dots -->
    <circle cx="53.328" cy="106.672" r="21.328" fill="currentColor"/>
    <circle cx="53.328" cy="256" r="21.328" fill="currentColor"/>
    <circle cx="53.328" cy="405.328" r="21.328" fill="currentColor"/>

</svg>
