<svg viewBox="0 0 490 490" xmlns="http://www.w3.org/2000/svg">

    <!-- Dokument -->
    <polygon fill="currentColor" opacity="0.15"
             points="480,110 480,480 110,480 110,425 280,425 280,147.5 202.5,70 110,70 110,10 380,10 380,110" />

    <!-- Ecke -->
    <polygon fill="currentColor" opacity="0.3"
             points="480,110 380,110 380,10" />

    <!-- Vorderes Dokument -->
    <polygon fill="currentColor" opacity="0.1"
             points="280,147.5 280,425 110,425 10,425 10,70 110,70 202.5,70 202.5,147.5" />

    <!-- Falz -->
    <polygon fill="currentColor" opacity="0.25"
             points="280,147.5 202.5,147.5 202.5,70" />

    <!-- Outline + Inhalt -->
    <path fill="currentColor"
          d="M489.976,110c-0.001-2.602-0.993-5.158-2.905-7.071l-100-100c-1.913-1.912-4.47-2.903-7.071-2.904V0H110c-5.523,0-10,4.477-10,10v50H10C4.477,60,0,64.478,0,70v355c0,5.522,4.477,10,10,10h90v45c0,5.522,4.477,10,10,10h370c5.523,0,10-4.478,10-10V110H489.976z M390,34.143L455.858,100H390V34.143z M20,80h172.5v67.5c0,5.523,4.477,10,10,10H270V415H20V80z M212.5,94.143l43.357,43.357H212.5V94.143z M120,470v-35h160c5.523,0,10-4.478,10-10V147.5c0-2.652-1.054-5.195-2.929-7.071l-77.5-77.5C207.696,61.054,205.152,60,202.5,60H120V20h250v90c0,5.522,4.477,10,10,10h90v350H120z" />

    <!-- Linien -->
    <g fill="currentColor">
        <rect x="310" y="160" width="130" height="20"/>
        <rect x="310" y="220" width="130" height="20"/>
        <rect x="310" y="280" width="130" height="20"/>
        <rect x="310" y="340" width="130" height="20"/>
        <rect x="310" y="400" width="130" height="20"/>

        <rect x="45" y="105" width="65" height="20"/>
        <rect x="45" y="145" width="65" height="20"/>
        <rect x="45" y="205" width="200" height="20"/>
        <rect x="45" y="255" width="200" height="20"/>
        <rect x="45" y="305" width="200" height="20"/>
        <rect x="45" y="355" width="200" height="20"/>
    </g>

</svg>
