<svg width="100%" height="100%" viewBox="0 0 24 24" version="1.1" xmlns="http://www.w3.org/2000/svg" xmlns:xlink="http://www.w3.org/1999/xlink" xml:space="preserve" xmlns:serif="http://www.serif.com/" fill="currentColor">
    <g transform="matrix(1.011,-0.445386,0.445386,1.011,-7.92044,3.85386)">
        <path d="M10.525,10.725C9.921,10.443 9.367,10.074 8.9,9.55C8.617,9.2 8.396,8.808 8.238,8.375C8.079,7.942 8,7.483 8,7C8,5.9 8.392,4.958 9.175,4.175C9.958,3.392 10.9,3 12,3C13.1,3 14.042,3.392 14.825,4.175C15.608,4.958 16,5.9 16,7C16,7.483 15.917,7.942 15.75,8.375C15.583,8.808 15.408,9.254 15.124,9.604C14.678,10.155 13.573,10.713 13.573,10.713C13.49,10.746 13.313,10.783 13.238,10.8C13.163,10.817 13.083,10.842 13,10.875L13.562,18.39C14.145,18.59 14.624,18.948 14.999,19.465C15.374,19.982 15.562,20.565 15.562,21.215C15.562,22.048 15.27,22.757 14.687,23.34C14.104,23.923 13.395,24.215 12.562,24.215C11.729,24.215 11.02,23.923 10.437,23.34C9.854,22.757 9.562,22.048 9.562,21.215C9.562,20.565 9.749,19.986 10.124,19.477C10.499,18.969 10.979,18.607 11.562,18.39L11,10.875C10.917,10.842 10.838,10.817 10.763,10.8C10.688,10.783 10.608,10.758 10.525,10.725ZM12.562,22.215C12.845,22.215 13.083,22.119 13.274,21.927C13.466,21.736 13.562,21.498 13.562,21.215C13.562,20.932 13.466,20.694 13.274,20.502C13.083,20.311 12.845,20.215 12.562,20.215C12.279,20.215 12.041,20.311 11.849,20.502C11.658,20.694 11.562,20.932 11.562,21.215C11.562,21.498 11.658,21.736 11.849,21.927C12.041,22.119 12.279,22.215 12.562,22.215ZM12,9C12.55,9 13.021,8.804 13.413,8.413C13.804,8.021 14,7.55 14,7C14,6.45 13.804,5.979 13.413,5.587C13.021,5.196 12.55,5 12,5C11.45,5 10.979,5.196 10.588,5.587C10.196,5.979 10,6.45 10,7C10,7.55 10.196,8.021 10.588,8.413C10.979,8.804 11.45,9 12,9Z"  fill="currentColor"/>
    </g>
</svg>
