<svg width="100%" height="100%" viewBox="0 0 800 800" version="1.1" xmlns="http://www.w3.org/2000/svg" xmlns:xlink="http://www.w3.org/1999/xlink" xml:space="preserve" xmlns:serif="http://www.serif.com/" style="fill-rule:evenodd;clip-rule:evenodd;stroke-linecap:round;">
    <g transform="matrix(1.17736,0,0,1.17736,-70.9433,-79.8478)">
        <path d="M566.667,133.333L573.333,133.333C633.043,133.333 662.9,133.333 681.45,151.883C700,170.433 700,200.289 700,260L700,266.667M566.667,666.667L573.333,666.667C633.043,666.667 662.9,666.667 681.45,648.117C700,629.567 700,599.71 700,540L700,533.333M233.333,133.333L226.667,133.333C166.955,133.333 137.1,133.333 118.55,151.883C100,170.433 100,200.289 100,260L100,266.667M233.333,666.667L226.667,666.667C166.955,666.667 137.1,666.667 118.55,648.117C100,629.567 100,599.71 100,540L100,533.333"
              style="fill:none;fill-rule:nonzero;stroke:currentColor;stroke-width:66.67px;"/>
    </g>
    <g transform="matrix(1.17736,0,0,1.17736,-70.9433,-79.8478)">
        <path d="M627.163,400C627.163,382.123 622.973,374.873 614.597,360.373C586.113,311.082 521.87,233.333 400,233.333C278.132,233.333 213.888,311.082 185.404,360.373C177.026,374.873 172.836,382.123 172.836,400C172.836,417.877 177.026,425.127 185.404,439.627C213.888,488.917 278.132,566.667 400,566.667C521.87,566.667 586.113,488.917 614.597,439.627C622.973,425.127 627.163,417.877 627.163,400ZM400,500C455.23,500 500,455.23 500,400C500,344.77 455.23,300 400,300C344.773,300 300,344.77 300,400C300,455.23 344.773,500 400,500Z"
              style="fill:currentColor;"/>
    </g>
</svg>
