<?xml version="1.0" encoding="UTF-8" standalone="no"?>
<!DOCTYPE svg PUBLIC "-//W3C//DTD SVG 1.1//EN" "http://www.w3.org/Graphics/SVG/1.1/DTD/svg11.dtd">
<svg width="100%" height="100%" viewBox="0 0 640 360" version="1.1" xmlns="http://www.w3.org/2000/svg" xmlns:xlink="http://www.w3.org/1999/xlink" xml:space="preserve" xmlns:serif="http://www.serif.com/" style="fill-rule:evenodd;clip-rule:evenodd;stroke-linejoin:round;stroke-miterlimit:2;">
    <g transform="matrix(6.60589,0,0,6.60589,-1174.68,-839.768)">
        <g transform="matrix(15,0,0,15,180.299,143.117)">
            <path d="M0.184,0.01C0.119,0.01 0.071,-0.009 0.041,-0.047C0.011,-0.085 0.004,-0.142 0.02,-0.218C0.031,-0.271 0.05,-0.317 0.075,-0.357C0.1,-0.396 0.133,-0.427 0.173,-0.45C0.212,-0.473 0.258,-0.484 0.311,-0.484C0.338,-0.484 0.36,-0.481 0.377,-0.475C0.394,-0.468 0.409,-0.459 0.424,-0.447L0.429,-0.474L0.59,-0.474L0.49,-0L0.351,-0L0.35,-0.04C0.303,-0.007 0.248,0.01 0.184,0.01ZM0.261,-0.107C0.296,-0.107 0.329,-0.119 0.359,-0.143L0.399,-0.333C0.386,-0.355 0.362,-0.366 0.328,-0.366C0.29,-0.366 0.259,-0.354 0.236,-0.331C0.213,-0.307 0.195,-0.269 0.184,-0.218C0.175,-0.176 0.177,-0.147 0.189,-0.131C0.2,-0.115 0.224,-0.107 0.261,-0.107Z" style="fill-rule:nonzero;"/>
        </g>
        <g transform="matrix(15,0,0,15,189.269,143.117)">
            <path d="M0.137,0.01C0.089,0.01 0.055,-0.001 0.036,-0.024C0.016,-0.047 0.011,-0.083 0.022,-0.133L0.137,-0.674L0.298,-0.674L0.186,-0.149C0.183,-0.134 0.185,-0.123 0.19,-0.118C0.195,-0.112 0.203,-0.109 0.216,-0.109C0.234,-0.109 0.25,-0.111 0.265,-0.116L0.242,-0.007C0.225,-0.001 0.209,0.003 0.194,0.006C0.178,0.009 0.159,0.01 0.137,0.01Z" style="fill-rule:nonzero;"/>
        </g>
        <g transform="matrix(15,0,0,15,193.499,143.117)">
            <path d="M0.187,0.01C0.133,0.01 0.094,-0.005 0.071,-0.035C0.048,-0.065 0.041,-0.106 0.052,-0.159L0.093,-0.352L0.029,-0.352L0.055,-0.474L0.119,-0.474L0.14,-0.573L0.31,-0.616L0.28,-0.474L0.395,-0.474L0.362,-0.352L0.254,-0.352L0.216,-0.17C0.211,-0.147 0.212,-0.132 0.219,-0.123C0.225,-0.114 0.241,-0.109 0.268,-0.109C0.289,-0.109 0.31,-0.112 0.332,-0.119L0.309,-0.01C0.275,0.003 0.234,0.01 0.187,0.01Z" style="fill-rule:nonzero;"/>
        </g>
    </g>
    <g transform="matrix(6.60589,0,0,6.60589,-1249.58,-889.537)">
        <g transform="matrix(20.8333,0,0,20.8333,210.971,155.038)">
            <path d="M0.197,0.01C0.154,0.01 0.115,0.007 0.08,0.001C0.044,-0.006 0.014,-0.015 -0.01,-0.027L0.019,-0.164C0.046,-0.151 0.077,-0.141 0.111,-0.133C0.144,-0.125 0.177,-0.121 0.209,-0.121C0.249,-0.121 0.28,-0.125 0.301,-0.132C0.322,-0.139 0.336,-0.155 0.341,-0.18C0.344,-0.197 0.342,-0.21 0.335,-0.22C0.328,-0.23 0.314,-0.239 0.294,-0.247C0.273,-0.254 0.246,-0.263 0.211,-0.274C0.149,-0.293 0.108,-0.317 0.088,-0.346C0.067,-0.374 0.062,-0.413 0.073,-0.464C0.086,-0.525 0.119,-0.572 0.17,-0.605C0.221,-0.638 0.289,-0.654 0.375,-0.654C0.412,-0.654 0.448,-0.651 0.482,-0.646C0.516,-0.64 0.543,-0.633 0.564,-0.626L0.534,-0.488C0.507,-0.499 0.48,-0.508 0.453,-0.513C0.425,-0.518 0.397,-0.521 0.37,-0.521C0.334,-0.521 0.304,-0.518 0.281,-0.511C0.257,-0.504 0.242,-0.489 0.237,-0.465C0.234,-0.451 0.236,-0.44 0.242,-0.432C0.248,-0.423 0.26,-0.416 0.279,-0.409C0.297,-0.402 0.322,-0.394 0.354,-0.385C0.404,-0.371 0.441,-0.354 0.465,-0.335C0.488,-0.315 0.503,-0.292 0.508,-0.267C0.513,-0.241 0.513,-0.212 0.506,-0.18C0.494,-0.123 0.462,-0.078 0.411,-0.043C0.359,-0.008 0.288,0.01 0.197,0.01Z" style="fill-rule:nonzero;"/>
        </g>
        <g transform="matrix(20.8333,0,0,20.8333,222.242,155.038)">
            <path d="M0.187,0.01C0.133,0.01 0.094,-0.005 0.071,-0.035C0.048,-0.065 0.041,-0.106 0.052,-0.159L0.093,-0.352L0.029,-0.352L0.055,-0.474L0.119,-0.474L0.14,-0.573L0.31,-0.616L0.28,-0.474L0.395,-0.474L0.362,-0.352L0.254,-0.352L0.216,-0.17C0.211,-0.147 0.212,-0.132 0.219,-0.123C0.225,-0.114 0.241,-0.109 0.268,-0.109C0.289,-0.109 0.31,-0.112 0.332,-0.119L0.309,-0.01C0.275,0.003 0.234,0.01 0.187,0.01Z" style="fill-rule:nonzero;"/>
        </g>
        <g transform="matrix(20.8333,0,0,20.8333,230.054,155.038)">
            <path d="M0.184,0.01C0.119,0.01 0.071,-0.009 0.041,-0.047C0.011,-0.085 0.004,-0.142 0.02,-0.218C0.031,-0.271 0.05,-0.317 0.075,-0.357C0.1,-0.396 0.133,-0.427 0.173,-0.45C0.212,-0.473 0.258,-0.484 0.311,-0.484C0.338,-0.484 0.36,-0.481 0.377,-0.475C0.394,-0.468 0.409,-0.459 0.424,-0.447L0.429,-0.474L0.59,-0.474L0.49,-0L0.351,-0L0.35,-0.04C0.303,-0.007 0.248,0.01 0.184,0.01ZM0.261,-0.107C0.296,-0.107 0.329,-0.119 0.359,-0.143L0.399,-0.333C0.386,-0.355 0.362,-0.366 0.328,-0.366C0.29,-0.366 0.259,-0.354 0.236,-0.331C0.213,-0.307 0.195,-0.269 0.184,-0.218C0.175,-0.176 0.177,-0.147 0.189,-0.131C0.2,-0.115 0.224,-0.107 0.261,-0.107Z" style="fill-rule:nonzero;"/>
        </g>
        <g transform="matrix(20.8333,0,0,20.8333,242.513,155.038)">
            <path d="M-0.005,-0L0.095,-0.474L0.248,-0.474L0.244,-0.43C0.267,-0.443 0.295,-0.454 0.328,-0.465C0.361,-0.475 0.393,-0.481 0.424,-0.484L0.399,-0.363C0.381,-0.361 0.361,-0.358 0.339,-0.354C0.317,-0.349 0.296,-0.344 0.276,-0.338C0.255,-0.332 0.238,-0.326 0.223,-0.319L0.156,-0L-0.005,-0Z" style="fill-rule:nonzero;"/>
        </g>
    </g>
    <g transform="matrix(0.199593,0,0,0.199593,413.792,24.5179)">
        <path d="M96.031,162.18L58.009,30.838L139.119,95.53L254.859,-0L220.478,132.684L314.019,197.746L203.719,232.034L191.824,388.714L106.654,251.493L-0,298.139L96.031,162.18Z"/>
    </g>
    <g transform="matrix(-5.16395,0,0,5.16395,188.208,109.96)">
        <path d="M15,6C15.283,6 15.521,5.904 15.713,5.712C15.904,5.521 16,5.283 16,5C16,4.717 15.904,4.479 15.713,4.287C15.521,4.096 15.283,4 15,4C14.717,4 14.479,4.096 14.288,4.287C14.096,4.479 14,4.717 14,5C14,5.283 14.096,5.521 14.288,5.712C14.479,5.904 14.717,6 15,6ZM16.55,12.55L11.45,7.45C11.317,7.317 11.208,7.154 11.125,6.962C11.042,6.771 11,6.575 11,6.375L11,2.5C11,2.083 11.146,1.729 11.438,1.438C11.729,1.146 12.083,1 12.5,1L16.375,1C16.575,1 16.771,1.042 16.963,1.125C17.154,1.208 17.317,1.317 17.45,1.45L22.55,6.55C22.833,6.833 22.975,7.188 22.975,7.613C22.975,8.037 22.833,8.392 22.55,8.675L18.675,12.55C18.392,12.833 18.038,12.975 17.613,12.975C17.188,12.975 16.833,12.833 16.55,12.55ZM17.625,10.8L20.8,7.625L16.175,3L13,3L13,6.175L17.625,10.8Z" style="fill-rule:nonzero;"/>
    </g>
    <g id="solo.afpub" transform="matrix(3.05346,0,0,3.05346,492.432,162.167)">
        <g transform="matrix(1,0,0,1,-32,-12)">
            <g transform="matrix(1,0,0,1,11.2876,-0.730281)">
                <path d="M-1,21C-1.55,21 -2.021,20.804 -2.412,20.413C-2.804,20.021 -3,19.55 -3,19L-3,5C-3,4.45 -2.804,3.979 -2.412,3.587C-2.021,3.196 -1.55,3 -1,3L40,3C40.55,3 41.021,3.196 41.413,3.587C41.804,3.979 42,4.45 42,5L42,19C42,19.55 41.804,20.021 41.413,20.413C41.021,20.804 40.55,21 40,21L-1,21ZM0,18L19.5,19L39,18L39,6L19.553,5L0,6L0,18Z" style="fill-rule:nonzero;"/>
            </g>
            <g transform="matrix(1,0,0,1,-2.82834,6.23366)">
                <path d="M18.547,9.936C17.897,9.936 17.297,9.891 16.747,9.8C16.198,9.71 15.774,9.595 15.475,9.456L15.923,7.296C16.265,7.467 16.683,7.6 17.179,7.696C17.675,7.792 18.105,7.84 18.467,7.84C18.851,7.84 19.145,7.83 19.347,7.808C19.55,7.787 19.667,7.696 19.699,7.536C19.742,7.355 19.598,7.216 19.267,7.12C18.937,7.024 18.521,6.886 18.019,6.704C17.486,6.491 17.081,6.248 16.803,5.976C16.526,5.704 16.387,5.355 16.387,4.928C16.387,4.843 16.393,4.758 16.403,4.672C16.414,4.587 16.43,4.496 16.451,4.4C16.611,3.643 17.019,3.059 17.675,2.648C18.331,2.238 19.326,2.032 20.659,2.032C21.15,2.032 21.649,2.07 22.155,2.144C22.662,2.219 23.054,2.304 23.331,2.4L22.883,4.512C22.595,4.374 22.27,4.272 21.907,4.208C21.545,4.144 21.209,4.112 20.899,4.112C20.558,4.112 20.251,4.128 19.979,4.16C19.707,4.192 19.55,4.283 19.507,4.432C19.475,4.603 19.603,4.726 19.891,4.8C20.179,4.875 20.563,4.992 21.043,5.152C21.705,5.355 22.171,5.598 22.443,5.88C22.715,6.163 22.851,6.507 22.851,6.912C22.851,7.008 22.843,7.104 22.827,7.2C22.811,7.296 22.793,7.403 22.771,7.52C22.601,8.288 22.19,8.883 21.539,9.304C20.889,9.726 19.891,9.936 18.547,9.936Z" style="fill-rule:nonzero;"/>
                <path d="M28.355,9.936C27.193,9.936 26.286,9.688 25.635,9.192C24.985,8.696 24.659,7.968 24.659,7.008C24.659,6.848 24.667,6.683 24.683,6.512C24.699,6.342 24.729,6.166 24.771,5.984C25.049,4.704 25.609,3.726 26.451,3.048C27.294,2.371 28.489,2.032 30.035,2.032C31.273,2.032 32.206,2.294 32.835,2.816C33.465,3.339 33.779,4.059 33.779,4.976C33.779,5.136 33.771,5.299 33.755,5.464C33.739,5.63 33.71,5.803 33.667,5.984C33.401,7.275 32.83,8.256 31.955,8.928C31.081,9.6 29.881,9.936 28.355,9.936ZM28.819,7.744C29.31,7.744 29.697,7.606 29.979,7.328C30.262,7.051 30.467,6.603 30.595,5.984C30.659,5.696 30.691,5.44 30.691,5.216C30.691,4.875 30.603,4.624 30.427,4.464C30.251,4.304 29.966,4.224 29.571,4.224C29.091,4.224 28.715,4.366 28.443,4.648C28.171,4.931 27.971,5.376 27.843,5.984C27.779,6.304 27.747,6.576 27.747,6.8C27.747,7.131 27.83,7.371 27.995,7.52C28.161,7.67 28.435,7.744 28.819,7.744Z" style="fill-rule:nonzero;"/>
                <path d="M37.635,9.936C36.921,9.936 36.385,9.803 36.027,9.536C35.67,9.27 35.491,8.854 35.491,8.288C35.491,8.043 35.523,7.776 35.587,7.488L37.395,-1.008L40.403,-1.008L38.659,7.152C38.649,7.195 38.641,7.238 38.635,7.28C38.63,7.323 38.627,7.36 38.627,7.392C38.627,7.531 38.667,7.624 38.747,7.672C38.827,7.72 38.953,7.744 39.123,7.744C39.262,7.744 39.401,7.734 39.539,7.712C39.678,7.691 39.811,7.659 39.939,7.616L39.523,9.616C39.225,9.723 38.937,9.803 38.659,9.856C38.382,9.91 38.041,9.936 37.635,9.936Z" style="fill-rule:nonzero;"/>
                <path d="M45.395,9.936C44.233,9.936 43.326,9.688 42.675,9.192C42.025,8.696 41.699,7.968 41.699,7.008C41.699,6.848 41.707,6.683 41.723,6.512C41.739,6.342 41.769,6.166 41.811,5.984C42.089,4.704 42.649,3.726 43.491,3.048C44.334,2.371 45.529,2.032 47.075,2.032C48.313,2.032 49.246,2.294 49.875,2.816C50.505,3.339 50.819,4.059 50.819,4.976C50.819,5.136 50.811,5.299 50.795,5.464C50.779,5.63 50.75,5.803 50.707,5.984C50.441,7.275 49.87,8.256 48.995,8.928C48.121,9.6 46.921,9.936 45.395,9.936ZM45.859,7.744C46.35,7.744 46.737,7.606 47.019,7.328C47.302,7.051 47.507,6.603 47.635,5.984C47.699,5.696 47.731,5.44 47.731,5.216C47.731,4.875 47.643,4.624 47.467,4.464C47.291,4.304 47.006,4.224 46.611,4.224C46.131,4.224 45.755,4.366 45.483,4.648C45.211,4.931 45.011,5.376 44.883,5.984C44.819,6.304 44.787,6.576 44.787,6.8C44.787,7.131 44.87,7.371 45.035,7.52C45.201,7.67 45.475,7.744 45.859,7.744Z" style="fill-rule:nonzero;"/>
            </g>
        </g>
    </g>
</svg>
