<?xml version="1.0" encoding="UTF-8" standalone="no"?>
<!DOCTYPE svg PUBLIC "-//W3C//DTD SVG 1.1//EN" "http://www.w3.org/Graphics/SVG/1.1/DTD/svg11.dtd">
<svg width="100%" height="100%" viewBox="0 0 64 24" version="1.1" xmlns="http://www.w3.org/2000/svg" xmlns:xlink="http://www.w3.org/1999/xlink" xml:space="preserve" xmlns:serif="http://www.serif.com/" style="fill-rule:evenodd;clip-rule:evenodd;stroke-linejoin:round;stroke-miterlimit:2;">
    <g transform="matrix(1,0,0,1,5.6097,0)">
        <path d="M-1,21C-1.55,21 -2.021,20.804 -2.412,20.413C-2.804,20.021 -3,19.55 -3,19L-3,5C-3,4.45 -2.804,3.979 -2.412,3.587C-2.021,3.196 -1.55,3 -1,3L49,3C49.55,3 50.021,3.196 50.413,3.587C50.804,3.979 51,4.45 51,5L51,19C51,19.55 50.804,20.021 50.413,20.413C50.021,20.804 49.55,21 49,21L-1,21ZM-1,19L49,19L49,5L-1,5L-1,19Z" style="fill:rgb(20,20,20);fill-rule:nonzero;"/>
    </g>
    <g transform="matrix(1.34175,0,0,1.34175,-6.4845,-0.740916)">
        <g transform="matrix(11.1794,0,0,11.1794,8.82344,13.6119)">
            <path d="M0.184,0.01C0.119,0.01 0.071,-0.009 0.041,-0.047C0.011,-0.085 0.004,-0.142 0.02,-0.218C0.031,-0.271 0.05,-0.317 0.075,-0.357C0.1,-0.396 0.133,-0.427 0.173,-0.45C0.212,-0.473 0.258,-0.484 0.311,-0.484C0.338,-0.484 0.36,-0.481 0.377,-0.475C0.394,-0.468 0.409,-0.459 0.424,-0.447L0.429,-0.474L0.59,-0.474L0.49,-0L0.351,-0L0.35,-0.04C0.303,-0.007 0.248,0.01 0.184,0.01ZM0.261,-0.107C0.296,-0.107 0.329,-0.119 0.359,-0.143L0.399,-0.333C0.386,-0.355 0.362,-0.366 0.328,-0.366C0.29,-0.366 0.259,-0.354 0.236,-0.331C0.213,-0.307 0.195,-0.269 0.184,-0.218C0.175,-0.176 0.177,-0.147 0.189,-0.131C0.2,-0.115 0.224,-0.107 0.261,-0.107Z" style="fill:rgb(20,20,20);fill-rule:nonzero;"/>
        </g>
        <g transform="matrix(11.1794,0,0,11.1794,15.5087,13.6119)">
            <path d="M0.165,0.01C0.113,0.01 0.074,-0.006 0.048,-0.039C0.021,-0.072 0.014,-0.117 0.027,-0.176L0.09,-0.474L0.251,-0.474L0.19,-0.185C0.184,-0.158 0.186,-0.139 0.195,-0.127C0.204,-0.114 0.222,-0.108 0.251,-0.108C0.27,-0.108 0.29,-0.112 0.309,-0.12C0.328,-0.128 0.344,-0.138 0.358,-0.15L0.427,-0.474L0.588,-0.474L0.488,-0L0.338,-0L0.341,-0.04C0.318,-0.025 0.292,-0.013 0.263,-0.004C0.234,0.005 0.201,0.01 0.165,0.01Z" style="fill:rgb(20,20,20);fill-rule:nonzero;"/>
        </g>
        <g transform="matrix(11.1794,0,0,11.1794,22.1717,13.6119)">
            <path d="M0.191,0.01C0.152,0.01 0.117,0.002 0.088,-0.016C0.058,-0.033 0.037,-0.059 0.025,-0.095C0.012,-0.13 0.012,-0.176 0.024,-0.233C0.042,-0.318 0.076,-0.381 0.125,-0.423C0.173,-0.463 0.233,-0.484 0.303,-0.484C0.354,-0.484 0.395,-0.473 0.426,-0.452L0.473,-0.674L0.634,-0.674L0.491,-0L0.352,-0L0.351,-0.04C0.328,-0.023 0.304,-0.011 0.278,-0.003C0.252,0.006 0.223,0.01 0.191,0.01ZM0.262,-0.107C0.297,-0.107 0.33,-0.119 0.36,-0.143L0.401,-0.335C0.382,-0.356 0.355,-0.366 0.32,-0.366C0.286,-0.366 0.258,-0.355 0.236,-0.334C0.214,-0.313 0.198,-0.279 0.188,-0.232C0.178,-0.187 0.179,-0.155 0.19,-0.136C0.201,-0.117 0.225,-0.107 0.262,-0.107Z" style="fill:rgb(20,20,20);fill-rule:nonzero;"/>
        </g>
        <g transform="matrix(11.1794,0,0,11.1794,28.8682,13.6119)">
            <path d="M0.142,-0.549L0.168,-0.67L0.343,-0.67L0.317,-0.549L0.142,-0.549ZM0.039,-0L0.114,-0.355L0.044,-0.355L0.083,-0.474L0.3,-0.474L0.2,-0L0.039,-0Z" style="fill:rgb(20,20,20);fill-rule:nonzero;"/>
        </g>
        <g transform="matrix(11.1794,0,0,11.1794,32.3226,13.6119)">
            <path d="M0.238,0.01C0.153,0.01 0.092,-0.011 0.055,-0.054C0.017,-0.096 0.007,-0.157 0.024,-0.237C0.041,-0.316 0.074,-0.377 0.124,-0.42C0.174,-0.463 0.247,-0.484 0.343,-0.484C0.43,-0.484 0.492,-0.463 0.529,-0.42C0.566,-0.377 0.576,-0.316 0.559,-0.237C0.542,-0.157 0.509,-0.096 0.459,-0.054C0.409,-0.011 0.335,0.01 0.238,0.01ZM0.265,-0.116C0.302,-0.116 0.331,-0.125 0.351,-0.144C0.371,-0.163 0.386,-0.194 0.395,-0.237C0.404,-0.28 0.403,-0.311 0.391,-0.33C0.379,-0.349 0.354,-0.358 0.317,-0.358C0.28,-0.358 0.252,-0.349 0.232,-0.33C0.212,-0.311 0.197,-0.28 0.188,-0.237C0.179,-0.194 0.18,-0.163 0.192,-0.144C0.204,-0.125 0.228,-0.116 0.265,-0.116Z" style="fill:rgb(20,20,20);fill-rule:nonzero;"/>
        </g>
    </g>
    <g transform="matrix(0.993564,-0.113271,0.113271,0.993564,28.6782,2.0779)">
        <path d="M17.85,14.8L16.45,13.375C16.633,13.192 16.771,12.983 16.863,12.75C16.954,12.517 17,12.267 17,12C17,11.717 16.954,11.462 16.863,11.237C16.771,11.012 16.633,10.808 16.45,10.625L17.85,9.175C18.217,9.542 18.5,9.967 18.7,10.45C18.9,10.933 19,11.45 19,12C19,12.55 18.9,13.063 18.7,13.538C18.5,14.012 18.217,14.433 17.85,14.8ZM20.675,17.625L19.225,16.25C19.775,15.7 20.208,15.063 20.525,14.337C20.842,13.612 21,12.833 21,12C21,11.15 20.842,10.367 20.525,9.65C20.208,8.933 19.775,8.3 19.225,7.75L20.675,6.35C21.408,7.083 21.979,7.933 22.388,8.9C22.796,9.867 23,10.9 23,12C23,13.1 22.796,14.129 22.388,15.088C21.979,16.046 21.408,16.892 20.675,17.625Z" style="fill:rgb(20,20,20);fill-rule:nonzero;"/>
    </g>
</svg>
