<?xml version="1.0" encoding="UTF-8" standalone="no"?>
<!DOCTYPE svg PUBLIC "-//W3C//DTD SVG 1.1//EN" "http://www.w3.org/Graphics/SVG/1.1/DTD/svg11.dtd">
<svg width="100%" height="100%" viewBox="0 0 64 24" version="1.1" xmlns="http://www.w3.org/2000/svg" xmlns:xlink="http://www.w3.org/1999/xlink" xml:space="preserve" xmlns:serif="http://www.serif.com/" style="fill-rule:evenodd;clip-rule:evenodd;stroke-linejoin:round;stroke-miterlimit:2;">
    <g transform="matrix(1.35775,0,0,1.17837,5.55946,-2.14044)">
        <path d="M-1,21C-1.55,21 -2.021,20.804 -2.412,20.413C-2.804,20.021 -3,19.55 -3,19L-3,5C-3,4.45 -2.804,3.979 -2.412,3.587C-2.021,3.196 -1.55,3 -1,3L40,3C40.55,3 41.021,3.196 41.413,3.587C41.804,3.979 42,4.45 42,5L42,19C42,19.55 41.804,20.021 41.413,20.413C41.021,20.804 40.55,21 40,21L-1,21ZM-0.734,18L19.5,19L39.734,18L39.734,6L19.553,5L-0.734,6L-0.734,18Z" style="fill-rule:nonzero;"/>
    </g>
    <g transform="matrix(1,0,0,1,-7.23992,6.831)">
        <g transform="matrix(16,0,0,16,12.3612,10.0501)">
            <path d="M0.017,-0L0.091,-0.352L0.028,-0.352L0.054,-0.474L0.117,-0.474L0.126,-0.513C0.139,-0.568 0.161,-0.611 0.193,-0.643C0.225,-0.674 0.273,-0.69 0.338,-0.69C0.362,-0.69 0.383,-0.688 0.401,-0.685C0.419,-0.681 0.436,-0.676 0.451,-0.669L0.428,-0.561C0.419,-0.564 0.41,-0.567 0.401,-0.569C0.392,-0.571 0.381,-0.572 0.37,-0.572C0.344,-0.572 0.325,-0.567 0.312,-0.558C0.299,-0.548 0.291,-0.532 0.286,-0.51L0.278,-0.474L0.395,-0.474L0.362,-0.352L0.252,-0.352L0.178,-0L0.017,-0Z" style="fill-rule:nonzero;"/>
        </g>
        <g transform="matrix(16,0,0,16,17.8172,10.0501)">
            <path d="M0.245,0.01C0.195,0.01 0.151,0.001 0.114,-0.018C0.076,-0.036 0.049,-0.063 0.032,-0.1C0.015,-0.137 0.013,-0.182 0.024,-0.237C0.04,-0.312 0.072,-0.372 0.119,-0.417C0.166,-0.462 0.235,-0.484 0.324,-0.484C0.372,-0.484 0.412,-0.474 0.444,-0.456C0.475,-0.436 0.497,-0.411 0.51,-0.379C0.523,-0.347 0.525,-0.311 0.516,-0.27L0.498,-0.185L0.162,-0.185C0.163,-0.154 0.174,-0.132 0.195,-0.12C0.216,-0.107 0.253,-0.101 0.306,-0.101C0.332,-0.101 0.359,-0.103 0.387,-0.108C0.415,-0.113 0.439,-0.119 0.458,-0.126L0.436,-0.021C0.411,-0.01 0.383,-0.003 0.35,0.003C0.317,0.008 0.282,0.01 0.245,0.01ZM0.182,-0.278L0.378,-0.278L0.382,-0.299C0.387,-0.322 0.384,-0.341 0.373,-0.355C0.362,-0.368 0.339,-0.375 0.306,-0.375C0.267,-0.375 0.239,-0.367 0.221,-0.352C0.202,-0.336 0.189,-0.311 0.182,-0.278Z" style="fill-rule:nonzero;"/>
        </g>
        <g transform="matrix(16,0,0,16,26.5692,10.0501)">
            <path d="M0.184,0.01C0.119,0.01 0.071,-0.009 0.041,-0.047C0.011,-0.085 0.004,-0.142 0.02,-0.218C0.031,-0.271 0.05,-0.317 0.075,-0.357C0.1,-0.396 0.133,-0.427 0.173,-0.45C0.212,-0.473 0.258,-0.484 0.311,-0.484C0.338,-0.484 0.36,-0.481 0.377,-0.475C0.394,-0.468 0.409,-0.459 0.424,-0.447L0.429,-0.474L0.59,-0.474L0.49,-0L0.351,-0L0.35,-0.04C0.303,-0.007 0.248,0.01 0.184,0.01ZM0.261,-0.107C0.296,-0.107 0.329,-0.119 0.359,-0.143L0.399,-0.333C0.386,-0.355 0.362,-0.366 0.328,-0.366C0.29,-0.366 0.259,-0.354 0.236,-0.331C0.213,-0.307 0.195,-0.269 0.184,-0.218C0.175,-0.176 0.177,-0.147 0.189,-0.131C0.2,-0.115 0.224,-0.107 0.261,-0.107Z" style="fill-rule:nonzero;"/>
        </g>
        <g transform="matrix(16,0,0,16,36.1372,10.0501)">
            <path d="M0.187,0.01C0.133,0.01 0.094,-0.005 0.071,-0.035C0.048,-0.065 0.041,-0.106 0.052,-0.159L0.093,-0.352L0.029,-0.352L0.055,-0.474L0.119,-0.474L0.14,-0.573L0.31,-0.616L0.28,-0.474L0.395,-0.474L0.362,-0.352L0.254,-0.352L0.216,-0.17C0.211,-0.147 0.212,-0.132 0.219,-0.123C0.225,-0.114 0.241,-0.109 0.268,-0.109C0.289,-0.109 0.31,-0.112 0.332,-0.119L0.309,-0.01C0.275,0.003 0.234,0.01 0.187,0.01Z" style="fill-rule:nonzero;"/>
        </g>
        <g transform="matrix(16,0,0,16,42.1372,10.0501)">
            <path d="M0.165,0.01C0.113,0.01 0.074,-0.006 0.048,-0.039C0.021,-0.072 0.014,-0.117 0.027,-0.176L0.09,-0.474L0.251,-0.474L0.19,-0.185C0.184,-0.158 0.186,-0.139 0.195,-0.127C0.204,-0.114 0.222,-0.108 0.251,-0.108C0.27,-0.108 0.29,-0.112 0.309,-0.12C0.328,-0.128 0.344,-0.138 0.358,-0.15L0.427,-0.474L0.588,-0.474L0.488,-0L0.338,-0L0.341,-0.04C0.318,-0.025 0.292,-0.013 0.263,-0.004C0.234,0.005 0.201,0.01 0.165,0.01Z" style="fill-rule:nonzero;"/>
        </g>
        <g transform="matrix(16,0,0,16,51.6732,10.0501)">
            <path d="M-0.005,-0L0.095,-0.474L0.248,-0.474L0.244,-0.43C0.267,-0.443 0.295,-0.454 0.328,-0.465C0.361,-0.475 0.393,-0.481 0.424,-0.484L0.399,-0.363C0.381,-0.361 0.361,-0.358 0.339,-0.354C0.317,-0.349 0.296,-0.344 0.276,-0.338C0.255,-0.332 0.238,-0.326 0.223,-0.319L0.156,-0L-0.005,-0Z" style="fill-rule:nonzero;"/>
        </g>
        <g transform="matrix(16,0,0,16,57.5772,10.0501)">
            <path d="M0.245,0.01C0.195,0.01 0.151,0.001 0.114,-0.018C0.076,-0.036 0.049,-0.063 0.032,-0.1C0.015,-0.137 0.013,-0.182 0.024,-0.237C0.04,-0.312 0.072,-0.372 0.119,-0.417C0.166,-0.462 0.235,-0.484 0.324,-0.484C0.372,-0.484 0.412,-0.474 0.444,-0.456C0.475,-0.436 0.497,-0.411 0.51,-0.379C0.523,-0.347 0.525,-0.311 0.516,-0.27L0.498,-0.185L0.162,-0.185C0.163,-0.154 0.174,-0.132 0.195,-0.12C0.216,-0.107 0.253,-0.101 0.306,-0.101C0.332,-0.101 0.359,-0.103 0.387,-0.108C0.415,-0.113 0.439,-0.119 0.458,-0.126L0.436,-0.021C0.411,-0.01 0.383,-0.003 0.35,0.003C0.317,0.008 0.282,0.01 0.245,0.01ZM0.182,-0.278L0.378,-0.278L0.382,-0.299C0.387,-0.322 0.384,-0.341 0.373,-0.355C0.362,-0.368 0.339,-0.375 0.306,-0.375C0.267,-0.375 0.239,-0.367 0.221,-0.352C0.202,-0.336 0.189,-0.311 0.182,-0.278Z" style="fill-rule:nonzero;"/>
        </g>
    </g>
</svg>
