<?xml version="1.0" encoding="UTF-8" standalone="no"?>
<!DOCTYPE svg PUBLIC "-//W3C//DTD SVG 1.1//EN" "http://www.w3.org/Graphics/SVG/1.1/DTD/svg11.dtd">
<svg width="100%" height="100%" viewBox="0 0 760 744" version="1.1" xmlns="http://www.w3.org/2000/svg" xmlns:xlink="http://www.w3.org/1999/xlink" xml:space="preserve" xmlns:serif="http://www.serif.com/" style="fill-rule:evenodd;clip-rule:evenodd;stroke-linecap:round;stroke-linejoin:round;">
    <g transform="matrix(1,0,0,1,-26.6667,-18.1348)">
        <g transform="matrix(1,0,0,1,-40,-20)">
            <path d="M683.333,242.594L400,400.003M400,400.003L116.666,242.594M400,400.003L400,716.67M466.667,696.3L425.9,718.947C416.447,724.2 411.72,726.823 406.717,727.853C402.283,728.767 397.717,728.767 393.287,727.853C388.28,726.823 383.553,724.2 374.1,718.947L127.432,581.91C117.449,576.363 112.456,573.59 108.821,569.643C105.605,566.157 103.172,562.02 101.683,557.513C100,552.42 100,546.71 100,535.287L100,264.718C100,253.296 100,247.586 101.683,242.492C103.172,237.986 105.605,233.85 108.821,230.361C112.456,226.416 117.448,223.643 127.432,218.096L374.1,81.059C383.553,75.807 388.28,73.181 393.287,72.151C397.717,71.24 402.283,71.24 406.717,72.151C411.72,73.181 416.447,75.807 425.9,81.059L672.567,218.096C682.553,223.643 687.543,226.416 691.18,230.361C694.393,233.85 696.83,237.986 698.317,242.492C700,247.586 700,253.296 700,264.718L700,416.67M250,150.003L550,316.669" style="fill:none;fill-rule:nonzero;stroke:black;stroke-width:66.67px;"/>
        </g>
        <g transform="matrix(2.95452,-0.238715,0.238715,2.95452,400.846,406.83)">
            <path d="M64,2.859L50.133,30.523L20.768,20.768L30.523,50.133L2.859,64L30.523,77.867L20.768,107.232L50.133,97.477L64,125.141L77.867,97.477L107.232,107.232L97.477,77.867L125.141,64L97.477,50.133L107.232,20.768L77.867,30.523L64,2.859ZM57.689,40.99L70.311,40.99L68.434,75.639L59.566,75.639L57.689,40.99ZM58.629,77.799L69.371,77.799L69.371,87.01L58.629,87.01L58.629,77.799Z" style="fill-rule:nonzero;"/>
        </g>
    </g>
</svg>
