<?xml version="1.0" encoding="UTF-8" standalone="no"?>
<!DOCTYPE svg PUBLIC "-//W3C//DTD SVG 1.1//EN" "http://www.w3.org/Graphics/SVG/1.1/DTD/svg11.dtd">
<svg width="100%" height="100%" viewBox="0 0 515 203" version="1.1" xmlns="http://www.w3.org/2000/svg" xmlns:xlink="http://www.w3.org/1999/xlink" xml:space="preserve" xmlns:serif="http://www.serif.com/" style="fill-rule:evenodd;clip-rule:evenodd;stroke-linejoin:round;stroke-miterlimit:2;">
    <g transform="matrix(1,0,0,1,-44.6169,-21.1302)">
        <g transform="matrix(1.19092,0,0,1.19092,-8.51824,-4.03416)">
            <g transform="matrix(-0.332687,0,0,0.332687,476.336,21.1302)">
                <path d="M112,361.6L112,499C112,506.2 106.2,512 99,512L77,512C69.8,512 64,506.2 64,499L64,386.4C64,383.1 62.8,380 60.5,377.6C21.7,336.1 0,281.2 0,224.2C0,100.6 100.2,0 224,0L256,0C356.4,0 438.8,77 447.3,175.3C447.5,178 448.7,180.6 450.5,182.7L503.9,242.8L508.7,248.2C510.8,250.6 512,253.6 512,256.8L512,323C512,330.2 506.2,336 499,336L461,336C453.8,336 448,341.8 448,349L448,434.4C448,441.4 442.4,447.1 435.4,447.4L416,448L333,448C325.8,448 320,453.8 320,461L320,499C320,506.2 314.2,512 307,512L285,512C277.8,512 272,506.2 272,499L272,413C272,405.8 277.8,400 285,400L320,400L387.2,399.2C394.3,399.1 400,393.3 400,386.2L400,301C400,293.8 405.8,288 413,288L451,288C458.2,288 464,282.2 464,275C464,271.8 462.8,268.8 460.7,266.4L411.7,211.3L403.7,202.3C401.8,200.1 400.6,197.4 400.4,194.5L399.6,182.5C394.8,107.4 332.3,48 256,48L224,48C126.8,48 48,127 48,224.2C48,270.3 66.1,314.7 98.3,347.6L112,361.6Z" style="fill-rule:nonzero;"/>
            </g>
            <g transform="matrix(-125.766,0,0,125.766,421.059,139.219)">
                <g>
                    <path d="M0.113,-0.31L0.097,-0.544C0.094,-0.59 0.093,-0.622 0.093,-0.642C0.093,-0.669 0.1,-0.69 0.114,-0.705C0.128,-0.72 0.147,-0.728 0.17,-0.728C0.198,-0.728 0.217,-0.718 0.226,-0.699C0.236,-0.68 0.24,-0.652 0.24,-0.615C0.24,-0.594 0.239,-0.572 0.237,-0.55L0.216,-0.309C0.214,-0.28 0.209,-0.258 0.201,-0.243C0.194,-0.228 0.181,-0.22 0.164,-0.22C0.146,-0.22 0.134,-0.228 0.127,-0.242C0.121,-0.257 0.116,-0.28 0.113,-0.31ZM0.167,0.011C0.147,0.011 0.13,0.005 0.115,-0.008C0.1,-0.021 0.093,-0.039 0.093,-0.062C0.093,-0.082 0.1,-0.099 0.114,-0.114C0.128,-0.128 0.146,-0.135 0.166,-0.135C0.187,-0.135 0.204,-0.128 0.219,-0.114C0.233,-0.099 0.24,-0.082 0.24,-0.062C0.24,-0.039 0.233,-0.021 0.218,-0.008C0.204,0.005 0.187,0.011 0.167,0.011Z" style="fill-rule:nonzero;"/>
                </g>
            </g>
            <g transform="matrix(1.2973,0,0,1.2973,-87.792,-165.318)">
                <g transform="matrix(50,0,0,50,121.165,180.846)">
                    <path d="M-0.005,-0L0.131,-0.644L0.292,-0.644L0.182,-0.124L0.486,-0.124L0.46,-0L-0.005,-0Z" style="fill-rule:nonzero;"/>
                </g>
                <g transform="matrix(50,0,0,50,147.315,180.846)">
                    <path d="M0.245,0.01C0.195,0.01 0.151,0.001 0.114,-0.018C0.076,-0.036 0.049,-0.063 0.032,-0.1C0.015,-0.137 0.013,-0.182 0.024,-0.237C0.04,-0.312 0.072,-0.372 0.119,-0.417C0.166,-0.462 0.235,-0.484 0.324,-0.484C0.372,-0.484 0.412,-0.474 0.444,-0.456C0.475,-0.436 0.497,-0.411 0.51,-0.379C0.523,-0.347 0.525,-0.311 0.516,-0.27L0.498,-0.185L0.162,-0.185C0.163,-0.154 0.174,-0.132 0.195,-0.12C0.216,-0.107 0.253,-0.101 0.306,-0.101C0.332,-0.101 0.359,-0.103 0.387,-0.108C0.415,-0.113 0.439,-0.119 0.458,-0.126L0.436,-0.021C0.411,-0.01 0.383,-0.003 0.35,0.003C0.317,0.008 0.282,0.01 0.245,0.01ZM0.182,-0.278L0.378,-0.278L0.382,-0.299C0.387,-0.322 0.384,-0.341 0.373,-0.355C0.362,-0.368 0.339,-0.375 0.306,-0.375C0.267,-0.375 0.239,-0.367 0.221,-0.352C0.202,-0.336 0.189,-0.311 0.182,-0.278Z" style="fill-rule:nonzero;"/>
                </g>
                <g transform="matrix(50,0,0,50,173.665,180.846)">
                    <path d="M0.142,-0.549L0.168,-0.67L0.343,-0.67L0.317,-0.549L0.142,-0.549ZM0.039,-0L0.114,-0.355L0.044,-0.355L0.083,-0.474L0.3,-0.474L0.2,-0L0.039,-0Z" style="fill-rule:nonzero;"/>
                </g>
                <g transform="matrix(50,0,0,50,189.115,180.846)">
                    <path d="M0.241,0.01C0.19,0.01 0.147,0.001 0.11,-0.018C0.073,-0.036 0.046,-0.063 0.031,-0.1C0.015,-0.137 0.013,-0.182 0.024,-0.237C0.041,-0.32 0.077,-0.382 0.132,-0.423C0.187,-0.464 0.259,-0.484 0.349,-0.484C0.384,-0.484 0.413,-0.482 0.438,-0.477C0.463,-0.472 0.486,-0.463 0.508,-0.452L0.483,-0.338C0.45,-0.356 0.409,-0.365 0.358,-0.365C0.311,-0.365 0.274,-0.356 0.246,-0.337C0.217,-0.318 0.198,-0.285 0.188,-0.237C0.179,-0.192 0.182,-0.16 0.198,-0.14C0.213,-0.119 0.248,-0.109 0.303,-0.109C0.352,-0.109 0.398,-0.119 0.442,-0.139L0.417,-0.02C0.39,-0.009 0.363,-0.002 0.334,0.003C0.305,0.008 0.274,0.01 0.241,0.01Z" style="fill-rule:nonzero;"/>
                </g>
                <g transform="matrix(50,0,0,50,214.165,180.846)">
                    <path d="M-0.006,-0L0.137,-0.674L0.298,-0.674L0.248,-0.439C0.269,-0.452 0.293,-0.463 0.322,-0.472C0.35,-0.48 0.379,-0.484 0.41,-0.484C0.469,-0.484 0.511,-0.469 0.537,-0.439C0.562,-0.409 0.568,-0.363 0.555,-0.301L0.492,-0L0.331,-0L0.392,-0.29C0.398,-0.317 0.397,-0.337 0.389,-0.348C0.381,-0.359 0.361,-0.365 0.33,-0.365C0.313,-0.365 0.294,-0.361 0.275,-0.353C0.255,-0.345 0.238,-0.335 0.223,-0.323L0.155,-0L-0.006,-0Z" style="fill-rule:nonzero;"/>
                </g>
                <g transform="matrix(50,0,0,50,243.915,180.846)">
                    <path d="M0.187,0.01C0.133,0.01 0.094,-0.005 0.071,-0.035C0.048,-0.065 0.041,-0.106 0.052,-0.159L0.093,-0.352L0.029,-0.352L0.055,-0.474L0.119,-0.474L0.14,-0.573L0.31,-0.616L0.28,-0.474L0.395,-0.474L0.362,-0.352L0.254,-0.352L0.216,-0.17C0.211,-0.147 0.212,-0.132 0.219,-0.123C0.225,-0.114 0.241,-0.109 0.268,-0.109C0.289,-0.109 0.31,-0.112 0.332,-0.119L0.309,-0.01C0.275,0.003 0.234,0.01 0.187,0.01Z" style="fill-rule:nonzero;"/>
                </g>
                <g transform="matrix(50,0,0,50,262.665,180.846)">
                    <path d="M0.245,0.01C0.195,0.01 0.151,0.001 0.114,-0.018C0.076,-0.036 0.049,-0.063 0.032,-0.1C0.015,-0.137 0.013,-0.182 0.024,-0.237C0.04,-0.312 0.072,-0.372 0.119,-0.417C0.166,-0.462 0.235,-0.484 0.324,-0.484C0.372,-0.484 0.412,-0.474 0.444,-0.456C0.475,-0.436 0.497,-0.411 0.51,-0.379C0.523,-0.347 0.525,-0.311 0.516,-0.27L0.498,-0.185L0.162,-0.185C0.163,-0.154 0.174,-0.132 0.195,-0.12C0.216,-0.107 0.253,-0.101 0.306,-0.101C0.332,-0.101 0.359,-0.103 0.387,-0.108C0.415,-0.113 0.439,-0.119 0.458,-0.126L0.436,-0.021C0.411,-0.01 0.383,-0.003 0.35,0.003C0.317,0.008 0.282,0.01 0.245,0.01ZM0.182,-0.278L0.378,-0.278L0.382,-0.299C0.387,-0.322 0.384,-0.341 0.373,-0.355C0.362,-0.368 0.339,-0.375 0.306,-0.375C0.267,-0.375 0.239,-0.367 0.221,-0.352C0.202,-0.336 0.189,-0.311 0.182,-0.278Z" style="fill-rule:nonzero;"/>
                </g>
                <g transform="matrix(50,0,0,50,102.565,230.846)">
                    <path d="M0.197,0.01C0.154,0.01 0.115,0.007 0.08,0.001C0.044,-0.006 0.014,-0.015 -0.01,-0.027L0.019,-0.164C0.046,-0.151 0.077,-0.141 0.111,-0.133C0.144,-0.125 0.177,-0.121 0.209,-0.121C0.249,-0.121 0.28,-0.125 0.301,-0.132C0.322,-0.139 0.336,-0.155 0.341,-0.18C0.344,-0.197 0.342,-0.21 0.335,-0.22C0.328,-0.23 0.314,-0.239 0.294,-0.247C0.273,-0.254 0.246,-0.263 0.211,-0.274C0.149,-0.293 0.108,-0.317 0.088,-0.346C0.067,-0.374 0.062,-0.413 0.073,-0.464C0.086,-0.525 0.119,-0.572 0.17,-0.605C0.221,-0.638 0.289,-0.654 0.375,-0.654C0.412,-0.654 0.448,-0.651 0.482,-0.646C0.516,-0.64 0.543,-0.633 0.564,-0.626L0.534,-0.488C0.507,-0.499 0.48,-0.508 0.453,-0.513C0.425,-0.518 0.397,-0.521 0.37,-0.521C0.334,-0.521 0.304,-0.518 0.281,-0.511C0.257,-0.504 0.242,-0.489 0.237,-0.465C0.234,-0.451 0.236,-0.44 0.242,-0.432C0.248,-0.423 0.26,-0.416 0.279,-0.409C0.297,-0.402 0.322,-0.394 0.354,-0.385C0.404,-0.371 0.441,-0.354 0.465,-0.335C0.488,-0.315 0.503,-0.292 0.508,-0.267C0.513,-0.241 0.513,-0.212 0.506,-0.18C0.494,-0.123 0.462,-0.078 0.411,-0.043C0.359,-0.008 0.288,0.01 0.197,0.01Z" style="fill-rule:nonzero;"/>
                </g>
                <g transform="matrix(50,0,0,50,130.365,230.846)">
                    <path d="M-0.051,0.216L0.095,-0.474L0.235,-0.474L0.235,-0.433C0.258,-0.449 0.282,-0.462 0.308,-0.471C0.333,-0.48 0.362,-0.484 0.394,-0.484C0.464,-0.484 0.513,-0.463 0.542,-0.422C0.571,-0.38 0.577,-0.318 0.561,-0.237C0.544,-0.152 0.513,-0.089 0.466,-0.05C0.419,-0.01 0.358,0.01 0.281,0.01C0.232,0.01 0.191,-0 0.16,-0.021L0.11,0.216L-0.051,0.216ZM0.265,-0.108C0.299,-0.108 0.327,-0.118 0.35,-0.139C0.372,-0.16 0.388,-0.193 0.398,-0.24C0.407,-0.285 0.406,-0.318 0.394,-0.337C0.382,-0.356 0.358,-0.366 0.323,-0.366C0.305,-0.366 0.288,-0.363 0.273,-0.357C0.257,-0.351 0.241,-0.342 0.226,-0.33L0.185,-0.138C0.194,-0.128 0.205,-0.121 0.218,-0.116C0.23,-0.111 0.246,-0.108 0.265,-0.108Z" style="fill-rule:nonzero;"/>
                </g>
                <g transform="matrix(50,0,0,50,160.315,230.846)">
                    <path d="M-0.005,-0L0.095,-0.474L0.248,-0.474L0.244,-0.43C0.267,-0.443 0.295,-0.454 0.328,-0.465C0.361,-0.475 0.393,-0.481 0.424,-0.484L0.399,-0.363C0.381,-0.361 0.361,-0.358 0.339,-0.354C0.317,-0.349 0.296,-0.344 0.276,-0.338C0.255,-0.332 0.238,-0.326 0.223,-0.319L0.156,-0L-0.005,-0Z" style="fill-rule:nonzero;"/>
                </g>
                <g transform="matrix(50,0,0,50,178.765,230.846)">
                    <path d="M0.184,0.01C0.119,0.01 0.071,-0.009 0.041,-0.047C0.011,-0.085 0.004,-0.142 0.02,-0.218C0.031,-0.271 0.05,-0.317 0.075,-0.357C0.1,-0.396 0.133,-0.427 0.173,-0.45C0.212,-0.473 0.258,-0.484 0.311,-0.484C0.338,-0.484 0.36,-0.481 0.377,-0.475C0.394,-0.468 0.409,-0.459 0.424,-0.447L0.429,-0.474L0.59,-0.474L0.49,-0L0.351,-0L0.35,-0.04C0.303,-0.007 0.248,0.01 0.184,0.01ZM0.261,-0.107C0.296,-0.107 0.329,-0.119 0.359,-0.143L0.399,-0.333C0.386,-0.355 0.362,-0.366 0.328,-0.366C0.29,-0.366 0.259,-0.354 0.236,-0.331C0.213,-0.307 0.195,-0.269 0.184,-0.218C0.175,-0.176 0.177,-0.147 0.189,-0.131C0.2,-0.115 0.224,-0.107 0.261,-0.107Z" style="fill-rule:nonzero;"/>
                </g>
                <g transform="matrix(50,0,0,50,208.665,230.846)">
                    <path d="M0.241,0.01C0.19,0.01 0.147,0.001 0.11,-0.018C0.073,-0.036 0.046,-0.063 0.031,-0.1C0.015,-0.137 0.013,-0.182 0.024,-0.237C0.041,-0.32 0.077,-0.382 0.132,-0.423C0.187,-0.464 0.259,-0.484 0.349,-0.484C0.384,-0.484 0.413,-0.482 0.438,-0.477C0.463,-0.472 0.486,-0.463 0.508,-0.452L0.483,-0.338C0.45,-0.356 0.409,-0.365 0.358,-0.365C0.311,-0.365 0.274,-0.356 0.246,-0.337C0.217,-0.318 0.198,-0.285 0.188,-0.237C0.179,-0.192 0.182,-0.16 0.198,-0.14C0.213,-0.119 0.248,-0.109 0.303,-0.109C0.352,-0.109 0.398,-0.119 0.442,-0.139L0.417,-0.02C0.39,-0.009 0.363,-0.002 0.334,0.003C0.305,0.008 0.274,0.01 0.241,0.01Z" style="fill-rule:nonzero;"/>
                </g>
                <g transform="matrix(50,0,0,50,233.715,230.846)">
                    <path d="M-0.006,-0L0.137,-0.674L0.298,-0.674L0.248,-0.439C0.269,-0.452 0.293,-0.463 0.322,-0.472C0.35,-0.48 0.379,-0.484 0.41,-0.484C0.469,-0.484 0.511,-0.469 0.537,-0.439C0.562,-0.409 0.568,-0.363 0.555,-0.301L0.492,-0L0.331,-0L0.392,-0.29C0.398,-0.317 0.397,-0.337 0.389,-0.348C0.381,-0.359 0.361,-0.365 0.33,-0.365C0.313,-0.365 0.294,-0.361 0.275,-0.353C0.255,-0.345 0.238,-0.335 0.223,-0.323L0.155,-0L-0.006,-0Z" style="fill-rule:nonzero;"/>
                </g>
                <g transform="matrix(50,0,0,50,262.665,230.846)">
                    <path d="M0.245,0.01C0.195,0.01 0.151,0.001 0.114,-0.018C0.076,-0.036 0.049,-0.063 0.032,-0.1C0.015,-0.137 0.013,-0.182 0.024,-0.237C0.04,-0.312 0.072,-0.372 0.119,-0.417C0.166,-0.462 0.235,-0.484 0.324,-0.484C0.372,-0.484 0.412,-0.474 0.444,-0.456C0.475,-0.436 0.497,-0.411 0.51,-0.379C0.523,-0.347 0.525,-0.311 0.516,-0.27L0.498,-0.185L0.162,-0.185C0.163,-0.154 0.174,-0.132 0.195,-0.12C0.216,-0.107 0.253,-0.101 0.306,-0.101C0.332,-0.101 0.359,-0.103 0.387,-0.108C0.415,-0.113 0.439,-0.119 0.458,-0.126L0.436,-0.021C0.411,-0.01 0.383,-0.003 0.35,0.003C0.317,0.008 0.282,0.01 0.245,0.01ZM0.182,-0.278L0.378,-0.278L0.382,-0.299C0.387,-0.322 0.384,-0.341 0.373,-0.355C0.362,-0.368 0.339,-0.375 0.306,-0.375C0.267,-0.375 0.239,-0.367 0.221,-0.352C0.202,-0.336 0.189,-0.311 0.182,-0.278Z" style="fill-rule:nonzero;"/>
                </g>
            </g>
            <g transform="matrix(1.92339,0,0,1.92339,251.893,150.26)">
                <path d="M21.256,7.235C21.256,4.624 19.136,2.505 16.526,2.505L6.068,2.505C3.458,2.505 1.338,4.624 1.338,7.235L1.338,16.694C1.338,19.304 3.458,21.424 6.068,21.424L16.526,21.424C19.136,21.424 21.256,19.304 21.256,16.694L21.256,7.235ZM11.423,18.097C10.703,18.709 10.011,19.141 9.345,19.393C8.679,19.645 7.964,19.771 7.201,19.771C5.941,19.771 4.973,19.463 4.296,18.848C3.619,18.232 3.281,17.446 3.281,16.488C3.281,15.926 3.409,15.414 3.664,14.949C3.92,14.485 4.255,14.112 4.669,13.831C5.083,13.551 5.549,13.338 6.067,13.194C6.449,13.094 7.025,12.996 7.795,12.903C9.364,12.716 10.52,12.492 11.261,12.233C11.269,11.967 11.272,11.798 11.272,11.726C11.272,10.934 11.089,10.376 10.721,10.052C10.225,9.613 9.487,9.393 8.508,9.393C7.593,9.393 6.918,9.553 6.483,9.874C6.047,10.194 5.725,10.761 5.516,11.575L3.616,11.315C3.789,10.502 4.073,9.845 4.469,9.345C4.865,8.844 5.437,8.459 6.186,8.189C6.935,7.919 7.802,7.784 8.788,7.784C9.768,7.784 10.563,7.899 11.175,8.13C11.787,8.36 12.237,8.65 12.525,8.999C12.813,9.348 13.014,9.789 13.13,10.322C13.194,10.653 13.227,11.251 13.227,12.114L13.227,14.706C13.227,16.513 13.268,17.656 13.351,18.135C13.434,18.614 13.598,19.073 13.842,19.512L11.812,19.512C11.611,19.109 11.481,18.637 11.423,18.097ZM16.251,19.512L16.251,8.043L18.194,8.043L18.194,19.512L16.251,19.512ZM11.261,13.756C10.556,14.044 9.498,14.289 8.087,14.49C7.287,14.605 6.722,14.735 6.391,14.879C6.06,15.023 5.804,15.234 5.624,15.511C5.444,15.788 5.354,16.096 5.354,16.434C5.354,16.952 5.551,17.384 5.943,17.73C6.335,18.075 6.909,18.248 7.665,18.248C8.414,18.248 9.08,18.084 9.663,17.757C10.246,17.429 10.675,16.981 10.948,16.412C11.157,15.973 11.261,15.325 11.261,14.469L11.261,13.756ZM16.251,5.916L16.251,3.68L18.194,3.68L18.194,5.916L16.251,5.916Z"/>
            </g>
        </g>
    </g>
</svg>
